{"glyphs":{"0":{"ha":839,"x_min":0,"x_max":0,"o":"m 425 1007 b 68 499 215 1007 68 806 b 414 -10 68 197 208 -10 b 771 513 622 -10 771 204 b 425 1007 771 813 632 1007 z m 422 960 b 719 506 600 960 719 785 b 417 39 719 228 596 39 b 119 503 240 39 119 225 b 422 960 119 781 242 960 z "},"1":{"ha":554,"x_min":0,"x_max":0,"o":"m 432 0 b 446 14 440 0 446 6 l 444 985 b 431 999 444 994 440 999 l 376 999 b 360 992 369 999 364 997 l 79 754 b 78 733 72 747 71 740 l 92 718 b 111 717 99 713 106 711 l 386 954 l 392 954 l 390 14 b 404 0 390 6 396 0 z "},"2":{"ha":804,"x_min":0,"x_max":0,"o":"m 190 47 l 190 53 l 546 451 b 699 744 649 564 699 643 b 429 1004 699 901 594 1004 b 128 789 278 1004 174 917 b 139 774 124 779 129 774 l 161 774 b 178 785 169 774 175 778 b 428 957 217 889 306 957 b 647 743 568 957 647 869 b 508 482 647 654 601 583 l 121 50 b 114 31 115 43 114 39 l 114 14 b 128 0 114 4 118 0 l 722 -1 b 736 13 731 -1 736 4 l 736 35 b 722 49 736 43 731 49 z "},"3":{"ha":764,"x_min":0,"x_max":0,"o":"m 472 529 b 667 761 596 561 667 643 b 396 1004 667 903 561 1004 b 93 789 244 1004 140 915 b 104 774 89 781 94 774 l 128 774 b 144 785 136 774 142 778 b 394 957 183 889 272 957 b 617 758 535 957 617 871 b 347 550 617 633 522 550 l 296 550 b 282 536 288 550 282 546 l 282 518 b 296 504 282 510 288 504 l 347 504 b 644 282 533 504 644 415 b 385 39 644 135 546 39 b 125 210 253 39 151 103 b 110 222 122 218 118 222 l 83 222 b 71 207 74 222 69 217 b 386 -8 103 81 221 -8 b 696 279 574 -8 696 106 b 472 529 696 408 611 497 z "},"4":{"ha":819,"x_min":0,"x_max":0,"o":"m 751 319 b 738 333 751 329 746 333 l 594 333 l 593 985 b 579 999 593 994 589 999 l 550 999 b 532 989 543 999 538 996 l 75 340 b 68 318 69 333 68 329 l 68 299 b 82 285 68 290 74 285 l 542 285 l 540 14 b 554 0 540 6 546 0 l 581 0 b 594 14 589 0 594 6 l 594 285 l 738 285 b 751 299 747 285 751 290 z m 542 333 l 129 333 l 129 338 l 538 915 l 544 915 z "},"5":{"ha":774,"x_min":0,"x_max":0,"o":"m 658 985 b 644 999 658 994 653 999 l 183 999 b 168 985 174 999 169 994 l 124 515 b 136 501 122 507 128 501 l 161 500 b 178 506 168 500 172 501 b 390 575 231 547 308 575 b 654 304 556 575 654 461 b 383 39 654 142 549 39 b 125 210 244 39 150 111 b 110 222 122 218 118 222 l 83 222 b 71 207 74 222 69 217 b 383 -8 100 85 215 -8 b 706 304 576 -8 706 114 b 394 622 706 488 583 622 b 181 556 315 622 238 599 l 175 556 l 211 950 l 644 950 b 658 964 654 950 658 956 z "},"6":{"ha":821,"x_min":0,"x_max":0,"o":"m 428 596 b 158 506 324 596 229 557 l 151 506 b 453 961 168 801 276 961 b 664 817 561 961 636 899 b 681 806 667 810 672 806 l 703 807 b 714 822 713 807 717 813 b 454 1010 683 929 594 1010 b 100 429 233 1010 100 810 b 442 -10 100 119 258 -10 b 753 289 615 -10 753 106 b 428 596 753 475 614 596 z m 444 38 b 150 429 286 38 150 146 l 150 451 b 422 547 217 504 315 547 b 703 288 588 547 703 443 b 444 38 703 133 594 38 z "},"7":{"ha":744,"x_min":0,"x_max":0,"o":"m 82 999 b 68 985 72 999 68 994 l 68 965 b 82 951 68 956 72 951 l 617 950 l 617 944 b 218 17 476 672 342 364 b 229 0 215 6 219 0 l 260 0 b 276 11 268 0 274 4 b 671 947 397 361 531 672 b 676 969 674 956 676 963 l 676 985 b 663 999 676 994 671 999 z "},"8":{"ha":839,"x_min":0,"x_max":0,"o":"m 419 1025 b 143 767 253 1025 143 915 b 300 542 143 646 211 572 l 300 538 b 100 269 178 501 100 401 b 419 -11 100 101 228 -11 b 739 269 611 -11 739 101 b 536 538 739 400 663 501 l 536 540 b 696 767 625 572 696 644 b 419 1025 696 915 588 1025 z m 419 982 b 646 765 556 982 646 889 b 419 557 646 644 557 557 b 193 765 282 557 193 644 b 419 982 193 889 283 982 z m 419 515 b 688 271 581 515 688 413 b 419 33 688 131 583 33 b 151 271 257 33 151 131 b 419 515 151 413 258 515 z "},"9":{"ha":815,"x_min":0,"x_max":0,"o":"m 381 1010 b 76 717 211 1010 76 897 b 393 417 76 535 214 417 b 658 507 496 417 590 456 l 664 507 b 363 39 651 203 542 39 b 140 182 249 39 168 100 b 124 193 138 189 132 193 l 101 193 b 89 178 90 193 86 188 b 361 -10 121 71 214 -10 b 715 569 583 -10 715 189 b 381 1010 715 882 560 1010 z m 399 464 b 126 719 239 464 126 565 b 378 961 126 868 233 961 b 665 571 532 961 665 854 l 665 563 b 399 464 599 510 503 464 z "},"A":{"ha":860,"x_min":0,"x_max":0,"o":"m 653 339 l 775 11 b 790 0 778 4 783 0 l 818 0 b 829 17 828 0 832 7 l 463 986 b 447 997 460 993 454 997 l 413 997 b 397 986 406 997 400 993 l 31 17 b 42 0 28 7 32 0 l 69 0 b 85 11 76 0 82 4 l 207 339 z m 635 389 l 226 389 l 431 936 z "},"Á":{"ha":860,"x_min":0,"x_max":0,"o":"m 574 1307 b 565 1324 581 1315 578 1324 l 544 1324 b 528 1315 536 1324 532 1321 l 421 1168 b 429 1151 414 1158 418 1151 l 432 1151 b 449 1160 439 1151 443 1154 z m 653 339 l 775 11 b 790 0 778 4 783 0 l 818 0 b 829 17 828 0 832 7 l 463 986 b 447 997 460 993 454 997 l 413 997 b 397 986 406 997 400 993 l 31 17 b 42 0 28 7 32 0 l 69 0 b 85 11 76 0 82 4 l 207 339 z m 635 389 l 226 389 l 431 936 z "},"Ă":{"ha":860,"x_min":0,"x_max":0,"o":"m 429 1143 b 575 1278 513 1143 575 1186 l 575 1281 b 561 1294 575 1290 569 1294 l 551 1294 b 538 1281 543 1294 538 1290 l 538 1278 b 429 1179 538 1206 492 1179 b 321 1278 367 1179 321 1206 l 321 1281 b 307 1294 321 1290 315 1294 l 297 1294 b 283 1281 289 1294 283 1290 l 283 1278 b 429 1143 283 1186 346 1143 z m 653 339 l 775 11 b 790 0 778 4 783 0 l 818 0 b 829 17 828 0 832 7 l 463 986 b 447 997 460 993 454 997 l 413 997 b 397 986 406 997 400 993 l 31 17 b 42 0 28 7 32 0 l 69 0 b 85 11 76 0 82 4 l 207 339 z m 635 389 l 226 389 l 431 936 z "},"Ǎ":{"ha":860,"x_min":0,"x_max":0,"o":"m 433 1153 b 450 1161 440 1153 444 1156 l 567 1303 b 558 1319 574 1311 571 1319 l 539 1319 b 522 1311 531 1319 526 1317 l 431 1185 l 425 1185 l 333 1311 b 315 1319 328 1317 324 1319 l 297 1319 b 289 1303 285 1319 282 1311 l 406 1161 b 422 1153 411 1156 415 1153 z m 653 339 l 775 11 b 790 0 778 4 783 0 l 818 0 b 829 17 828 0 832 7 l 463 986 b 447 997 460 993 454 997 l 413 997 b 397 986 406 997 400 993 l 31 17 b 42 0 28 7 32 0 l 69 0 b 85 11 76 0 82 4 l 207 339 z m 635 389 l 226 389 l 431 936 z "},"Â":{"ha":860,"x_min":0,"x_max":0,"o":"m 428 1286 l 433 1286 l 525 1160 b 543 1151 531 1154 535 1151 l 561 1151 b 569 1168 574 1151 576 1160 l 453 1310 b 436 1318 447 1315 443 1318 l 425 1318 b 408 1310 418 1318 414 1315 l 292 1168 b 300 1151 285 1160 288 1151 l 319 1151 b 336 1160 328 1151 332 1154 z m 653 339 l 775 11 b 790 0 778 4 783 0 l 818 0 b 829 17 828 0 832 7 l 463 986 b 447 997 460 993 454 997 l 413 997 b 397 986 406 997 400 993 l 31 17 b 42 0 28 7 32 0 l 69 0 b 85 11 76 0 82 4 l 207 339 z m 635 389 l 226 389 l 431 936 z "},"Ä":{"ha":860,"x_min":0,"x_max":0,"o":"m 388 1283 b 374 1297 388 1293 382 1297 l 361 1297 b 347 1283 353 1297 347 1293 l 347 1211 b 361 1197 347 1203 353 1197 l 374 1197 b 388 1211 383 1197 388 1203 z m 554 1283 b 540 1297 554 1293 549 1297 l 528 1297 b 514 1283 519 1297 514 1293 l 514 1211 b 528 1197 514 1203 519 1197 l 540 1197 b 554 1211 550 1197 554 1203 z m 653 339 l 775 11 b 790 0 778 4 783 0 l 818 0 b 829 17 828 0 832 7 l 463 986 b 447 997 460 993 454 997 l 413 997 b 397 986 406 997 400 993 l 31 17 b 42 0 28 7 32 0 l 69 0 b 85 11 76 0 82 4 l 207 339 z m 635 389 l 226 389 l 431 936 z "},"À":{"ha":860,"x_min":0,"x_max":0,"o":"m 435 1151 b 443 1168 446 1151 450 1158 l 336 1315 b 319 1324 332 1321 328 1324 l 299 1324 b 290 1307 286 1324 283 1315 l 415 1160 b 432 1151 421 1154 425 1151 z m 653 339 l 775 11 b 790 0 778 4 783 0 l 818 0 b 829 17 828 0 832 7 l 463 986 b 447 997 460 993 454 997 l 413 997 b 397 986 406 997 400 993 l 31 17 b 42 0 28 7 32 0 l 69 0 b 85 11 76 0 82 4 l 207 339 z m 635 389 l 226 389 l 431 936 z "},"Ā":{"ha":860,"x_min":0,"x_max":0,"o":"m 557 1236 b 543 1250 557 1246 553 1250 l 315 1250 b 301 1236 307 1250 301 1246 l 301 1228 b 315 1214 301 1219 306 1214 l 543 1214 b 557 1228 553 1214 557 1219 z m 653 339 l 775 11 b 790 0 778 4 783 0 l 818 0 b 829 17 828 0 832 7 l 463 986 b 447 997 460 993 454 997 l 413 997 b 397 986 406 997 400 993 l 31 17 b 42 0 28 7 32 0 l 69 0 b 85 11 76 0 82 4 l 207 339 z m 635 389 l 226 389 l 431 936 z "},"Å":{"ha":860,"x_min":0,"x_max":0,"o":"m 431 1126 b 532 1229 486 1126 532 1167 b 431 1331 532 1290 486 1331 b 328 1229 375 1331 328 1290 b 431 1126 328 1167 375 1126 z m 431 1300 b 501 1229 469 1300 501 1272 b 431 1158 501 1186 469 1158 b 360 1229 392 1158 360 1186 b 431 1300 360 1272 392 1300 z m 653 339 l 775 11 b 790 0 778 4 783 0 l 818 0 b 829 17 828 0 832 7 l 463 986 b 447 997 460 993 454 997 l 413 997 b 397 986 406 997 400 993 l 31 17 b 42 0 28 7 32 0 l 69 0 b 85 11 76 0 82 4 l 207 339 z m 635 389 l 226 389 l 431 936 z "},"Ã":{"ha":860,"x_min":0,"x_max":0,"o":"m 360 1251 b 510 1161 417 1251 436 1161 b 586 1254 560 1161 582 1201 b 572 1268 586 1263 581 1268 l 565 1268 b 551 1254 556 1268 551 1263 b 510 1197 550 1219 540 1197 b 360 1288 453 1197 432 1288 b 279 1194 307 1288 283 1244 b 293 1181 279 1186 285 1181 l 300 1181 b 314 1194 310 1181 314 1185 b 360 1251 317 1226 329 1251 z m 653 339 l 775 11 b 790 0 778 4 783 0 l 818 0 b 829 17 828 0 832 7 l 463 986 b 447 997 460 993 454 997 l 413 997 b 397 986 406 997 400 993 l 31 17 b 42 0 28 7 32 0 l 69 0 b 85 11 76 0 82 4 l 207 339 z m 635 389 l 226 389 l 431 936 z "},"Æ":{"ha":1228,"x_min":0,"x_max":0,"o":"m 675 47 l 674 503 l 1051 503 b 1065 517 1061 503 1065 508 l 1065 538 b 1051 551 1065 547 1060 551 l 674 551 l 674 951 l 1140 950 b 1154 964 1149 950 1154 956 l 1154 986 b 1140 1000 1154 994 1149 1000 l 608 999 b 592 989 600 999 596 996 l 35 17 b 44 0 29 7 33 0 l 72 0 b 89 10 81 0 85 3 l 278 339 l 621 339 l 621 14 b 635 0 621 4 625 0 l 1146 -1 b 1160 13 1154 -1 1160 4 l 1160 35 b 1146 49 1160 43 1154 49 z m 622 389 l 307 389 l 622 938 z "},"B":{"ha":885,"x_min":0,"x_max":0,"o":"m 625 533 b 756 753 710 575 756 656 b 481 997 756 896 651 997 l 124 997 b 110 983 114 997 110 993 l 108 14 b 122 0 108 6 114 0 l 522 0 b 817 278 703 0 817 117 b 625 533 817 403 747 497 z m 163 950 l 474 950 b 704 750 618 950 704 868 b 479 549 704 632 619 549 l 163 549 z m 163 47 l 163 501 l 513 501 b 765 275 668 501 765 410 b 517 47 765 140 671 47 z "},"C":{"ha":972,"x_min":0,"x_max":0,"o":"m 515 1008 b 68 499 256 1008 68 801 b 506 -10 68 203 246 -10 b 900 265 699 -10 838 99 b 889 282 903 275 899 282 l 864 282 b 849 271 857 282 851 279 b 508 39 789 121 669 39 b 119 501 279 39 119 228 b 513 960 119 778 279 960 b 835 763 658 960 772 883 b 851 753 839 756 844 753 l 875 753 b 886 769 886 753 890 760 b 515 1008 821 918 686 1008 z "},"Ć":{"ha":972,"x_min":0,"x_max":0,"o":"m 629 1306 b 621 1322 636 1314 633 1322 l 600 1322 b 583 1314 592 1322 588 1319 l 476 1167 b 485 1150 469 1157 474 1150 l 488 1150 b 504 1158 494 1150 499 1153 z m 515 1008 b 68 499 256 1008 68 801 b 506 -10 68 203 246 -10 b 900 265 699 -10 838 99 b 889 282 903 275 899 282 l 864 282 b 849 271 857 282 851 279 b 508 39 789 121 669 39 b 119 501 279 39 119 228 b 513 960 119 778 279 960 b 835 763 658 960 772 883 b 851 753 839 756 844 753 l 875 753 b 886 769 886 753 890 760 b 515 1008 821 918 686 1008 z "},"Č":{"ha":972,"x_min":0,"x_max":0,"o":"m 490 1151 b 507 1160 497 1151 501 1154 l 624 1301 b 615 1318 631 1310 628 1318 l 596 1318 b 579 1310 588 1318 583 1315 l 488 1183 l 482 1183 l 390 1310 b 372 1318 385 1315 381 1318 l 354 1318 b 346 1301 342 1318 339 1310 l 463 1160 b 479 1151 468 1154 472 1151 z m 864 282 b 849 271 857 282 851 279 b 508 39 789 121 669 39 b 119 501 279 39 119 228 b 513 960 119 778 279 960 b 835 763 658 960 772 883 b 851 753 839 756 844 753 l 875 753 b 886 769 886 753 890 760 b 515 1008 821 918 686 1008 b 68 499 256 1008 68 801 b 506 -10 68 203 246 -10 b 900 265 699 -10 838 99 b 889 282 903 275 899 282 z "},"Ç":{"ha":972,"x_min":0,"x_max":0,"o":"m 864 282 b 849 271 857 282 851 279 b 508 39 789 121 669 39 b 119 501 279 39 119 228 b 513 960 119 778 279 960 b 835 763 658 960 772 883 b 851 753 839 756 844 753 l 875 753 b 886 769 886 753 890 760 b 515 1008 821 918 686 1008 b 68 499 256 1008 68 801 b 468 -8 68 217 229 11 l 439 -108 b 451 -124 436 -118 440 -124 b 576 -214 535 -128 576 -162 b 483 -293 576 -261 542 -293 b 399 -275 460 -293 426 -287 b 381 -282 390 -271 385 -274 l 379 -286 b 386 -304 376 -294 379 -301 b 482 -328 419 -321 451 -328 b 614 -211 568 -328 614 -275 b 481 -94 614 -137 554 -103 l 507 -10 b 900 265 699 -8 838 99 b 889 282 903 275 899 282 z "},"Ċ":{"ha":972,"x_min":0,"x_max":0,"o":"m 511 1282 b 497 1296 511 1292 507 1296 l 474 1296 b 460 1282 465 1296 460 1292 l 460 1210 b 474 1196 460 1201 464 1196 l 497 1196 b 511 1210 507 1196 511 1201 z m 515 1008 b 68 499 256 1008 68 801 b 506 -10 68 203 246 -10 b 900 265 699 -10 838 99 b 889 282 903 275 899 282 l 864 282 b 849 271 857 282 851 279 b 508 39 789 121 669 39 b 119 501 279 39 119 228 b 513 960 119 778 279 960 b 835 763 658 960 772 883 b 851 753 839 756 844 753 l 875 753 b 886 769 886 753 890 760 b 515 1008 821 918 686 1008 z "},"D":{"ha":938,"x_min":0,"x_max":0,"o":"m 124 997 b 110 983 114 997 110 993 l 108 14 b 122 0 108 6 114 0 l 415 0 b 869 513 696 0 869 215 b 424 997 869 801 703 997 z m 164 49 l 163 950 l 417 950 b 818 508 663 950 818 776 b 407 49 818 238 656 49 z "},"Ð":{"ha":938,"x_min":0,"x_max":0,"o":"m 124 997 b 110 983 114 997 110 993 l 108 421 l 31 421 b 17 407 21 421 17 417 l 17 389 b 31 375 17 381 22 375 l 108 375 l 108 14 b 122 0 108 6 114 0 l 415 0 b 869 513 696 0 869 215 b 424 997 869 801 703 997 z m 164 49 l 164 375 l 414 375 b 428 389 422 375 428 379 l 428 407 b 414 421 428 417 422 421 l 164 421 l 163 950 l 417 950 b 818 508 663 950 818 776 b 407 49 818 238 656 49 z "},"Ď":{"ha":938,"x_min":0,"x_max":0,"o":"m 406 1151 b 422 1160 413 1151 417 1154 l 539 1301 b 531 1318 546 1310 543 1318 l 511 1318 b 494 1310 503 1318 499 1315 l 403 1183 l 397 1183 l 306 1310 b 288 1318 300 1315 296 1318 l 269 1318 b 261 1301 257 1318 254 1310 l 378 1160 b 394 1151 383 1154 388 1151 z m 124 997 b 110 983 114 997 110 993 l 108 14 b 122 0 108 6 114 0 l 415 0 b 869 513 696 0 869 215 b 424 997 869 801 703 997 z m 164 49 l 163 950 l 417 950 b 818 508 663 950 818 776 b 407 49 818 238 656 49 z "},"E":{"ha":785,"x_min":0,"x_max":0,"o":"m 164 49 l 163 503 l 610 503 b 624 517 618 503 624 508 l 624 538 b 610 551 624 547 619 551 l 163 551 l 163 949 l 697 949 b 711 963 707 949 711 954 l 711 983 b 697 997 711 993 706 997 l 124 997 b 110 983 114 997 110 993 l 108 14 b 122 0 108 6 114 0 l 703 0 b 717 14 713 0 717 6 l 717 35 b 703 49 717 44 713 49 z "},"É":{"ha":785,"x_min":0,"x_max":0,"o":"m 528 1307 b 519 1324 535 1315 532 1324 l 499 1324 b 482 1315 490 1324 486 1321 l 375 1168 b 383 1151 368 1158 372 1151 l 386 1151 b 403 1160 393 1151 397 1154 z m 164 49 l 163 503 l 610 503 b 624 517 618 503 624 508 l 624 538 b 610 551 624 547 619 551 l 163 551 l 163 949 l 697 949 b 711 963 707 949 711 954 l 711 983 b 697 997 711 993 706 997 l 124 997 b 110 983 114 997 110 993 l 108 14 b 122 0 108 6 114 0 l 703 0 b 717 14 713 0 717 6 l 717 35 b 703 49 717 44 713 49 z "},"Ě":{"ha":785,"x_min":0,"x_max":0,"o":"m 388 1153 b 404 1161 394 1153 399 1156 l 521 1303 b 513 1319 528 1311 525 1319 l 493 1319 b 476 1311 485 1319 481 1317 l 385 1185 l 379 1185 l 288 1311 b 269 1319 282 1317 278 1319 l 251 1319 b 243 1303 239 1319 236 1311 l 360 1161 b 376 1153 365 1156 369 1153 z m 164 49 l 163 503 l 610 503 b 624 517 618 503 624 508 l 624 538 b 610 551 624 547 619 551 l 163 551 l 163 949 l 697 949 b 711 963 707 949 711 954 l 711 983 b 697 997 711 993 706 997 l 124 997 b 110 983 114 997 110 993 l 108 14 b 122 0 108 6 114 0 l 703 0 b 717 14 713 0 717 6 l 717 35 b 703 49 717 44 713 49 z "},"Ê":{"ha":785,"x_min":0,"x_max":0,"o":"m 382 1286 l 388 1286 l 479 1160 b 497 1151 485 1154 489 1151 l 515 1151 b 524 1168 528 1151 531 1160 l 407 1310 b 390 1318 401 1315 397 1318 l 379 1318 b 363 1310 372 1318 368 1315 l 246 1168 b 254 1151 239 1160 242 1151 l 274 1151 b 290 1160 282 1151 286 1154 z m 164 49 l 163 503 l 610 503 b 624 517 618 503 624 508 l 624 538 b 610 551 624 547 619 551 l 163 551 l 163 949 l 697 949 b 711 963 707 949 711 954 l 711 983 b 697 997 711 993 706 997 l 124 997 b 110 983 114 997 110 993 l 108 14 b 122 0 108 6 114 0 l 703 0 b 717 14 713 0 717 6 l 717 35 b 703 49 717 44 713 49 z "},"Ë":{"ha":785,"x_min":0,"x_max":0,"o":"m 342 1283 b 328 1297 342 1293 336 1297 l 315 1297 b 301 1283 307 1297 301 1293 l 301 1211 b 315 1197 301 1203 307 1197 l 328 1197 b 342 1211 338 1197 342 1203 z m 508 1283 b 494 1297 508 1293 503 1297 l 482 1297 b 468 1283 474 1297 468 1293 l 468 1211 b 482 1197 468 1203 474 1197 l 494 1197 b 508 1211 504 1197 508 1203 z m 164 49 l 163 503 l 610 503 b 624 517 618 503 624 508 l 624 538 b 610 551 624 547 619 551 l 163 551 l 163 949 l 697 949 b 711 963 707 949 711 954 l 711 983 b 697 997 711 993 706 997 l 124 997 b 110 983 114 997 110 993 l 108 14 b 122 0 108 6 114 0 l 703 0 b 717 14 713 0 717 6 l 717 35 b 703 49 717 44 713 49 z "},"Ė":{"ha":785,"x_min":0,"x_max":0,"o":"m 410 1283 b 396 1297 410 1293 406 1297 l 372 1297 b 358 1283 364 1297 358 1293 l 358 1211 b 372 1197 358 1203 363 1197 l 396 1197 b 410 1211 406 1197 410 1203 z m 164 49 l 163 503 l 610 503 b 624 517 618 503 624 508 l 624 538 b 610 551 624 547 619 551 l 163 551 l 163 949 l 697 949 b 711 963 707 949 711 954 l 711 983 b 697 997 711 993 706 997 l 124 997 b 110 983 114 997 110 993 l 108 14 b 122 0 108 6 114 0 l 703 0 b 717 14 713 0 717 6 l 717 35 b 703 49 717 44 713 49 z "},"È":{"ha":785,"x_min":0,"x_max":0,"o":"m 389 1151 b 397 1168 400 1151 404 1158 l 290 1315 b 274 1324 286 1321 282 1324 l 253 1324 b 244 1307 240 1324 238 1315 l 369 1160 b 386 1151 375 1154 379 1151 z m 164 49 l 163 503 l 610 503 b 624 517 618 503 624 508 l 624 538 b 610 551 624 547 619 551 l 163 551 l 163 949 l 697 949 b 711 963 707 949 711 954 l 711 983 b 697 997 711 993 706 997 l 124 997 b 110 983 114 997 110 993 l 108 14 b 122 0 108 6 114 0 l 703 0 b 717 14 713 0 717 6 l 717 35 b 703 49 717 44 713 49 z "},"Ē":{"ha":785,"x_min":0,"x_max":0,"o":"m 511 1236 b 497 1250 511 1246 507 1250 l 269 1250 b 256 1236 261 1250 256 1246 l 256 1228 b 269 1214 256 1219 260 1214 l 497 1214 b 511 1228 507 1214 511 1219 z m 164 49 l 163 503 l 610 503 b 624 517 618 503 624 508 l 624 538 b 610 551 624 547 619 551 l 163 551 l 163 949 l 697 949 b 711 963 707 949 711 954 l 711 983 b 697 997 711 993 706 997 l 124 997 b 110 983 114 997 110 993 l 108 14 b 122 0 108 6 114 0 l 703 0 b 717 14 713 0 717 6 l 717 35 b 703 49 717 44 713 49 z "},"F":{"ha":774,"x_min":0,"x_max":0,"o":"m 163 949 l 692 949 b 706 963 700 949 706 954 l 706 983 b 692 997 706 993 701 997 l 124 997 b 110 983 114 997 110 993 l 108 14 b 122 0 108 6 114 0 l 150 0 b 164 14 158 0 164 6 l 164 486 l 604 486 b 618 500 613 486 618 492 l 618 522 b 604 536 618 532 614 536 l 163 536 z "},"G":{"ha":1029,"x_min":0,"x_max":0,"o":"m 606 458 b 592 444 596 458 592 454 l 592 425 b 606 411 592 415 596 411 l 886 410 b 515 39 872 163 706 39 b 126 501 286 39 126 228 b 519 960 126 778 290 960 b 842 769 668 960 782 885 b 858 760 846 763 851 760 l 883 761 b 893 776 893 761 897 768 b 522 1008 832 917 696 1008 b 75 500 263 1008 75 801 b 511 -10 75 203 253 -10 b 939 447 751 -10 938 156 b 926 460 939 454 935 460 z "},"Ğ":{"ha":1029,"x_min":0,"x_max":0,"o":"m 519 1142 b 665 1276 603 1142 665 1185 l 665 1279 b 651 1293 665 1289 660 1293 l 642 1293 b 628 1279 633 1293 628 1289 l 628 1276 b 519 1178 628 1204 582 1178 b 411 1276 457 1178 411 1204 l 411 1279 b 397 1293 411 1289 406 1293 l 388 1293 b 374 1279 379 1293 374 1289 l 374 1276 b 519 1142 374 1185 436 1142 z m 606 458 b 592 444 596 458 592 454 l 592 425 b 606 411 592 415 596 411 l 886 410 b 515 39 872 163 706 39 b 126 501 286 39 126 228 b 519 960 126 778 290 960 b 842 769 668 960 782 885 b 858 760 846 763 851 760 l 883 761 b 893 776 893 761 897 768 b 522 1008 832 917 696 1008 b 75 500 263 1008 75 801 b 511 -10 75 203 253 -10 b 939 447 751 -10 938 156 b 926 460 939 454 935 460 z "},"Ġ":{"ha":1029,"x_min":0,"x_max":0,"o":"m 546 1282 b 532 1296 546 1292 542 1296 l 508 1296 b 494 1282 500 1296 494 1292 l 494 1210 b 508 1196 494 1201 499 1196 l 532 1196 b 546 1210 542 1196 546 1201 z m 606 458 b 592 444 596 458 592 454 l 592 425 b 606 411 592 415 596 411 l 886 410 b 515 39 872 163 706 39 b 126 501 286 39 126 228 b 519 960 126 778 290 960 b 842 769 668 960 782 885 b 858 760 846 763 851 760 l 883 761 b 893 776 893 761 897 768 b 522 1008 832 917 696 1008 b 75 500 263 1008 75 801 b 511 -10 75 203 253 -10 b 939 447 751 -10 938 156 b 926 460 939 454 935 460 z "},"H":{"ha":951,"x_min":0,"x_max":0,"o":"m 831 0 b 844 14 839 0 844 6 l 842 983 b 828 997 842 993 838 997 l 806 997 b 792 983 796 997 792 993 l 790 551 l 163 551 l 161 983 b 147 997 161 993 157 997 l 124 997 b 110 983 114 997 110 993 l 108 14 b 122 0 108 6 114 0 l 150 0 b 164 14 158 0 164 6 l 163 503 l 790 503 l 789 14 b 803 0 789 6 794 0 z "},"I":{"ha":439,"x_min":0,"x_max":0,"o":"m 246 983 b 232 997 246 993 242 997 l 207 997 b 193 983 197 997 193 993 l 192 14 b 206 0 192 6 197 0 l 233 0 b 247 14 242 0 247 6 z "},"Í":{"ha":439,"x_min":0,"x_max":0,"o":"m 364 1307 b 356 1324 371 1315 368 1324 l 335 1324 b 318 1315 326 1324 322 1321 l 211 1168 b 219 1151 204 1158 208 1151 l 222 1151 b 239 1160 229 1151 233 1154 z m 246 983 b 232 997 246 993 242 997 l 207 997 b 193 983 197 997 193 993 l 192 14 b 206 0 192 6 197 0 l 233 0 b 247 14 242 0 247 6 z "},"Ǐ":{"ha":439,"x_min":0,"x_max":0,"o":"m 224 1153 b 240 1161 231 1153 235 1156 l 357 1303 b 349 1319 364 1311 361 1319 l 329 1319 b 313 1311 321 1319 317 1317 l 221 1185 l 215 1185 l 124 1311 b 106 1319 118 1317 114 1319 l 88 1319 b 79 1303 75 1319 72 1311 l 196 1161 b 213 1153 201 1156 206 1153 z m 207 997 b 193 983 197 997 193 993 l 192 14 b 206 0 192 6 197 0 l 233 0 b 247 14 242 0 247 6 l 246 983 b 232 997 246 993 242 997 z "},"Î":{"ha":439,"x_min":0,"x_max":0,"o":"m 242 1310 b 225 1318 236 1315 232 1318 l 214 1318 b 197 1310 207 1318 203 1315 l 81 1168 b 89 1151 74 1160 76 1151 l 108 1151 b 125 1160 117 1151 121 1154 l 217 1286 l 222 1286 l 314 1160 b 332 1151 319 1154 324 1151 l 350 1151 b 358 1168 363 1151 365 1160 z m 207 997 b 193 983 197 997 193 993 l 192 14 b 206 0 192 6 197 0 l 233 0 b 247 14 242 0 247 6 l 246 983 b 232 997 246 993 242 997 z "},"Ï":{"ha":439,"x_min":0,"x_max":0,"o":"m 178 1283 b 164 1297 178 1293 172 1297 l 151 1297 b 138 1283 143 1297 138 1293 l 138 1211 b 151 1197 138 1203 143 1197 l 164 1197 b 178 1211 174 1197 178 1203 z m 344 1283 b 331 1297 344 1293 339 1297 l 318 1297 b 304 1283 310 1297 304 1293 l 304 1211 b 318 1197 304 1203 310 1197 l 331 1197 b 344 1211 340 1197 344 1203 z m 246 983 b 232 997 246 993 242 997 l 207 997 b 193 983 197 997 193 993 l 192 14 b 206 0 192 6 197 0 l 233 0 b 247 14 242 0 247 6 z "},"İ":{"ha":439,"x_min":0,"x_max":0,"o":"m 244 1283 b 231 1297 244 1293 240 1297 l 207 1297 b 193 1283 199 1297 193 1293 l 193 1211 b 207 1197 193 1203 197 1197 l 231 1197 b 244 1211 240 1197 244 1203 z m 246 983 b 232 997 246 993 242 997 l 207 997 b 193 983 197 997 193 993 l 192 14 b 206 0 192 6 197 0 l 233 0 b 247 14 242 0 247 6 z "},"Ì":{"ha":439,"x_min":0,"x_max":0,"o":"m 89 1324 b 81 1307 76 1324 74 1315 l 206 1160 b 222 1151 211 1154 215 1151 l 225 1151 b 233 1168 236 1151 240 1158 l 126 1315 b 110 1324 122 1321 118 1324 z m 246 983 b 232 997 246 993 242 997 l 207 997 b 193 983 197 997 193 993 l 192 14 b 206 0 192 6 197 0 l 233 0 b 247 14 242 0 247 6 z "},"Ī":{"ha":439,"x_min":0,"x_max":0,"o":"m 347 1236 b 333 1250 347 1246 343 1250 l 106 1250 b 92 1236 97 1250 92 1246 l 92 1228 b 106 1214 92 1219 96 1214 l 333 1214 b 347 1228 343 1214 347 1219 z m 246 983 b 232 997 246 993 242 997 l 207 997 b 193 983 197 997 193 993 l 192 14 b 206 0 192 6 197 0 l 233 0 b 247 14 242 0 247 6 z "},"J":{"ha":631,"x_min":0,"x_max":0,"o":"m 439 985 b 425 999 439 994 435 999 l 401 999 b 388 985 392 999 388 994 l 386 368 b 82 50 385 174 336 56 b 68 36 74 50 68 46 l 68 14 b 82 0 68 6 74 0 b 440 371 367 7 440 139 z "},"K":{"ha":908,"x_min":0,"x_max":0,"o":"m 364 556 l 807 8 b 824 0 813 3 817 0 l 861 0 b 869 17 874 0 876 8 l 401 589 l 828 981 b 821 997 836 989 833 997 l 792 997 b 775 990 785 997 779 996 l 164 436 l 163 983 b 149 997 163 993 158 997 l 124 997 b 110 983 114 997 110 993 l 108 14 b 122 0 108 6 114 0 l 150 0 b 164 14 158 0 164 6 l 164 372 z "},"L":{"ha":754,"x_min":0,"x_max":0,"o":"m 164 49 l 163 983 b 149 997 163 993 158 997 l 124 997 b 110 983 114 997 110 993 l 108 14 b 122 0 108 6 114 0 l 700 0 b 714 14 710 0 714 6 l 714 35 b 700 49 714 44 708 49 z "},"Ĺ":{"ha":754,"x_min":0,"x_max":0,"o":"m 282 1307 b 274 1324 289 1315 286 1324 l 253 1324 b 236 1315 244 1324 240 1321 l 129 1168 b 138 1151 122 1158 126 1151 l 140 1151 b 157 1160 147 1151 151 1154 z m 164 49 l 163 983 b 149 997 163 993 158 997 l 124 997 b 110 983 114 997 110 993 l 108 14 b 122 0 108 6 114 0 l 700 0 b 714 14 710 0 714 6 l 714 35 b 700 49 714 44 708 49 z "},"Ľ":{"ha":754,"x_min":0,"x_max":0,"o":"m 164 49 l 163 983 b 149 997 163 993 158 997 l 124 997 b 110 983 114 997 110 993 l 108 14 b 122 0 108 6 114 0 l 700 0 b 714 14 710 0 714 6 l 714 35 b 700 49 714 44 708 49 z "},"M":{"ha":1160,"x_min":0,"x_max":0,"o":"m 1039 0 b 1053 14 1047 0 1053 6 l 1032 983 b 1018 997 1032 993 1028 997 l 963 997 b 947 986 956 997 950 994 l 581 61 l 214 986 b 199 997 211 994 206 997 l 142 997 b 128 983 132 997 128 993 l 108 14 b 122 0 108 6 114 0 l 149 0 b 163 14 158 0 163 4 l 176 956 l 547 11 b 563 0 550 3 556 0 l 600 0 b 615 11 607 0 613 3 l 985 956 l 997 14 b 1011 0 997 4 1001 0 z "},"N":{"ha":947,"x_min":0,"x_max":0,"o":"m 836 983 b 822 997 836 993 832 997 l 800 997 b 786 983 790 997 786 993 l 783 61 l 196 988 b 179 997 192 994 188 997 l 124 997 b 110 983 114 997 110 993 l 108 14 b 122 0 108 6 114 0 l 150 0 b 164 14 158 0 164 6 l 161 951 l 757 10 b 774 0 761 3 765 0 l 825 0 b 839 14 833 0 839 6 z "},"Ń":{"ha":947,"x_min":0,"x_max":0,"o":"m 617 1308 b 608 1325 624 1317 621 1325 l 588 1325 b 571 1317 579 1325 575 1322 l 464 1169 b 472 1153 457 1160 461 1153 l 475 1153 b 492 1161 482 1153 486 1156 z m 836 983 b 822 997 836 993 832 997 l 800 997 b 786 983 790 997 786 993 l 783 61 l 196 988 b 179 997 192 994 188 997 l 124 997 b 110 983 114 997 110 993 l 108 14 b 122 0 108 6 114 0 l 150 0 b 164 14 158 0 164 6 l 161 951 l 757 10 b 774 0 761 3 765 0 l 825 0 b 839 14 833 0 839 6 z "},"Ň":{"ha":947,"x_min":0,"x_max":0,"o":"m 478 1154 b 494 1163 485 1154 489 1157 l 611 1304 b 603 1321 618 1313 615 1321 l 583 1321 b 567 1313 575 1321 571 1318 l 475 1186 l 469 1186 l 378 1313 b 360 1321 372 1318 368 1321 l 342 1321 b 333 1304 329 1321 326 1313 l 450 1163 b 467 1154 456 1157 460 1154 z m 836 983 b 822 997 836 993 832 997 l 800 997 b 786 983 790 997 786 993 l 783 61 l 196 988 b 179 997 192 994 188 997 l 124 997 b 110 983 114 997 110 993 l 108 14 b 122 0 108 6 114 0 l 150 0 b 164 14 158 0 164 6 l 161 951 l 757 10 b 774 0 761 3 765 0 l 825 0 b 839 14 833 0 839 6 z "},"Ñ":{"ha":947,"x_min":0,"x_max":0,"o":"m 403 1253 b 553 1163 460 1253 479 1163 b 629 1256 603 1163 625 1203 b 615 1269 629 1264 624 1269 l 608 1269 b 594 1256 599 1269 594 1264 b 553 1199 593 1221 583 1199 b 403 1289 496 1199 475 1289 b 322 1196 350 1289 326 1246 b 336 1182 322 1188 328 1182 l 343 1182 b 357 1196 353 1182 357 1186 b 403 1253 360 1228 372 1253 z m 836 983 b 822 997 836 993 832 997 l 800 997 b 786 983 790 997 786 993 l 783 61 l 196 988 b 179 997 192 994 188 997 l 124 997 b 110 983 114 997 110 993 l 108 14 b 122 0 108 6 114 0 l 150 0 b 164 14 158 0 164 6 l 161 951 l 757 10 b 774 0 761 3 765 0 l 825 0 b 839 14 833 0 839 6 z "},"O":{"ha":1022,"x_min":0,"x_max":0,"o":"m 517 1008 b 68 500 256 1008 68 801 b 506 -10 68 203 249 -10 b 954 513 765 -10 954 208 b 517 1008 954 807 775 1008 z m 514 960 b 901 508 743 960 901 782 b 507 39 901 231 738 39 b 119 501 279 39 119 228 b 514 960 119 778 285 960 z "},"Ó":{"ha":1022,"x_min":0,"x_max":0,"o":"m 654 1308 b 646 1325 661 1317 658 1325 l 625 1325 b 608 1317 617 1325 613 1322 l 501 1169 b 510 1153 494 1160 499 1153 l 513 1153 b 529 1161 519 1153 524 1156 z m 517 1008 b 68 500 256 1008 68 801 b 506 -10 68 203 249 -10 b 954 513 765 -10 954 208 b 517 1008 954 807 775 1008 z m 514 960 b 901 508 743 960 901 782 b 507 39 901 231 738 39 b 119 501 279 39 119 228 b 514 960 119 778 285 960 z "},"Ǒ":{"ha":1022,"x_min":0,"x_max":0,"o":"m 515 1154 b 532 1163 522 1154 526 1157 l 649 1304 b 640 1321 656 1313 653 1321 l 621 1321 b 604 1313 613 1321 608 1318 l 513 1186 l 507 1186 l 415 1313 b 397 1321 410 1318 406 1321 l 379 1321 b 371 1304 367 1321 364 1313 l 488 1163 b 504 1154 493 1157 497 1154 z m 517 1008 b 68 500 256 1008 68 801 b 506 -10 68 203 249 -10 b 954 513 765 -10 954 208 b 517 1008 954 807 775 1008 z m 507 39 b 119 501 279 39 119 228 b 514 960 119 778 285 960 b 901 508 743 960 901 782 b 507 39 901 231 738 39 z "},"Ô":{"ha":1022,"x_min":0,"x_max":0,"o":"m 508 1288 l 514 1288 l 606 1161 b 624 1153 611 1156 615 1153 l 642 1153 b 650 1169 654 1153 657 1161 l 533 1311 b 517 1319 528 1317 524 1319 l 506 1319 b 489 1311 499 1319 494 1317 l 372 1169 b 381 1153 365 1161 368 1153 l 400 1153 b 417 1161 408 1153 413 1156 z m 517 1008 b 68 500 256 1008 68 801 b 506 -10 68 203 249 -10 b 954 513 765 -10 954 208 b 517 1008 954 807 775 1008 z m 507 39 b 119 501 279 39 119 228 b 514 960 119 778 285 960 b 901 508 743 960 901 782 b 507 39 901 231 738 39 z "},"Ö":{"ha":1022,"x_min":0,"x_max":0,"o":"m 468 1285 b 454 1299 468 1294 463 1299 l 442 1299 b 428 1285 433 1299 428 1294 l 428 1213 b 442 1199 428 1204 433 1199 l 454 1199 b 468 1213 464 1199 468 1204 z m 635 1285 b 621 1299 635 1294 629 1299 l 608 1299 b 594 1285 600 1299 594 1294 l 594 1213 b 608 1199 594 1204 600 1199 l 621 1199 b 635 1213 631 1199 635 1204 z m 517 1008 b 68 500 256 1008 68 801 b 506 -10 68 203 249 -10 b 954 513 765 -10 954 208 b 517 1008 954 807 775 1008 z m 514 960 b 901 508 743 960 901 782 b 507 39 901 231 738 39 b 119 501 279 39 119 228 b 514 960 119 778 285 960 z "},"Ò":{"ha":1022,"x_min":0,"x_max":0,"o":"m 379 1325 b 371 1308 367 1325 364 1317 l 496 1161 b 513 1153 501 1156 506 1153 l 515 1153 b 524 1169 526 1153 531 1160 l 417 1317 b 400 1325 413 1322 408 1325 z m 517 1008 b 68 500 256 1008 68 801 b 506 -10 68 203 249 -10 b 954 513 765 -10 954 208 b 517 1008 954 807 775 1008 z m 514 960 b 901 508 743 960 901 782 b 507 39 901 231 738 39 b 119 501 279 39 119 228 b 514 960 119 778 285 960 z "},"Ő":{"ha":1022,"x_min":0,"x_max":0,"o":"m 625 1286 b 617 1303 632 1294 629 1303 l 596 1303 b 579 1294 588 1303 583 1300 l 472 1147 b 481 1131 465 1138 469 1131 l 483 1131 b 500 1139 490 1131 494 1133 z m 793 1286 b 785 1303 800 1294 797 1303 l 764 1303 b 747 1294 756 1303 751 1300 l 640 1147 b 649 1131 633 1138 638 1131 l 651 1131 b 668 1139 658 1131 663 1133 z m 517 1008 b 68 500 256 1008 68 801 b 506 -10 68 203 249 -10 b 954 513 765 -10 954 208 b 517 1008 954 807 775 1008 z m 514 960 b 901 508 743 960 901 782 b 507 39 901 231 738 39 b 119 501 279 39 119 228 b 514 960 119 778 285 960 z "},"Ō":{"ha":1022,"x_min":0,"x_max":0,"o":"m 638 1238 b 624 1251 638 1247 633 1251 l 396 1251 b 382 1238 388 1251 382 1247 l 382 1229 b 396 1215 382 1221 386 1215 l 624 1215 b 638 1229 633 1215 638 1221 z m 517 1008 b 68 500 256 1008 68 801 b 506 -10 68 203 249 -10 b 954 513 765 -10 954 208 b 517 1008 954 807 775 1008 z m 514 960 b 901 508 743 960 901 782 b 507 39 901 231 738 39 b 119 501 279 39 119 228 b 514 960 119 778 285 960 z "},"Ø":{"ha":1038,"x_min":0,"x_max":0,"o":"m 953 999 b 944 1015 960 1007 957 1015 l 918 1015 b 901 1007 911 1015 907 1013 l 814 900 b 526 1008 739 969 640 1008 b 78 500 265 1008 78 801 b 192 144 78 357 119 233 l 88 17 b 96 0 81 8 83 0 l 122 0 b 139 8 129 0 133 3 l 222 110 b 515 -10 297 35 399 -10 b 964 513 775 -10 964 208 b 844 867 964 658 921 781 z m 129 501 b 525 960 129 778 294 960 b 781 861 626 960 715 924 l 225 183 b 129 501 164 264 129 374 z m 913 508 b 517 39 913 231 747 39 b 254 149 411 39 321 79 l 813 828 b 913 508 875 749 913 640 z "},"Õ":{"ha":1022,"x_min":0,"x_max":0,"o":"m 440 1289 b 360 1196 388 1289 364 1246 b 374 1182 360 1188 365 1182 l 381 1182 b 394 1196 390 1182 394 1186 b 440 1253 397 1228 410 1253 b 590 1163 497 1253 517 1163 b 667 1256 640 1163 663 1203 b 653 1269 667 1264 661 1269 l 646 1269 b 632 1256 636 1269 632 1264 b 590 1199 631 1221 621 1199 b 440 1289 533 1199 513 1289 z m 517 1008 b 68 500 256 1008 68 801 b 506 -10 68 203 249 -10 b 954 513 765 -10 954 208 b 517 1008 954 807 775 1008 z m 514 960 b 901 508 743 960 901 782 b 507 39 901 231 738 39 b 119 501 279 39 119 228 b 514 960 119 778 285 960 z "},"Œ":{"ha":1218,"x_min":0,"x_max":0,"o":"m 667 47 l 665 503 l 1042 503 b 1056 517 1051 503 1056 508 l 1056 538 b 1042 551 1056 547 1051 551 l 665 551 l 664 951 l 1131 950 b 1144 964 1139 950 1144 956 l 1144 986 b 1131 1000 1144 994 1139 1000 l 613 999 l 613 997 l 532 997 b 68 500 258 997 68 794 b 521 0 68 208 249 0 l 1136 -1 b 1150 13 1144 -1 1150 4 l 1150 35 b 1136 49 1150 43 1144 49 z m 610 49 l 524 49 b 119 501 282 49 119 233 b 532 950 119 772 288 950 l 613 950 z "},"P":{"ha":843,"x_min":0,"x_max":0,"o":"m 124 997 b 110 983 114 997 110 993 l 108 14 b 122 0 108 6 114 0 l 150 0 b 164 14 158 0 164 6 l 164 440 l 476 440 b 775 724 660 440 775 560 b 476 997 775 885 660 997 z m 163 489 l 163 950 l 472 950 b 724 719 625 950 724 857 b 472 489 724 583 628 489 z "},"Q":{"ha":1022,"x_min":0,"x_max":0,"o":"m 954 513 b 517 1008 954 807 775 1008 b 68 500 256 1008 68 801 b 506 -10 68 203 249 -10 b 739 60 593 -10 672 15 l 826 -46 b 846 -49 832 -53 839 -54 l 861 -35 b 863 -14 867 -28 868 -21 l 778 88 b 954 513 886 181 954 331 z m 507 39 b 119 501 279 39 119 228 b 514 960 119 778 285 960 b 901 508 743 960 901 782 b 746 125 901 342 843 207 l 656 233 b 636 236 650 240 643 242 l 622 224 b 619 204 615 218 614 211 l 708 97 b 507 39 651 60 582 39 z "},"R":{"ha":861,"x_min":0,"x_max":0,"o":"m 436 486 l 761 8 b 778 0 765 3 769 0 l 814 0 b 824 17 825 0 829 7 l 497 486 b 772 744 669 493 772 600 b 482 997 772 893 663 997 l 124 997 b 110 983 114 997 110 993 l 108 14 b 122 0 108 6 114 0 l 150 0 b 164 14 158 0 164 6 l 164 486 z m 163 533 l 163 950 l 475 950 b 721 742 628 950 721 865 b 475 533 721 618 631 533 z "},"Ŕ":{"ha":861,"x_min":0,"x_max":0,"o":"m 585 1306 b 576 1322 592 1314 589 1322 l 556 1322 b 539 1314 547 1322 543 1319 l 432 1167 b 440 1150 425 1157 429 1150 l 443 1150 b 460 1158 450 1150 454 1153 z m 436 486 l 761 8 b 778 0 765 3 769 0 l 814 0 b 824 17 825 0 829 7 l 497 486 b 772 744 669 493 772 600 b 482 997 772 893 663 997 l 124 997 b 110 983 114 997 110 993 l 108 14 b 122 0 108 6 114 0 l 150 0 b 164 14 158 0 164 6 l 164 486 z m 163 533 l 163 950 l 475 950 b 721 742 628 950 721 865 b 475 533 721 618 631 533 z "},"Ř":{"ha":861,"x_min":0,"x_max":0,"o":"m 444 1151 b 461 1160 451 1151 456 1154 l 578 1301 b 569 1318 585 1310 582 1318 l 550 1318 b 533 1310 542 1318 538 1315 l 442 1183 l 436 1183 l 344 1310 b 326 1318 339 1315 335 1318 l 308 1318 b 300 1301 296 1318 293 1310 l 417 1160 b 433 1151 422 1154 426 1151 z m 436 486 l 761 8 b 778 0 765 3 769 0 l 814 0 b 824 17 825 0 829 7 l 497 486 b 772 744 669 493 772 600 b 482 997 772 893 663 997 l 124 997 b 110 983 114 997 110 993 l 108 14 b 122 0 108 6 114 0 l 150 0 b 164 14 158 0 164 6 l 164 486 z m 163 533 l 163 950 l 475 950 b 721 742 628 950 721 865 b 475 533 721 618 631 533 z "},"S":{"ha":863,"x_min":0,"x_max":0,"o":"m 429 1008 b 113 765 244 1008 111 915 b 396 511 114 628 218 565 l 465 489 b 742 246 643 435 742 368 b 463 39 742 115 631 39 b 126 244 251 39 160 153 b 110 256 124 251 118 256 l 85 256 b 72 240 74 256 69 250 b 460 -10 104 129 213 -10 b 794 253 667 -10 794 92 b 494 538 794 394 696 475 l 425 558 b 165 772 265 608 165 653 b 424 960 165 886 268 960 b 715 790 592 960 678 865 b 731 781 718 783 724 781 l 756 781 b 767 796 765 781 771 786 b 429 1008 732 883 632 1008 z "},"Ś":{"ha":863,"x_min":0,"x_max":0,"o":"m 575 1306 b 567 1322 582 1314 579 1322 l 546 1322 b 529 1314 538 1322 533 1319 l 422 1167 b 431 1150 415 1157 419 1150 l 433 1150 b 450 1158 440 1150 444 1153 z m 429 1008 b 113 765 244 1008 111 915 b 396 511 114 628 218 565 l 465 489 b 742 246 643 435 742 368 b 463 39 742 115 631 39 b 126 244 251 39 160 153 b 110 256 124 251 118 256 l 85 256 b 72 240 74 256 69 250 b 460 -10 104 129 213 -10 b 794 253 667 -10 794 92 b 494 538 794 394 696 475 l 425 558 b 165 772 265 608 165 653 b 424 960 165 886 268 960 b 715 790 592 960 678 865 b 731 781 718 783 724 781 l 756 781 b 767 796 765 781 771 786 b 429 1008 732 883 632 1008 z "},"Š":{"ha":863,"x_min":0,"x_max":0,"o":"m 436 1151 b 453 1160 443 1151 447 1154 l 569 1301 b 561 1318 576 1310 574 1318 l 542 1318 b 525 1310 533 1318 529 1315 l 433 1183 l 428 1183 l 336 1310 b 318 1318 331 1315 326 1318 l 300 1318 b 292 1301 288 1318 285 1310 l 408 1160 b 425 1151 414 1154 418 1151 z m 425 558 b 165 772 265 608 165 653 b 424 960 165 886 268 960 b 715 790 592 960 678 865 b 731 781 718 783 724 781 l 756 781 b 767 796 765 781 771 786 b 429 1008 732 883 632 1008 b 113 765 244 1008 111 915 b 396 511 114 628 218 565 l 465 489 b 742 246 643 435 742 368 b 463 39 742 115 631 39 b 126 244 251 39 160 153 b 110 256 124 251 118 256 l 85 256 b 72 240 74 256 69 250 b 460 -10 104 129 213 -10 b 794 253 667 -10 794 92 b 494 538 794 394 696 475 z "},"Ş":{"ha":863,"x_min":0,"x_max":0,"o":"m 460 -10 b 794 253 667 -10 794 92 b 494 538 794 394 696 475 l 425 558 b 165 772 265 608 165 653 b 424 960 165 886 268 960 b 715 790 592 960 678 865 b 731 781 718 783 724 781 l 756 781 b 767 796 765 781 771 786 b 429 1008 732 883 632 1008 b 113 765 244 1008 111 915 b 396 511 114 628 218 565 l 465 489 b 742 246 643 435 742 368 b 463 39 742 115 631 39 b 126 244 251 39 160 153 b 110 256 124 251 118 256 l 85 256 b 72 240 74 256 69 250 b 414 -8 103 138 199 8 l 385 -108 b 397 -124 382 -118 386 -124 b 522 -214 481 -128 522 -162 b 429 -293 522 -261 488 -293 b 344 -275 406 -293 372 -287 b 326 -282 336 -271 331 -274 l 325 -286 b 332 -304 322 -294 325 -301 b 428 -328 365 -321 397 -328 b 560 -211 514 -328 560 -275 b 426 -94 560 -137 500 -103 l 453 -10 z "},"T":{"ha":757,"x_min":0,"x_max":0,"o":"m 742 983 b 728 997 742 993 736 997 l 29 997 b 15 983 21 997 15 992 l 15 963 b 29 949 15 954 21 949 l 353 949 l 350 14 b 364 0 350 6 356 0 l 393 0 b 407 14 401 0 407 6 l 404 949 l 728 949 b 742 963 738 949 742 954 z "},"Ť":{"ha":757,"x_min":0,"x_max":0,"o":"m 383 1151 b 400 1160 390 1151 394 1154 l 517 1301 b 508 1318 524 1310 521 1318 l 489 1318 b 472 1310 481 1318 476 1315 l 381 1183 l 375 1183 l 283 1310 b 265 1318 278 1315 274 1318 l 247 1318 b 239 1301 235 1318 232 1310 l 356 1160 b 372 1151 361 1154 365 1151 z m 742 983 b 728 997 742 993 736 997 l 29 997 b 15 983 21 997 15 992 l 15 963 b 29 949 15 954 21 949 l 353 949 l 350 14 b 364 0 350 6 356 0 l 393 0 b 407 14 401 0 407 6 l 404 949 l 728 949 b 742 963 738 949 742 954 z "},"Ţ":{"ha":757,"x_min":0,"x_max":0,"o":"m 742 983 b 728 997 742 993 736 997 l 29 997 b 15 983 21 997 15 992 l 15 963 b 29 949 15 954 21 949 l 353 949 l 350 14 b 358 0 350 6 353 0 l 326 -108 b 339 -124 324 -118 328 -124 b 464 -214 422 -128 464 -162 b 371 -293 464 -261 429 -293 b 286 -275 347 -293 314 -287 b 268 -282 278 -271 272 -274 l 267 -286 b 274 -304 264 -294 267 -301 b 369 -328 307 -321 339 -328 b 501 -211 456 -328 501 -275 b 368 -94 501 -137 442 -103 l 399 0 b 407 14 404 0 407 6 l 404 949 l 728 949 b 742 963 738 949 742 954 z "},"U":{"ha":988,"x_min":0,"x_max":0,"o":"m 879 983 b 865 997 879 993 875 997 l 842 997 b 828 983 833 997 828 993 l 828 433 b 493 39 826 172 690 39 b 161 433 296 39 161 172 l 160 983 b 146 997 160 993 156 997 l 122 997 b 108 983 114 997 108 992 l 108 431 b 492 -10 108 144 267 -10 b 881 431 717 -10 881 143 z "},"Ú":{"ha":988,"x_min":0,"x_max":0,"o":"m 632 1308 b 624 1325 639 1317 636 1325 l 603 1325 b 586 1317 594 1325 590 1322 l 479 1169 b 488 1153 472 1160 476 1153 l 490 1153 b 507 1161 497 1153 501 1156 z m 879 983 b 865 997 879 993 875 997 l 842 997 b 828 983 833 997 828 993 l 828 433 b 493 39 826 172 690 39 b 161 433 296 39 161 172 l 160 983 b 146 997 160 993 156 997 l 122 997 b 108 983 114 997 108 992 l 108 431 b 492 -10 108 144 267 -10 b 881 431 717 -10 881 143 z "},"Ǔ":{"ha":988,"x_min":0,"x_max":0,"o":"m 492 1154 b 508 1163 499 1154 503 1157 l 625 1304 b 617 1321 632 1313 629 1321 l 597 1321 b 581 1313 589 1321 585 1318 l 489 1186 l 483 1186 l 392 1313 b 374 1321 386 1318 382 1321 l 356 1321 b 347 1304 343 1321 340 1313 l 464 1163 b 481 1154 469 1157 474 1154 z m 879 983 b 865 997 879 993 875 997 l 842 997 b 828 983 833 997 828 993 l 828 433 b 493 39 826 172 690 39 b 161 433 296 39 161 172 l 160 983 b 146 997 160 993 156 997 l 122 997 b 108 983 114 997 108 992 l 108 431 b 492 -10 108 144 267 -10 b 881 431 717 -10 881 143 z "},"Û":{"ha":988,"x_min":0,"x_max":0,"o":"m 485 1288 l 490 1288 l 582 1161 b 600 1153 588 1156 592 1153 l 618 1153 b 626 1169 631 1153 633 1161 l 510 1311 b 493 1319 504 1317 500 1319 l 482 1319 b 465 1311 475 1319 471 1317 l 349 1169 b 357 1153 342 1161 344 1153 l 376 1153 b 393 1161 385 1153 389 1156 z m 879 983 b 865 997 879 993 875 997 l 842 997 b 828 983 833 997 828 993 l 828 433 b 493 39 826 172 690 39 b 161 433 296 39 161 172 l 160 983 b 146 997 160 993 156 997 l 122 997 b 108 983 114 997 108 992 l 108 431 b 492 -10 108 144 267 -10 b 881 431 717 -10 881 143 z "},"Ü":{"ha":988,"x_min":0,"x_max":0,"o":"m 446 1285 b 432 1299 446 1294 440 1299 l 419 1299 b 406 1285 411 1299 406 1294 l 406 1213 b 419 1199 406 1204 411 1199 l 432 1199 b 446 1213 442 1199 446 1204 z m 613 1285 b 599 1299 613 1294 607 1299 l 586 1299 b 572 1285 578 1299 572 1294 l 572 1213 b 586 1199 572 1204 578 1199 l 599 1199 b 613 1213 608 1199 613 1204 z m 879 983 b 865 997 879 993 875 997 l 842 997 b 828 983 833 997 828 993 l 828 433 b 493 39 826 172 690 39 b 161 433 296 39 161 172 l 160 983 b 146 997 160 993 156 997 l 122 997 b 108 983 114 997 108 992 l 108 431 b 492 -10 108 144 267 -10 b 881 431 717 -10 881 143 z "},"Ù":{"ha":988,"x_min":0,"x_max":0,"o":"m 357 1325 b 349 1308 344 1325 342 1317 l 474 1161 b 490 1153 479 1156 483 1153 l 493 1153 b 501 1169 504 1153 508 1160 l 394 1317 b 378 1325 390 1322 386 1325 z m 879 983 b 865 997 879 993 875 997 l 842 997 b 828 983 833 997 828 993 l 828 433 b 493 39 826 172 690 39 b 161 433 296 39 161 172 l 160 983 b 146 997 160 993 156 997 l 122 997 b 108 983 114 997 108 992 l 108 431 b 492 -10 108 144 267 -10 b 881 431 717 -10 881 143 z "},"Ű":{"ha":988,"x_min":0,"x_max":0,"o":"m 601 1286 b 593 1303 608 1294 606 1303 l 572 1303 b 556 1294 564 1303 560 1300 l 449 1147 b 457 1131 442 1138 446 1131 l 460 1131 b 476 1139 467 1131 471 1133 z m 769 1286 b 761 1303 776 1294 774 1303 l 740 1303 b 724 1294 732 1303 728 1300 l 617 1147 b 625 1131 610 1138 614 1131 l 628 1131 b 644 1139 635 1131 639 1133 z m 879 983 b 865 997 879 993 875 997 l 842 997 b 828 983 833 997 828 993 l 828 433 b 493 39 826 172 690 39 b 161 433 296 39 161 172 l 160 983 b 146 997 160 993 156 997 l 122 997 b 108 983 114 997 108 992 l 108 431 b 492 -10 108 144 267 -10 b 881 431 717 -10 881 143 z "},"Ū":{"ha":988,"x_min":0,"x_max":0,"o":"m 615 1238 b 601 1251 615 1247 611 1251 l 374 1251 b 360 1238 365 1251 360 1247 l 360 1229 b 374 1215 360 1221 364 1215 l 601 1215 b 615 1229 611 1215 615 1221 z m 879 983 b 865 997 879 993 875 997 l 842 997 b 828 983 833 997 828 993 l 828 433 b 493 39 826 172 690 39 b 161 433 296 39 161 172 l 160 983 b 146 997 160 993 156 997 l 122 997 b 108 983 114 997 108 992 l 108 431 b 492 -10 108 144 267 -10 b 881 431 717 -10 881 143 z "},"Ů":{"ha":988,"x_min":0,"x_max":0,"o":"m 489 1332 b 386 1231 433 1332 386 1292 b 489 1128 386 1168 433 1128 b 590 1231 544 1128 590 1168 b 489 1332 590 1292 544 1332 z m 489 1301 b 560 1231 528 1301 560 1274 b 489 1160 560 1188 528 1160 b 418 1231 450 1160 418 1188 b 489 1301 418 1274 450 1301 z m 879 983 b 865 997 879 993 875 997 l 842 997 b 828 983 833 997 828 993 l 828 433 b 493 39 826 172 690 39 b 161 433 296 39 161 172 l 160 983 b 146 997 160 993 156 997 l 122 997 b 108 983 114 997 108 992 l 108 431 b 492 -10 108 144 267 -10 b 881 431 717 -10 881 143 z "},"V":{"ha":856,"x_min":0,"x_max":0,"o":"m 789 997 b 774 986 782 997 776 993 l 429 75 l 425 75 l 82 986 b 67 997 79 993 74 997 l 42 997 b 31 981 32 997 28 990 l 392 11 b 407 0 394 4 400 0 l 449 0 b 464 11 456 0 461 4 l 825 981 b 814 997 828 990 824 997 z "},"W":{"ha":1349,"x_min":0,"x_max":0,"o":"m 1286 997 b 1269 986 1278 997 1272 993 l 992 83 l 986 83 l 710 986 b 693 997 707 993 701 997 l 658 997 b 642 986 650 997 644 993 l 363 83 l 358 83 l 82 986 b 65 997 79 993 74 997 l 42 997 b 29 982 32 997 26 992 l 324 11 b 340 0 326 4 332 0 l 379 0 b 396 11 388 0 393 4 l 674 931 l 953 11 b 969 0 956 4 961 0 l 1007 0 b 1024 11 1015 0 1021 4 l 1319 982 b 1307 997 1322 992 1317 997 z "},"Ẃ":{"ha":1349,"x_min":0,"x_max":0,"o":"m 818 1308 b 810 1325 825 1317 822 1325 l 789 1325 b 772 1317 781 1325 776 1322 l 665 1169 b 674 1153 658 1160 663 1153 l 676 1153 b 693 1161 683 1153 688 1156 z m 1286 997 b 1269 986 1278 997 1272 993 l 992 83 l 986 83 l 710 986 b 693 997 707 993 701 997 l 658 997 b 642 986 650 997 644 993 l 363 83 l 358 83 l 82 986 b 65 997 79 993 74 997 l 42 997 b 29 982 32 997 26 992 l 324 11 b 340 0 326 4 332 0 l 379 0 b 396 11 388 0 393 4 l 674 931 l 953 11 b 969 0 956 4 961 0 l 1007 0 b 1024 11 1015 0 1021 4 l 1319 982 b 1307 997 1322 992 1317 997 z "},"Ŵ":{"ha":1349,"x_min":0,"x_max":0,"o":"m 672 1288 l 678 1288 l 769 1161 b 788 1153 775 1156 779 1153 l 806 1153 b 814 1169 818 1153 821 1161 l 697 1311 b 681 1319 692 1317 688 1319 l 669 1319 b 653 1311 663 1319 658 1317 l 536 1169 b 544 1153 529 1161 532 1153 l 564 1153 b 581 1161 572 1153 576 1156 z m 1286 997 b 1269 986 1278 997 1272 993 l 992 83 l 986 83 l 710 986 b 693 997 707 993 701 997 l 658 997 b 642 986 650 997 644 993 l 363 83 l 358 83 l 82 986 b 65 997 79 993 74 997 l 42 997 b 29 982 32 997 26 992 l 324 11 b 340 0 326 4 332 0 l 379 0 b 396 11 388 0 393 4 l 674 931 l 953 11 b 969 0 956 4 961 0 l 1007 0 b 1024 11 1015 0 1021 4 l 1319 982 b 1307 997 1322 992 1317 997 z "},"Ẅ":{"ha":1349,"x_min":0,"x_max":0,"o":"m 632 1285 b 618 1299 632 1294 626 1299 l 606 1299 b 592 1285 597 1299 592 1294 l 592 1213 b 606 1199 592 1204 597 1199 l 618 1199 b 632 1213 628 1199 632 1204 z m 799 1285 b 785 1299 799 1294 793 1299 l 772 1299 b 758 1285 764 1299 758 1294 l 758 1213 b 772 1199 758 1204 764 1199 l 785 1199 b 799 1213 794 1199 799 1204 z m 1286 997 b 1269 986 1278 997 1272 993 l 992 83 l 986 83 l 710 986 b 693 997 707 993 701 997 l 658 997 b 642 986 650 997 644 993 l 363 83 l 358 83 l 82 986 b 65 997 79 993 74 997 l 42 997 b 29 982 32 997 26 992 l 324 11 b 340 0 326 4 332 0 l 379 0 b 396 11 388 0 393 4 l 674 931 l 953 11 b 969 0 956 4 961 0 l 1007 0 b 1024 11 1015 0 1021 4 l 1319 982 b 1307 997 1322 992 1317 997 z "},"Ẁ":{"ha":1349,"x_min":0,"x_max":0,"o":"m 679 1153 b 688 1169 690 1153 694 1160 l 581 1317 b 564 1325 576 1322 572 1325 l 543 1325 b 535 1308 531 1325 528 1317 l 660 1161 b 676 1153 665 1156 669 1153 z m 1286 997 b 1269 986 1278 997 1272 993 l 992 83 l 986 83 l 710 986 b 693 997 707 993 701 997 l 658 997 b 642 986 650 997 644 993 l 363 83 l 358 83 l 82 986 b 65 997 79 993 74 997 l 42 997 b 29 982 32 997 26 992 l 324 11 b 340 0 326 4 332 0 l 379 0 b 396 11 388 0 393 4 l 674 931 l 953 11 b 969 0 956 4 961 0 l 1007 0 b 1024 11 1015 0 1021 4 l 1319 982 b 1307 997 1322 992 1317 997 z "},"X":{"ha":933,"x_min":0,"x_max":0,"o":"m 846 0 b 854 17 857 0 861 7 l 501 510 l 838 981 b 829 997 844 990 840 997 l 807 997 b 790 989 799 997 794 994 l 474 549 l 157 989 b 140 997 153 994 149 997 l 117 997 b 108 981 106 997 101 990 l 438 515 l 81 17 b 89 0 74 7 78 0 l 118 0 b 135 8 126 0 131 3 l 467 475 l 797 8 b 814 0 801 3 806 0 z "},"Y":{"ha":797,"x_min":0,"x_max":0,"o":"m 425 457 l 761 981 b 753 997 768 990 764 997 l 729 997 b 713 988 721 997 717 994 l 403 513 l 397 513 l 86 988 b 69 997 82 994 78 997 l 44 997 b 36 981 33 997 29 990 l 374 458 l 371 14 b 385 0 371 6 376 0 l 414 0 b 428 14 422 0 428 6 z "},"Ý":{"ha":797,"x_min":0,"x_max":0,"o":"m 542 1308 b 533 1325 549 1317 546 1325 l 513 1325 b 496 1317 504 1325 500 1322 l 389 1169 b 397 1153 382 1160 386 1153 l 400 1153 b 417 1161 407 1153 411 1156 z m 425 457 l 761 981 b 753 997 768 990 764 997 l 729 997 b 713 988 721 997 717 994 l 403 513 l 397 513 l 86 988 b 69 997 82 994 78 997 l 44 997 b 36 981 33 997 29 990 l 374 458 l 371 14 b 385 0 371 6 376 0 l 414 0 b 428 14 422 0 428 6 z "},"Ŷ":{"ha":797,"x_min":0,"x_max":0,"o":"m 396 1288 l 401 1288 l 493 1161 b 511 1153 499 1156 503 1153 l 529 1153 b 538 1169 542 1153 544 1161 l 421 1311 b 404 1319 415 1317 411 1319 l 393 1319 b 376 1311 386 1319 382 1317 l 260 1169 b 268 1153 253 1161 256 1153 l 288 1153 b 304 1161 296 1153 300 1156 z m 425 457 l 761 981 b 753 997 768 990 764 997 l 729 997 b 713 988 721 997 717 994 l 403 513 l 397 513 l 86 988 b 69 997 82 994 78 997 l 44 997 b 36 981 33 997 29 990 l 374 458 l 371 14 b 385 0 371 6 376 0 l 414 0 b 428 14 422 0 428 6 z "},"Ÿ":{"ha":797,"x_min":0,"x_max":0,"o":"m 356 1285 b 342 1299 356 1294 350 1299 l 329 1299 b 315 1285 321 1299 315 1294 l 315 1213 b 329 1199 315 1204 321 1199 l 342 1199 b 356 1213 351 1199 356 1204 z m 522 1285 b 508 1299 522 1294 517 1299 l 496 1299 b 482 1285 488 1299 482 1294 l 482 1213 b 496 1199 482 1204 488 1199 l 508 1199 b 522 1213 518 1199 522 1204 z m 425 457 l 761 981 b 753 997 768 990 764 997 l 729 997 b 713 988 721 997 717 994 l 403 513 l 397 513 l 86 988 b 69 997 82 994 78 997 l 44 997 b 36 981 33 997 29 990 l 374 458 l 371 14 b 385 0 371 6 376 0 l 414 0 b 428 14 422 0 428 6 z "},"Ỳ":{"ha":797,"x_min":0,"x_max":0,"o":"m 404 1153 b 413 1169 415 1153 419 1160 l 306 1317 b 289 1325 301 1322 297 1325 l 268 1325 b 260 1308 256 1325 253 1317 l 385 1161 b 401 1153 390 1156 394 1153 z m 425 457 l 761 981 b 753 997 768 990 764 997 l 729 997 b 713 988 721 997 717 994 l 403 513 l 397 513 l 86 988 b 69 997 82 994 78 997 l 44 997 b 36 981 33 997 29 990 l 374 458 l 371 14 b 385 0 371 6 376 0 l 414 0 b 428 14 422 0 428 6 z "},"Z":{"ha":869,"x_min":0,"x_max":0,"o":"m 146 49 l 146 53 l 788 950 b 794 967 793 957 794 960 l 794 983 b 781 997 794 993 790 997 l 101 997 b 88 983 93 997 88 992 l 88 963 b 101 949 88 954 92 949 l 724 949 l 724 943 l 78 49 b 72 31 72 42 72 38 l 72 14 b 86 0 72 6 78 0 l 788 0 b 801 14 797 0 801 6 l 801 35 b 788 49 801 44 796 49 z "},"Ź":{"ha":869,"x_min":0,"x_max":0,"o":"m 579 1306 b 571 1322 586 1314 583 1322 l 550 1322 b 533 1314 542 1322 538 1319 l 426 1167 b 435 1150 419 1157 424 1150 l 438 1150 b 454 1158 444 1150 449 1153 z m 146 49 l 146 53 l 788 950 b 794 967 793 957 794 960 l 794 983 b 781 997 794 993 790 997 l 101 997 b 88 983 93 997 88 992 l 88 963 b 101 949 88 954 92 949 l 724 949 l 724 943 l 78 49 b 72 31 72 42 72 38 l 72 14 b 86 0 72 6 78 0 l 788 0 b 801 14 797 0 801 6 l 801 35 b 788 49 801 44 796 49 z "},"Ž":{"ha":869,"x_min":0,"x_max":0,"o":"m 439 1151 b 456 1160 446 1151 450 1154 l 572 1301 b 564 1318 579 1310 576 1318 l 544 1318 b 528 1310 536 1318 532 1315 l 436 1183 l 431 1183 l 339 1310 b 321 1318 333 1315 329 1318 l 303 1318 b 294 1301 290 1318 288 1310 l 411 1160 b 428 1151 417 1154 421 1151 z m 146 49 l 146 53 l 788 950 b 794 967 793 957 794 960 l 794 983 b 781 997 794 993 790 997 l 101 997 b 88 983 93 997 88 992 l 88 963 b 101 949 88 954 92 949 l 724 949 l 724 943 l 78 49 b 72 31 72 42 72 38 l 72 14 b 86 0 72 6 78 0 l 788 0 b 801 14 797 0 801 6 l 801 35 b 788 49 801 44 796 49 z "},"Ż":{"ha":869,"x_min":0,"x_max":0,"o":"m 461 1282 b 447 1296 461 1292 457 1296 l 424 1296 b 410 1282 415 1296 410 1292 l 410 1210 b 424 1196 410 1201 414 1196 l 447 1196 b 461 1210 457 1196 461 1201 z m 146 49 l 146 53 l 788 950 b 794 967 793 957 794 960 l 794 983 b 781 997 794 993 790 997 l 101 997 b 88 983 93 997 88 992 l 88 963 b 101 949 88 954 92 949 l 724 949 l 724 943 l 78 49 b 72 31 72 42 72 38 l 72 14 b 86 0 72 6 78 0 l 788 0 b 801 14 797 0 801 6 l 801 35 b 788 49 801 44 796 49 z "},"a":{"ha":742,"x_min":0,"x_max":0,"o":"m 383 732 b 118 554 239 732 150 654 b 131 542 115 546 121 542 l 151 542 b 168 553 160 542 165 546 b 379 685 200 633 272 686 b 571 500 514 685 571 603 l 571 422 l 549 421 b 78 188 250 406 78 364 b 300 -8 78 53 172 -8 b 564 124 421 -8 513 46 l 571 121 l 571 14 b 585 0 571 6 576 0 l 610 0 b 624 14 618 0 624 6 l 621 494 b 383 732 621 643 539 732 z m 571 378 l 571 200 b 308 39 542 121 446 39 b 129 190 203 39 129 88 b 550 378 129 331 281 364 z "},"á":{"ha":742,"x_min":0,"x_max":0,"o":"m 514 1029 b 506 1046 521 1038 518 1046 l 485 1046 b 468 1038 476 1046 472 1043 l 361 890 b 369 874 354 881 358 874 l 372 874 b 389 882 379 874 383 876 z m 383 732 b 118 554 239 732 150 654 b 131 542 115 546 121 542 l 151 542 b 168 553 160 542 165 546 b 379 685 200 633 272 686 b 571 500 514 685 571 603 l 571 422 l 549 421 b 78 188 250 406 78 364 b 300 -8 78 53 172 -8 b 564 124 421 -8 513 46 l 571 121 l 571 14 b 585 0 571 6 576 0 l 610 0 b 624 14 618 0 624 6 l 621 494 b 383 732 621 643 539 732 z m 571 378 l 571 200 b 308 39 542 121 446 39 b 129 190 203 39 129 88 b 550 378 129 331 281 364 z "},"ă":{"ha":742,"x_min":0,"x_max":0,"o":"m 515 1003 b 501 1017 515 1013 510 1017 l 492 1017 b 478 1003 483 1017 478 1013 l 478 1000 b 369 901 478 928 432 901 b 261 1000 307 901 261 928 l 261 1003 b 247 1017 261 1013 256 1017 l 238 1017 b 224 1003 229 1017 224 1013 l 224 1000 b 369 865 224 908 286 865 b 515 1000 453 865 515 908 z m 383 732 b 118 554 239 732 150 654 b 131 542 115 546 121 542 l 151 542 b 168 553 160 542 165 546 b 379 685 200 633 272 686 b 571 500 514 685 571 603 l 571 422 l 549 421 b 78 188 250 406 78 364 b 300 -8 78 53 172 -8 b 564 124 421 -8 513 46 l 571 121 l 571 14 b 585 0 571 6 576 0 l 610 0 b 624 14 618 0 624 6 l 621 494 b 383 732 621 643 539 732 z m 571 378 l 571 200 b 308 39 542 121 446 39 b 129 190 203 39 129 88 b 550 378 129 331 281 364 z "},"ǎ":{"ha":742,"x_min":0,"x_max":0,"o":"m 374 875 b 390 883 381 875 385 878 l 507 1025 b 499 1042 514 1033 511 1042 l 479 1042 b 463 1033 471 1042 467 1039 l 371 907 l 365 907 l 274 1033 b 256 1042 268 1039 264 1042 l 238 1042 b 229 1025 225 1042 222 1033 l 346 883 b 363 875 351 878 356 875 z m 610 0 b 624 14 618 0 624 6 l 621 494 b 383 732 621 643 539 732 b 118 557 240 732 153 656 b 131 542 115 547 121 542 l 151 542 b 168 553 160 542 165 546 b 379 685 200 633 272 686 b 571 500 514 685 571 603 l 571 422 l 549 421 b 78 188 250 406 78 364 b 300 -8 78 53 172 -8 b 564 124 421 -8 513 46 l 571 121 l 571 14 b 585 0 571 6 576 0 z m 308 39 b 129 190 203 39 129 88 b 550 378 129 331 281 364 l 571 378 l 571 200 b 308 39 542 121 446 39 z "},"â":{"ha":742,"x_min":0,"x_max":0,"o":"m 367 1008 l 372 1008 l 464 882 b 482 874 469 876 474 874 l 500 874 b 508 890 513 874 515 882 l 392 1032 b 375 1040 386 1038 382 1040 l 364 1040 b 347 1032 357 1040 353 1038 l 231 890 b 239 874 224 882 226 874 l 258 874 b 275 882 267 874 271 876 z m 610 0 b 624 14 618 0 624 6 l 621 494 b 383 732 621 643 539 732 b 118 557 240 732 153 656 b 131 542 115 547 121 542 l 151 542 b 168 553 160 542 165 546 b 379 685 200 633 272 686 b 571 500 514 685 571 603 l 571 422 l 549 421 b 78 188 250 406 78 364 b 300 -8 78 53 172 -8 b 564 124 421 -8 513 46 l 571 121 l 571 14 b 585 0 571 6 576 0 z m 308 39 b 129 190 203 39 129 88 b 550 378 129 331 281 364 l 571 378 l 571 200 b 308 39 542 121 446 39 z "},"ä":{"ha":742,"x_min":0,"x_max":0,"o":"m 328 1006 b 314 1019 328 1015 322 1019 l 301 1019 b 288 1006 293 1019 288 1015 l 288 933 b 301 919 288 925 293 919 l 314 919 b 328 933 324 919 328 925 z m 494 1006 b 481 1019 494 1015 489 1019 l 468 1019 b 454 1006 460 1019 454 1015 l 454 933 b 468 919 454 925 460 919 l 481 919 b 494 933 490 919 494 925 z m 383 732 b 118 554 239 732 150 654 b 131 542 115 546 121 542 l 151 542 b 168 553 160 542 165 546 b 379 685 200 633 272 686 b 571 500 514 685 571 603 l 571 422 l 549 421 b 78 188 250 406 78 364 b 300 -8 78 53 172 -8 b 564 124 421 -8 513 46 l 571 121 l 571 14 b 585 0 571 6 576 0 l 610 0 b 624 14 618 0 624 6 l 621 494 b 383 732 621 643 539 732 z m 571 378 l 571 200 b 308 39 542 121 446 39 b 129 190 203 39 129 88 b 550 378 129 331 281 364 z "},"à":{"ha":742,"x_min":0,"x_max":0,"o":"m 239 1046 b 231 1029 226 1046 224 1038 l 356 882 b 372 874 361 876 365 874 l 375 874 b 383 890 386 874 390 881 l 276 1038 b 260 1046 272 1043 268 1046 z m 383 732 b 118 554 239 732 150 654 b 131 542 115 546 121 542 l 151 542 b 168 553 160 542 165 546 b 379 685 200 633 272 686 b 571 500 514 685 571 603 l 571 422 l 549 421 b 78 188 250 406 78 364 b 300 -8 78 53 172 -8 b 564 124 421 -8 513 46 l 571 121 l 571 14 b 585 0 571 6 576 0 l 610 0 b 624 14 618 0 624 6 l 621 494 b 383 732 621 643 539 732 z m 571 378 l 571 200 b 308 39 542 121 446 39 b 129 190 203 39 129 88 b 550 378 129 331 281 364 z "},"ā":{"ha":742,"x_min":0,"x_max":0,"o":"m 497 958 b 483 972 497 968 493 972 l 256 972 b 242 958 247 972 242 968 l 242 950 b 256 936 242 942 246 936 l 483 936 b 497 950 493 936 497 942 z m 383 732 b 118 554 239 732 150 654 b 131 542 115 546 121 542 l 151 542 b 168 553 160 542 165 546 b 379 685 200 633 272 686 b 571 500 514 685 571 603 l 571 422 l 549 421 b 78 188 250 406 78 364 b 300 -8 78 53 172 -8 b 564 124 421 -8 513 46 l 571 121 l 571 14 b 585 0 571 6 576 0 l 610 0 b 624 14 618 0 624 6 l 621 494 b 383 732 621 643 539 732 z m 571 378 l 571 200 b 308 39 542 121 446 39 b 129 190 203 39 129 88 b 550 378 129 331 281 364 z "},"å":{"ha":742,"x_min":0,"x_max":0,"o":"m 371 1053 b 268 951 315 1053 268 1013 b 371 849 268 889 315 849 b 472 951 426 849 472 889 b 371 1053 472 1013 426 1053 z m 371 1022 b 442 951 410 1022 442 994 b 371 881 442 908 410 881 b 300 951 332 881 300 908 b 371 1022 300 994 332 1022 z m 383 732 b 118 554 239 732 150 654 b 131 542 115 546 121 542 l 151 542 b 168 553 160 542 165 546 b 379 685 200 633 272 686 b 571 500 514 685 571 603 l 571 422 l 549 421 b 78 188 250 406 78 364 b 300 -8 78 53 172 -8 b 564 124 421 -8 513 46 l 571 121 l 571 14 b 585 0 571 6 576 0 l 610 0 b 624 14 618 0 624 6 l 621 494 b 383 732 621 643 539 732 z m 571 378 l 571 200 b 308 39 542 121 446 39 b 129 190 203 39 129 88 b 550 378 129 331 281 364 z "},"ã":{"ha":742,"x_min":0,"x_max":0,"o":"m 300 1010 b 219 917 247 1010 224 967 b 233 903 219 908 225 903 l 240 903 b 254 917 250 903 254 907 b 300 974 257 949 269 974 b 450 883 357 974 376 883 b 526 976 500 883 522 924 b 513 990 526 985 521 990 l 506 990 b 492 976 496 990 492 985 b 450 919 490 942 481 919 b 300 1010 393 919 372 1010 z m 383 732 b 118 554 239 732 150 654 b 131 542 115 546 121 542 l 151 542 b 168 553 160 542 165 546 b 379 685 200 633 272 686 b 571 500 514 685 571 603 l 571 422 l 549 421 b 78 188 250 406 78 364 b 300 -8 78 53 172 -8 b 564 124 421 -8 513 46 l 571 121 l 571 14 b 585 0 571 6 576 0 l 610 0 b 624 14 618 0 624 6 l 621 494 b 383 732 621 643 539 732 z m 571 378 l 571 200 b 308 39 542 121 446 39 b 129 190 203 39 129 88 b 550 378 129 331 281 364 z "},"æ":{"ha":1267,"x_min":0,"x_max":0,"o":"m 1175 376 b 1189 390 1185 376 1189 381 b 893 726 1189 581 1078 726 b 615 554 771 726 669 663 b 383 738 593 674 514 738 b 118 563 240 738 153 661 b 131 547 115 553 121 547 l 151 547 b 168 558 160 547 165 551 b 379 690 200 639 272 692 b 571 488 514 690 571 606 l 571 422 l 549 421 b 78 188 250 406 78 364 b 300 -3 78 57 172 -3 b 592 204 439 -3 546 68 l 594 204 b 892 -10 639 74 746 -10 b 1169 160 1022 -10 1117 53 b 1160 176 1175 169 1171 176 l 1136 176 b 1119 167 1128 176 1124 174 b 894 38 1076 88 1003 38 b 622 376 707 38 614 194 z m 890 678 b 1138 421 1038 678 1129 567 l 626 421 b 890 678 646 576 749 678 z m 571 378 l 571 336 b 308 44 571 138 446 44 b 129 190 203 44 129 92 b 550 378 129 331 281 364 z "},"b":{"ha":825,"x_min":0,"x_max":0,"o":"m 171 610 l 169 1006 b 156 1019 169 1015 165 1019 l 133 1019 b 119 1006 125 1019 119 1015 l 119 14 b 133 0 119 6 124 0 l 157 0 b 171 14 167 0 171 6 l 171 113 l 178 114 b 433 -10 235 33 332 -10 b 747 356 625 -10 747 140 b 425 732 747 581 614 732 b 178 607 322 732 239 686 z m 426 683 b 696 358 583 683 696 556 b 425 38 696 169 594 38 b 169 204 314 38 215 96 l 169 499 b 426 683 221 615 311 683 z "},"c":{"ha":713,"x_min":0,"x_max":0,"o":"m 392 728 b 78 354 200 728 78 575 b 390 -10 78 140 197 -10 b 667 161 531 -10 621 61 b 656 178 671 171 667 178 l 631 178 b 615 167 624 178 618 175 b 394 38 578 90 504 38 b 129 356 218 38 129 179 b 392 681 129 538 218 681 b 617 543 503 681 578 626 b 632 532 619 535 625 532 l 657 532 b 668 549 667 532 671 539 b 392 728 624 654 531 728 z "},"ć":{"ha":713,"x_min":0,"x_max":0,"o":"m 531 1029 b 522 1046 538 1038 535 1046 l 501 1046 b 485 1038 493 1046 489 1043 l 378 890 b 386 874 371 881 375 874 l 389 874 b 406 882 396 874 400 876 z m 392 728 b 78 354 200 728 78 575 b 390 -10 78 140 197 -10 b 667 161 531 -10 621 61 b 656 178 671 171 667 178 l 631 178 b 615 167 624 178 618 175 b 394 38 578 90 504 38 b 129 356 218 38 129 179 b 392 681 129 538 218 681 b 617 543 503 681 578 626 b 632 532 619 535 625 532 l 657 532 b 668 549 667 532 671 539 b 392 728 624 654 531 728 z "},"č":{"ha":713,"x_min":0,"x_max":0,"o":"m 390 875 b 407 883 397 875 401 878 l 524 1025 b 515 1042 531 1033 528 1042 l 496 1042 b 479 1033 488 1042 483 1039 l 388 907 l 382 907 l 290 1033 b 272 1042 285 1039 281 1042 l 254 1042 b 246 1025 242 1042 239 1033 l 363 883 b 379 875 368 878 372 875 z m 394 38 b 129 356 218 38 129 179 b 392 681 129 538 218 681 b 617 543 503 681 578 626 b 632 532 619 535 625 532 l 657 532 b 668 549 667 532 671 539 b 392 728 624 654 531 728 b 78 354 200 728 78 575 b 390 -10 78 140 197 -10 b 667 161 531 -10 621 61 b 656 178 671 171 667 178 l 631 178 b 615 167 624 178 618 175 b 394 38 578 90 504 38 z "},"ç":{"ha":713,"x_min":0,"x_max":0,"o":"m 394 38 b 129 356 218 38 129 179 b 392 681 129 538 218 681 b 617 543 503 681 578 626 b 632 532 619 535 625 532 l 657 532 b 668 549 667 532 671 539 b 392 728 624 654 531 728 b 78 354 200 728 78 575 b 358 -8 78 153 185 7 l 329 -108 b 342 -124 326 -118 331 -124 b 467 -214 425 -128 467 -162 b 374 -293 467 -261 432 -293 b 289 -275 350 -293 317 -287 b 271 -282 281 -271 275 -274 l 269 -286 b 276 -304 267 -294 269 -301 b 372 -328 310 -321 342 -328 b 504 -211 458 -328 504 -275 b 371 -94 504 -137 444 -103 l 397 -10 b 667 161 533 -7 622 64 b 656 178 671 171 667 178 l 631 178 b 615 167 624 178 618 175 b 394 38 578 90 504 38 z "},"ċ":{"ha":713,"x_min":0,"x_max":0,"o":"m 411 1006 b 397 1019 411 1015 407 1019 l 374 1019 b 360 1006 365 1019 360 1015 l 360 933 b 374 919 360 925 364 919 l 397 919 b 411 933 407 919 411 925 z m 392 728 b 78 354 200 728 78 575 b 390 -10 78 140 197 -10 b 667 161 531 -10 621 61 b 656 178 671 171 667 178 l 631 178 b 615 167 624 178 618 175 b 394 38 578 90 504 38 b 129 356 218 38 129 179 b 392 681 129 538 218 681 b 617 543 503 681 578 626 b 632 532 619 535 625 532 l 657 532 b 668 549 667 532 671 539 b 392 728 624 654 531 728 z "},"d":{"ha":825,"x_min":0,"x_max":0,"o":"m 704 1006 b 690 1019 704 1015 700 1019 l 668 1019 b 654 1006 658 1019 654 1015 l 653 610 l 647 607 b 400 732 586 686 501 732 b 78 356 210 732 78 581 b 390 -10 78 140 201 -10 b 646 114 493 -10 590 33 l 653 113 l 653 14 b 667 0 653 6 658 0 l 692 0 b 706 14 700 0 706 6 z m 400 683 b 656 506 514 683 604 619 l 656 211 b 401 38 611 99 511 38 b 129 360 235 38 129 169 b 400 683 129 556 239 683 z "},"ď":{"ha":825,"x_min":0,"x_max":0,"o":"m 704 1006 b 690 1019 704 1015 700 1019 l 668 1019 b 654 1006 658 1019 654 1015 l 653 610 l 647 607 b 400 732 586 686 501 732 b 78 356 210 732 78 581 b 390 -10 78 140 201 -10 b 646 114 493 -10 590 33 l 653 113 l 653 14 b 667 0 653 6 658 0 l 692 0 b 706 14 700 0 706 6 z m 842 1004 b 828 1019 842 1014 838 1019 l 817 1019 b 803 1007 808 1019 804 1015 l 779 797 b 793 782 778 788 783 782 l 800 782 b 814 794 808 782 813 786 z m 400 683 b 656 506 514 683 604 619 l 656 211 b 401 38 611 99 511 38 b 129 360 235 38 129 169 b 400 683 129 556 239 683 z "},"e":{"ha":774,"x_min":0,"x_max":0,"o":"m 400 726 b 78 354 214 726 78 579 b 399 -10 78 140 203 -10 b 676 160 529 -10 624 53 b 667 176 682 169 678 176 l 643 176 b 626 167 635 176 631 174 b 401 38 583 88 508 38 b 129 376 214 38 121 194 l 682 376 b 696 390 692 376 696 381 b 400 726 696 581 583 726 z m 397 678 b 644 421 544 678 636 567 l 133 421 b 397 678 153 576 256 678 z "},"é":{"ha":774,"x_min":0,"x_max":0,"o":"m 536 1029 b 528 1046 543 1038 540 1046 l 507 1046 b 490 1038 499 1046 494 1043 l 383 890 b 392 874 376 881 381 874 l 394 874 b 411 882 401 874 406 876 z m 400 726 b 78 354 214 726 78 579 b 399 -10 78 140 203 -10 b 676 160 529 -10 624 53 b 667 176 682 169 678 176 l 643 176 b 626 167 635 176 631 174 b 401 38 583 88 508 38 b 129 376 214 38 121 194 l 682 376 b 696 390 692 376 696 381 b 400 726 696 581 583 726 z m 397 678 b 644 421 544 678 636 567 l 133 421 b 397 678 153 576 256 678 z "},"ě":{"ha":774,"x_min":0,"x_max":0,"o":"m 397 875 b 414 883 404 875 408 878 l 531 1025 b 522 1042 538 1033 535 1042 l 503 1042 b 486 1033 494 1042 490 1039 l 394 907 l 389 907 l 297 1033 b 279 1042 292 1039 288 1042 l 261 1042 b 253 1025 249 1042 246 1033 l 369 883 b 386 875 375 878 379 875 z m 682 376 b 696 390 692 376 696 381 b 400 726 696 581 583 726 b 78 354 214 726 78 579 b 399 -10 78 140 203 -10 b 676 160 529 -10 624 53 b 667 176 682 169 678 176 l 643 176 b 626 167 635 176 631 174 b 401 38 583 88 508 38 b 129 376 214 38 121 194 z m 397 678 b 644 421 544 678 636 567 l 133 421 b 397 678 153 576 256 678 z "},"ê":{"ha":774,"x_min":0,"x_max":0,"o":"m 390 1008 l 396 1008 l 488 882 b 506 874 493 876 497 874 l 524 874 b 532 890 536 874 539 882 l 415 1032 b 399 1040 410 1038 406 1040 l 388 1040 b 371 1032 381 1040 376 1038 l 254 890 b 263 874 247 882 250 874 l 282 874 b 299 882 290 874 294 876 z m 682 376 b 696 390 692 376 696 381 b 400 726 696 581 583 726 b 78 354 214 726 78 579 b 399 -10 78 140 203 -10 b 676 160 529 -10 624 53 b 667 176 682 169 678 176 l 643 176 b 626 167 635 176 631 174 b 401 38 583 88 508 38 b 129 376 214 38 121 194 z m 397 678 b 644 421 544 678 636 567 l 133 421 b 397 678 153 576 256 678 z "},"ë":{"ha":774,"x_min":0,"x_max":0,"o":"m 350 1006 b 336 1019 350 1015 344 1019 l 324 1019 b 310 1006 315 1019 310 1015 l 310 933 b 324 919 310 925 315 919 l 336 919 b 350 933 346 919 350 925 z m 517 1006 b 503 1019 517 1015 511 1019 l 490 1019 b 476 1006 482 1019 476 1015 l 476 933 b 490 919 476 925 482 919 l 503 919 b 517 933 513 919 517 925 z m 400 726 b 78 354 214 726 78 579 b 399 -10 78 140 203 -10 b 676 160 529 -10 624 53 b 667 176 682 169 678 176 l 643 176 b 626 167 635 176 631 174 b 401 38 583 88 508 38 b 129 376 214 38 121 194 l 682 376 b 696 390 692 376 696 381 b 400 726 696 581 583 726 z m 397 678 b 644 421 544 678 636 567 l 133 421 b 397 678 153 576 256 678 z "},"ė":{"ha":774,"x_min":0,"x_max":0,"o":"m 418 1006 b 404 1019 418 1015 414 1019 l 381 1019 b 367 1006 372 1019 367 1015 l 367 933 b 381 919 367 925 371 919 l 404 919 b 418 933 414 919 418 925 z m 400 726 b 78 354 214 726 78 579 b 399 -10 78 140 203 -10 b 676 160 529 -10 624 53 b 667 176 682 169 678 176 l 643 176 b 626 167 635 176 631 174 b 401 38 583 88 508 38 b 129 376 214 38 121 194 l 682 376 b 696 390 692 376 696 381 b 400 726 696 581 583 726 z m 397 678 b 644 421 544 678 636 567 l 133 421 b 397 678 153 576 256 678 z "},"è":{"ha":774,"x_min":0,"x_max":0,"o":"m 263 1046 b 254 1029 250 1046 247 1038 l 379 882 b 396 874 385 876 389 874 l 399 874 b 407 890 410 874 414 881 l 300 1038 b 283 1046 296 1043 292 1046 z m 400 726 b 78 354 214 726 78 579 b 399 -10 78 140 203 -10 b 676 160 529 -10 624 53 b 667 176 682 169 678 176 l 643 176 b 626 167 635 176 631 174 b 401 38 583 88 508 38 b 129 376 214 38 121 194 l 682 376 b 696 390 692 376 696 381 b 400 726 696 581 583 726 z m 397 678 b 644 421 544 678 636 567 l 133 421 b 397 678 153 576 256 678 z "},"ē":{"ha":774,"x_min":0,"x_max":0,"o":"m 521 958 b 507 972 521 968 517 972 l 279 972 b 265 958 271 972 265 968 l 265 950 b 279 936 265 942 269 936 l 507 936 b 521 950 517 936 521 942 z m 400 726 b 78 354 214 726 78 579 b 399 -10 78 140 203 -10 b 676 160 529 -10 624 53 b 667 176 682 169 678 176 l 643 176 b 626 167 635 176 631 174 b 401 38 583 88 508 38 b 129 376 214 38 121 194 l 682 376 b 696 390 692 376 696 381 b 400 726 696 581 583 726 z m 397 678 b 644 421 544 678 636 567 l 133 421 b 397 678 153 576 256 678 z "},"f":{"ha":446,"x_min":0,"x_max":0,"o":"m 414 1006 b 400 1019 414 1015 408 1019 b 164 774 235 1021 165 965 l 164 721 l 61 721 b 47 707 53 721 47 715 l 47 690 b 61 676 47 682 53 676 l 164 676 l 164 14 b 178 0 164 6 169 0 l 204 0 b 218 14 213 0 218 6 l 217 676 l 393 676 b 407 690 403 676 407 682 l 407 707 b 393 721 407 717 403 721 l 217 721 l 217 776 b 400 974 217 932 265 969 b 414 988 408 974 414 978 z "},"g":{"ha":825,"x_min":0,"x_max":0,"o":"m 390 732 b 78 365 201 732 78 582 b 400 0 78 140 210 0 b 646 119 503 0 585 43 l 653 117 l 653 49 b 403 -268 653 -160 568 -268 b 169 -133 272 -268 206 -204 b 154 -124 167 -126 161 -124 l 131 -124 b 119 -140 119 -124 115 -131 b 401 -315 161 -237 246 -315 b 706 54 606 -315 707 -178 l 704 707 b 690 721 704 717 700 721 l 668 721 b 654 707 658 721 654 717 l 653 607 l 646 607 b 390 732 592 688 493 732 z m 401 683 b 656 510 511 683 611 622 l 656 215 b 399 47 604 108 514 47 b 129 361 239 47 129 167 b 401 683 129 553 235 683 z "},"ğ":{"ha":825,"x_min":0,"x_max":0,"o":"m 556 1003 b 542 1017 556 1013 550 1017 l 532 1017 b 518 1003 524 1017 518 1013 l 518 1000 b 410 901 518 928 472 901 b 301 1000 347 901 301 928 l 301 1003 b 288 1017 301 1013 296 1017 l 278 1017 b 264 1003 269 1017 264 1013 l 264 1000 b 410 865 264 908 326 865 b 556 1000 493 865 556 908 z m 390 732 b 78 365 201 732 78 582 b 400 0 78 140 210 0 b 646 119 503 0 585 43 l 653 117 l 653 49 b 403 -268 653 -160 568 -268 b 169 -133 272 -268 206 -204 b 154 -124 167 -126 161 -124 l 131 -124 b 119 -140 119 -124 115 -131 b 401 -315 161 -237 246 -315 b 706 54 606 -315 707 -178 l 704 707 b 690 721 704 717 700 721 l 668 721 b 654 707 658 721 654 717 l 653 607 l 646 607 b 390 732 592 688 493 732 z m 401 683 b 656 510 511 683 611 622 l 656 215 b 399 47 604 108 514 47 b 129 361 239 47 129 167 b 401 683 129 553 235 683 z "},"ġ":{"ha":825,"x_min":0,"x_max":0,"o":"m 436 1006 b 422 1019 436 1015 432 1019 l 399 1019 b 385 1006 390 1019 385 1015 l 385 933 b 399 919 385 925 389 919 l 422 919 b 436 933 432 919 436 925 z m 390 732 b 78 365 201 732 78 582 b 400 0 78 140 210 0 b 646 119 503 0 585 43 l 653 117 l 653 49 b 403 -268 653 -160 568 -268 b 169 -133 272 -268 206 -204 b 154 -124 167 -126 161 -124 l 131 -124 b 119 -140 119 -124 115 -131 b 401 -315 161 -237 246 -315 b 706 54 606 -315 707 -178 l 704 707 b 690 721 704 717 700 721 l 668 721 b 654 707 658 721 654 717 l 653 607 l 646 607 b 390 732 592 688 493 732 z m 401 683 b 656 510 511 683 611 622 l 656 215 b 399 47 604 108 514 47 b 129 361 239 47 129 167 b 401 683 129 553 235 683 z "},"h":{"ha":769,"x_min":0,"x_max":0,"o":"m 171 599 l 171 1006 b 157 1019 171 1015 167 1019 l 133 1019 b 119 1006 125 1019 119 1015 l 119 14 b 133 0 119 6 125 0 l 158 0 b 172 14 167 0 172 6 l 171 510 b 421 679 231 617 315 679 b 597 483 532 679 599 611 l 597 14 b 611 0 597 6 603 0 l 636 0 b 650 14 646 0 650 6 l 650 494 b 433 729 650 646 567 729 b 179 597 318 729 235 665 z "},"i":{"ha":318,"x_min":0,"x_max":0,"o":"m 185 1006 b 171 1019 185 1015 181 1019 l 147 1019 b 133 1006 139 1019 133 1015 l 133 933 b 147 919 133 925 138 919 l 171 919 b 185 933 181 919 185 925 z m 185 707 b 171 721 185 717 181 721 l 147 721 b 133 707 139 721 133 717 l 133 14 b 147 0 133 6 139 0 l 172 0 b 186 14 181 0 186 6 z "},"ı":{"ha":318,"x_min":0,"x_max":0,"o":"m 185 707 b 171 721 185 717 181 721 l 147 721 b 133 707 139 721 133 717 l 133 14 b 147 0 133 6 139 0 l 172 0 b 186 14 181 0 186 6 z "},"í":{"ha":318,"x_min":0,"x_max":0,"o":"m 303 1029 b 294 1046 310 1038 307 1046 l 274 1046 b 257 1038 265 1046 261 1043 l 150 890 b 158 874 143 881 147 874 l 161 874 b 178 882 168 874 172 876 z m 185 707 b 171 721 185 717 181 721 l 147 721 b 133 707 139 721 133 717 l 133 14 b 147 0 133 6 139 0 l 172 0 b 186 14 181 0 186 6 z "},"ǐ":{"ha":318,"x_min":0,"x_max":0,"o":"m 164 875 b 181 883 171 875 175 878 l 297 1025 b 289 1042 304 1033 301 1042 l 269 1042 b 253 1033 261 1042 257 1039 l 161 907 l 156 907 l 64 1033 b 46 1042 58 1039 54 1042 l 28 1042 b 19 1025 15 1042 13 1033 l 136 883 b 153 875 142 878 146 875 z m 147 721 b 133 707 139 721 133 717 l 133 14 b 147 0 133 6 139 0 l 172 0 b 186 14 181 0 186 6 l 185 707 b 171 721 185 717 181 721 z "},"î":{"ha":318,"x_min":0,"x_max":0,"o":"m 182 1032 b 165 1040 176 1038 172 1040 l 154 1040 b 138 1032 147 1040 143 1038 l 21 890 b 29 874 14 882 17 874 l 49 874 b 65 882 57 874 61 876 l 157 1008 l 163 1008 l 254 882 b 272 874 260 876 264 874 l 290 874 b 299 890 303 874 306 882 z m 147 721 b 133 707 139 721 133 717 l 133 14 b 147 0 133 6 139 0 l 172 0 b 186 14 181 0 186 6 l 185 707 b 171 721 185 717 181 721 z "},"ï":{"ha":318,"x_min":0,"x_max":0,"o":"m 118 1006 b 104 1019 118 1015 113 1019 l 92 1019 b 78 1006 83 1019 78 1015 l 78 933 b 92 919 78 925 83 919 l 104 919 b 118 933 114 919 118 925 z m 285 1006 b 271 1019 285 1015 279 1019 l 258 1019 b 244 1006 250 1019 244 1015 l 244 933 b 258 919 244 925 250 919 l 271 919 b 285 933 281 919 285 925 z m 185 707 b 171 721 185 717 181 721 l 147 721 b 133 707 139 721 133 717 l 133 14 b 147 0 133 6 139 0 l 172 0 b 186 14 181 0 186 6 z "},"ì":{"ha":318,"x_min":0,"x_max":0,"o":"m 29 1046 b 21 1029 17 1046 14 1038 l 146 882 b 163 874 151 876 156 874 l 165 874 b 174 890 176 874 181 881 l 67 1038 b 50 1046 63 1043 58 1046 z m 185 707 b 171 721 185 717 181 721 l 147 721 b 133 707 139 721 133 717 l 133 14 b 147 0 133 6 139 0 l 172 0 b 186 14 181 0 186 6 z "},"ī":{"ha":318,"x_min":0,"x_max":0,"o":"m 288 958 b 274 972 288 968 283 972 l 46 972 b 32 958 38 972 32 968 l 32 950 b 46 936 32 942 36 936 l 274 936 b 288 950 283 936 288 942 z m 185 707 b 171 721 185 717 181 721 l 147 721 b 133 707 139 721 133 717 l 133 14 b 147 0 133 6 139 0 l 172 0 b 186 14 181 0 186 6 z "},"j":{"ha":378,"x_min":0,"x_max":0,"o":"m 218 1006 b 204 1019 218 1015 214 1019 l 181 1019 b 167 1006 172 1019 167 1015 l 167 933 b 181 919 167 925 171 919 l 204 919 b 218 933 214 919 218 925 z m 219 707 b 206 721 219 717 214 721 l 181 721 b 167 707 171 721 167 717 l 165 -61 b -4 -258 165 -207 128 -254 b -18 -272 -12 -258 -18 -262 l -18 -292 b -4 -306 -18 -300 -12 -306 b 219 -64 151 -303 221 -244 z "},"ȷ":{"ha":378,"x_min":0,"x_max":0,"o":"m 219 707 b 206 721 219 717 214 721 l 181 721 b 167 707 171 721 167 717 l 165 -61 b -4 -258 165 -207 128 -254 b -18 -272 -12 -258 -18 -262 l -18 -292 b -4 -306 -18 -300 -12 -306 b 219 -64 151 -303 221 -244 z "},"k":{"ha":742,"x_min":0,"x_max":0,"o":"m 307 406 l 596 8 b 613 0 600 3 604 0 l 643 0 b 651 17 654 0 658 7 l 342 438 l 628 704 b 621 721 636 713 633 721 l 593 721 b 576 714 586 721 581 719 l 172 339 l 171 1006 b 157 1019 171 1015 167 1019 l 135 1019 b 121 1006 125 1019 121 1015 l 119 14 b 133 0 119 6 125 0 l 160 0 b 174 14 168 0 174 6 l 172 281 z "},"l":{"ha":369,"x_min":0,"x_max":0,"o":"m 210 1006 b 196 1019 210 1015 206 1019 l 174 1019 b 160 1006 164 1019 160 1015 l 157 14 b 171 0 157 6 163 0 l 197 0 b 211 14 206 0 211 6 z "},"ĺ":{"ha":369,"x_min":0,"x_max":0,"o":"m 328 1308 b 319 1325 335 1317 332 1325 l 299 1325 b 282 1317 290 1325 286 1322 l 175 1169 b 183 1153 168 1160 172 1153 l 186 1153 b 203 1161 193 1153 197 1156 z m 210 1006 b 196 1019 210 1015 206 1019 l 174 1019 b 160 1006 164 1019 160 1015 l 157 14 b 171 0 157 6 163 0 l 197 0 b 211 14 206 0 211 6 z "},"ľ":{"ha":369,"x_min":0,"x_max":0,"o":"m 210 1006 b 196 1019 210 1015 206 1019 l 174 1019 b 160 1006 164 1019 160 1015 l 157 14 b 171 0 157 6 163 0 l 197 0 b 211 14 206 0 211 6 z m 356 1004 b 342 1019 356 1014 351 1019 l 331 1019 b 317 1007 322 1019 318 1015 l 293 797 b 307 782 292 788 297 782 l 314 782 b 328 794 322 782 326 786 z "},"m":{"ha":1128,"x_min":0,"x_max":0,"o":"m 831 732 b 582 586 717 732 636 664 l 576 586 b 386 732 546 689 476 732 b 138 597 272 732 192 664 l 131 597 l 129 707 b 115 721 129 717 125 721 l 93 721 b 79 707 83 721 79 717 l 78 14 b 92 0 78 6 83 0 l 117 0 b 131 14 126 0 131 4 l 131 510 b 372 682 188 621 272 682 b 536 483 475 682 536 618 l 535 14 b 549 0 535 6 540 0 l 575 0 b 589 14 583 0 589 6 l 588 508 b 819 682 640 621 721 682 b 981 483 921 682 981 618 l 981 14 b 994 0 981 6 986 0 l 1019 0 b 1033 14 1029 0 1033 6 l 1033 494 b 831 732 1032 653 954 732 z "},"n":{"ha":768,"x_min":0,"x_max":0,"o":"m 435 732 b 179 597 318 732 236 667 l 171 599 l 171 707 b 157 721 171 717 167 721 l 133 721 b 119 707 125 721 119 717 l 119 14 b 133 0 119 6 125 0 l 158 0 b 172 14 167 0 172 6 l 171 510 b 422 682 232 618 315 682 b 599 483 531 682 599 618 l 599 14 b 613 0 599 6 604 0 l 635 0 b 649 14 644 0 649 6 l 649 494 b 435 732 649 653 567 732 z "},"ń":{"ha":768,"x_min":0,"x_max":0,"o":"m 528 1029 b 519 1046 535 1038 532 1046 l 499 1046 b 482 1038 490 1046 486 1043 l 375 890 b 383 874 368 881 372 874 l 386 874 b 403 882 393 874 397 876 z m 435 732 b 179 597 318 732 236 667 l 171 599 l 171 707 b 157 721 171 717 167 721 l 133 721 b 119 707 125 721 119 717 l 119 14 b 133 0 119 6 125 0 l 158 0 b 172 14 167 0 172 6 l 171 510 b 422 682 232 618 315 682 b 599 483 531 682 599 618 l 599 14 b 613 0 599 6 604 0 l 635 0 b 649 14 644 0 649 6 l 649 494 b 435 732 649 653 567 732 z "},"ň":{"ha":768,"x_min":0,"x_max":0,"o":"m 389 875 b 406 883 396 875 400 878 l 522 1025 b 514 1042 529 1033 526 1042 l 494 1042 b 478 1033 486 1042 482 1039 l 386 907 l 381 907 l 289 1033 b 271 1042 283 1039 279 1042 l 253 1042 b 244 1025 240 1042 238 1033 l 361 883 b 378 875 367 878 371 875 z m 435 732 b 179 597 318 732 236 667 l 171 599 l 171 707 b 157 721 171 717 167 721 l 133 721 b 119 707 125 721 119 717 l 119 14 b 133 0 119 6 125 0 l 158 0 b 172 14 167 0 172 6 l 171 510 b 422 682 232 618 315 682 b 599 483 531 682 599 618 l 599 14 b 613 0 599 6 604 0 l 635 0 b 649 14 644 0 649 6 l 649 494 b 435 732 649 653 567 732 z "},"ñ":{"ha":768,"x_min":0,"x_max":0,"o":"m 314 1010 b 233 917 261 1010 238 967 b 247 903 233 908 239 903 l 254 903 b 268 917 264 903 268 907 b 314 974 271 949 283 974 b 464 883 371 974 390 883 b 540 976 514 883 536 924 b 526 990 540 985 535 990 l 519 990 b 506 976 510 990 506 985 b 464 919 504 942 494 919 b 314 1010 407 919 386 1010 z m 435 732 b 179 597 318 732 236 667 l 171 599 l 171 707 b 157 721 171 717 167 721 l 133 721 b 119 707 125 721 119 717 l 119 14 b 133 0 119 6 125 0 l 158 0 b 172 14 167 0 172 6 l 171 510 b 422 682 232 618 315 682 b 599 483 531 682 599 618 l 599 14 b 613 0 599 6 604 0 l 635 0 b 649 14 644 0 649 6 l 649 494 b 435 732 649 653 567 732 z "},"o":{"ha":797,"x_min":0,"x_max":0,"o":"m 403 732 b 78 360 214 732 78 581 b 394 -10 78 144 208 -10 b 721 368 583 -10 721 149 b 403 732 721 586 590 732 z m 400 683 b 668 365 558 683 668 557 b 397 38 668 174 556 38 b 129 363 240 38 129 172 b 400 683 129 556 242 683 z "},"ó":{"ha":797,"x_min":0,"x_max":0,"o":"m 542 1029 b 533 1046 549 1038 546 1046 l 513 1046 b 496 1038 504 1046 500 1043 l 389 890 b 397 874 382 881 386 874 l 400 874 b 417 882 407 874 411 876 z m 403 732 b 78 360 214 732 78 581 b 394 -10 78 144 208 -10 b 721 368 583 -10 721 149 b 403 732 721 586 590 732 z m 400 683 b 668 365 558 683 668 557 b 397 38 668 174 556 38 b 129 363 240 38 129 172 b 400 683 129 556 242 683 z "},"ǒ":{"ha":797,"x_min":0,"x_max":0,"o":"m 403 875 b 419 883 410 875 414 878 l 536 1025 b 528 1042 543 1033 540 1042 l 508 1042 b 492 1033 500 1042 496 1039 l 400 907 l 394 907 l 303 1033 b 285 1042 297 1039 293 1042 l 267 1042 b 258 1025 254 1042 251 1033 l 375 883 b 392 875 381 878 385 875 z m 403 732 b 78 360 214 732 78 581 b 394 -10 78 144 208 -10 b 721 368 583 -10 721 149 b 403 732 721 586 590 732 z m 397 38 b 129 363 240 38 129 172 b 400 683 129 556 242 683 b 668 365 558 683 668 557 b 397 38 668 174 556 38 z "},"ô":{"ha":797,"x_min":0,"x_max":0,"o":"m 396 1008 l 401 1008 l 493 882 b 511 874 499 876 503 874 l 529 874 b 538 890 542 874 544 882 l 421 1032 b 404 1040 415 1038 411 1040 l 393 1040 b 376 1032 386 1040 382 1038 l 260 890 b 268 874 253 882 256 874 l 288 874 b 304 882 296 874 300 876 z m 403 732 b 78 360 214 732 78 581 b 394 -10 78 144 208 -10 b 721 368 583 -10 721 149 b 403 732 721 586 590 732 z m 397 38 b 129 363 240 38 129 172 b 400 683 129 556 242 683 b 668 365 558 683 668 557 b 397 38 668 174 556 38 z "},"ö":{"ha":797,"x_min":0,"x_max":0,"o":"m 357 1006 b 343 1019 357 1015 351 1019 l 331 1019 b 317 1006 322 1019 317 1015 l 317 933 b 331 919 317 925 322 919 l 343 919 b 357 933 353 919 357 925 z m 524 1006 b 510 1019 524 1015 518 1019 l 497 1019 b 483 1006 489 1019 483 1015 l 483 933 b 497 919 483 925 489 919 l 510 919 b 524 933 519 919 524 925 z m 403 732 b 78 360 214 732 78 581 b 394 -10 78 144 208 -10 b 721 368 583 -10 721 149 b 403 732 721 586 590 732 z m 400 683 b 668 365 558 683 668 557 b 397 38 668 174 556 38 b 129 363 240 38 129 172 b 400 683 129 556 242 683 z "},"ò":{"ha":797,"x_min":0,"x_max":0,"o":"m 268 1046 b 260 1029 256 1046 253 1038 l 385 882 b 401 874 390 876 394 874 l 404 874 b 413 890 415 874 419 881 l 306 1038 b 289 1046 301 1043 297 1046 z m 403 732 b 78 360 214 732 78 581 b 394 -10 78 144 208 -10 b 721 368 583 -10 721 149 b 403 732 721 586 590 732 z m 400 683 b 668 365 558 683 668 557 b 397 38 668 174 556 38 b 129 363 240 38 129 172 b 400 683 129 556 242 683 z "},"ő":{"ha":797,"x_min":0,"x_max":0,"o":"m 513 1007 b 504 1024 519 1015 517 1024 l 483 1024 b 467 1015 475 1024 471 1021 l 360 868 b 368 851 353 858 357 851 l 371 851 b 388 860 378 851 382 854 z m 681 1007 b 672 1024 688 1015 685 1024 l 651 1024 b 635 1015 643 1024 639 1021 l 528 868 b 536 851 521 858 525 851 l 539 851 b 556 860 546 851 550 854 z m 403 732 b 78 360 214 732 78 581 b 394 -10 78 144 208 -10 b 721 368 583 -10 721 149 b 403 732 721 586 590 732 z m 400 683 b 668 365 558 683 668 557 b 397 38 668 174 556 38 b 129 363 240 38 129 172 b 400 683 129 556 242 683 z "},"ō":{"ha":797,"x_min":0,"x_max":0,"o":"m 526 958 b 513 972 526 968 522 972 l 285 972 b 271 958 276 972 271 968 l 271 950 b 285 936 271 942 275 936 l 513 936 b 526 950 522 936 526 942 z m 403 732 b 78 360 214 732 78 581 b 394 -10 78 144 208 -10 b 721 368 583 -10 721 149 b 403 732 721 586 590 732 z m 400 683 b 668 365 558 683 668 557 b 397 38 668 174 556 38 b 129 363 240 38 129 172 b 400 683 129 556 242 683 z "},"ø":{"ha":824,"x_min":0,"x_max":0,"o":"m 721 704 b 713 721 728 713 725 721 l 689 721 b 672 713 682 721 678 718 l 624 654 b 417 732 569 704 499 732 b 92 360 228 732 92 581 b 168 108 92 260 119 174 l 92 17 b 100 0 85 8 88 0 l 124 0 b 140 8 131 0 135 3 l 197 76 b 408 -10 251 22 324 -10 b 735 368 599 -10 735 149 b 653 624 735 472 706 560 z m 143 363 b 414 683 143 556 256 683 b 590 615 483 683 544 658 l 203 150 b 143 363 165 206 143 279 z m 683 365 b 411 38 683 174 571 38 b 231 115 340 38 278 67 l 619 582 b 683 365 660 528 683 453 z "},"õ":{"ha":797,"x_min":0,"x_max":0,"o":"m 328 1010 b 247 917 275 1010 251 967 b 261 903 247 908 253 903 l 268 903 b 282 917 278 903 282 907 b 328 974 285 949 297 974 b 478 883 385 974 404 883 b 554 976 528 883 550 924 b 540 990 554 985 549 990 l 533 990 b 519 976 524 990 519 985 b 478 919 518 942 508 919 b 328 1010 421 919 400 1010 z m 403 732 b 78 360 214 732 78 581 b 394 -10 78 144 208 -10 b 721 368 583 -10 721 149 b 403 732 721 586 590 732 z m 400 683 b 668 365 558 683 668 557 b 397 38 668 174 556 38 b 129 363 240 38 129 172 b 400 683 129 556 242 683 z "},"œ":{"ha":1365,"x_min":0,"x_max":0,"o":"m 721 375 l 1274 376 b 1288 390 1283 376 1288 382 b 990 726 1286 581 1175 726 b 697 519 856 726 746 649 b 403 732 650 651 543 732 b 78 360 214 732 78 581 b 394 -10 78 144 208 -10 b 692 204 532 -10 642 74 b 989 -10 738 74 844 -10 b 1268 160 1121 -10 1215 53 b 1258 176 1274 169 1269 176 l 1235 176 b 1218 167 1226 176 1222 174 b 992 38 1175 88 1100 38 b 721 346 815 38 724 178 l 721 368 z m 397 38 b 129 363 240 38 129 172 b 400 683 129 556 242 683 b 668 365 558 683 668 557 b 397 38 668 174 556 38 z m 988 678 b 1236 421 1136 678 1228 567 l 725 421 b 988 678 744 576 847 678 z "},"p":{"ha":825,"x_min":0,"x_max":0,"o":"m 433 732 b 178 607 332 732 235 688 l 171 608 l 171 707 b 157 721 171 717 167 721 l 133 721 b 119 707 125 721 119 715 l 119 -292 b 133 -306 119 -301 125 -306 l 158 -306 b 172 -292 168 -306 172 -300 l 172 111 l 179 114 b 425 -10 239 35 322 -10 b 747 365 614 -10 747 140 b 433 732 747 582 625 732 z m 425 683 b 696 361 592 683 696 553 b 426 38 696 167 586 38 b 169 215 313 38 222 103 l 169 510 b 425 683 214 622 314 683 z "},"q":{"ha":825,"x_min":0,"x_max":0,"o":"m 390 732 b 78 365 201 732 78 582 b 399 -10 78 140 210 -10 b 647 114 501 -10 585 35 l 653 111 l 653 -292 b 667 -306 653 -301 658 -306 l 692 -306 b 706 -292 700 -306 706 -300 l 704 707 b 690 721 704 717 700 721 l 668 721 b 654 707 658 721 654 717 l 653 608 l 647 607 b 390 732 590 689 493 732 z m 401 683 b 656 510 511 683 611 624 l 656 215 b 400 38 604 103 514 38 b 129 361 239 38 129 167 b 401 683 129 553 235 683 z "},"r":{"ha":467,"x_min":0,"x_max":0,"o":"m 435 718 b 421 732 435 726 429 732 b 179 576 306 726 229 661 l 171 578 l 171 707 b 157 721 171 717 167 721 l 133 721 b 119 707 125 721 119 717 l 119 14 b 133 0 119 6 125 0 l 158 0 b 172 14 167 0 172 6 l 171 483 b 421 676 221 617 311 672 b 435 690 431 676 435 681 z "},"ŕ":{"ha":467,"x_min":0,"x_max":0,"o":"m 386 1029 b 378 1046 393 1038 390 1046 l 357 1046 b 340 1038 349 1046 344 1043 l 233 890 b 242 874 226 881 231 874 l 244 874 b 261 882 251 874 256 876 z m 435 718 b 421 732 435 726 429 732 b 179 576 306 726 229 661 l 171 578 l 171 707 b 157 721 171 717 167 721 l 133 721 b 119 707 125 721 119 717 l 119 14 b 133 0 119 6 125 0 l 158 0 b 172 14 167 0 172 6 l 171 483 b 421 676 221 617 311 672 b 435 690 431 676 435 681 z "},"ř":{"ha":467,"x_min":0,"x_max":0,"o":"m 246 875 b 263 883 253 875 257 878 l 379 1025 b 371 1042 386 1033 383 1042 l 351 1042 b 335 1033 343 1042 339 1039 l 243 907 l 238 907 l 146 1033 b 128 1042 140 1039 136 1042 l 110 1042 b 101 1025 97 1042 94 1033 l 218 883 b 235 875 224 878 228 875 z m 171 578 l 171 707 b 157 721 171 717 167 721 l 133 721 b 119 707 125 721 119 717 l 119 14 b 133 0 119 6 125 0 l 158 0 b 172 14 167 0 172 6 l 171 483 b 421 676 221 617 311 672 b 435 690 431 676 435 681 l 435 718 b 421 732 435 726 429 732 b 179 576 306 726 229 661 z "},"s":{"ha":669,"x_min":0,"x_max":0,"o":"m 338 732 b 99 547 201 732 99 663 b 303 363 99 444 179 401 l 356 347 b 550 182 481 308 550 268 b 356 38 550 82 463 38 b 125 169 246 38 158 85 b 108 181 122 176 117 181 l 83 181 b 72 165 74 181 68 174 b 353 -10 115 50 217 -10 b 604 186 506 -10 604 64 b 386 390 604 289 532 346 l 331 407 b 150 551 221 442 150 472 b 336 685 150 636 229 685 b 539 572 446 685 504 639 b 556 563 543 565 549 563 l 579 563 b 590 578 589 563 593 569 b 338 732 557 657 486 732 z "},"ś":{"ha":669,"x_min":0,"x_max":0,"o":"m 478 1029 b 469 1046 485 1038 482 1046 l 449 1046 b 432 1038 440 1046 436 1043 l 325 890 b 333 874 318 881 322 874 l 336 874 b 353 882 343 874 347 876 z m 338 732 b 99 547 201 732 99 663 b 303 363 99 444 179 401 l 356 347 b 550 182 481 308 550 268 b 356 38 550 82 463 38 b 125 169 246 38 158 85 b 108 181 122 176 117 181 l 83 181 b 72 165 74 181 68 174 b 353 -10 115 50 217 -10 b 604 186 506 -10 604 64 b 386 390 604 289 532 346 l 331 407 b 150 551 221 442 150 472 b 336 685 150 636 229 685 b 539 572 446 685 504 639 b 556 563 543 565 549 563 l 579 563 b 590 578 589 563 593 569 b 338 732 557 657 486 732 z "},"š":{"ha":669,"x_min":0,"x_max":0,"o":"m 339 875 b 356 883 346 875 350 878 l 472 1025 b 464 1042 479 1033 476 1042 l 444 1042 b 428 1033 436 1042 432 1039 l 336 907 l 331 907 l 239 1033 b 221 1042 233 1039 229 1042 l 203 1042 b 194 1025 190 1042 188 1033 l 311 883 b 328 875 317 878 321 875 z m 331 407 b 150 551 221 442 150 472 b 336 685 150 636 229 685 b 539 572 446 685 504 639 b 556 563 543 565 549 563 l 579 563 b 590 578 589 563 593 569 b 338 732 557 657 486 732 b 99 547 201 732 99 663 b 303 363 99 444 179 401 l 356 347 b 550 182 481 308 550 268 b 356 38 550 82 463 38 b 125 169 246 38 158 85 b 108 181 122 176 117 181 l 83 181 b 72 165 74 181 68 174 b 353 -10 115 50 217 -10 b 604 186 506 -10 604 64 b 386 390 604 289 532 346 z "},"ş":{"ha":669,"x_min":0,"x_max":0,"o":"m 604 186 b 386 390 604 289 532 346 l 331 407 b 150 551 221 442 150 472 b 336 685 150 636 229 685 b 539 572 446 685 504 639 b 556 563 543 565 549 563 l 579 563 b 590 578 589 563 593 569 b 338 732 557 657 486 732 b 99 547 201 732 99 663 b 303 363 99 444 179 401 l 356 347 b 550 182 481 308 550 268 b 356 38 550 82 463 38 b 125 169 246 38 158 85 b 108 181 122 176 117 181 l 83 181 b 72 165 74 181 68 174 b 318 -8 111 60 200 1 l 289 -108 b 301 -124 286 -118 290 -124 b 426 -214 385 -128 426 -162 b 333 -293 426 -261 392 -293 b 249 -275 310 -293 276 -287 b 231 -282 240 -271 235 -274 l 229 -286 b 236 -304 226 -294 229 -301 b 332 -328 269 -321 301 -328 b 464 -211 418 -328 464 -275 b 331 -94 464 -137 404 -103 l 357 -10 b 604 186 507 -8 604 65 z "},"ß":{"ha":788,"x_min":0,"x_max":0,"o":"m 492 531 b 676 761 610 563 676 646 b 411 1004 676 903 574 1004 b 110 658 254 1004 111 906 l 108 14 b 122 0 108 6 114 0 l 151 0 b 165 14 160 0 165 6 l 163 658 b 413 957 163 886 283 957 b 626 757 547 957 626 871 b 385 551 626 639 543 556 b 371 538 376 551 371 547 l 371 519 b 385 506 371 510 376 506 b 668 274 564 501 668 408 b 365 40 668 135 575 44 b 351 26 357 40 351 36 l 351 6 b 365 -8 351 -3 357 -8 b 719 271 603 -4 719 104 b 492 531 719 406 633 499 z "},"t":{"ha":447,"x_min":0,"x_max":0,"o":"m 415 707 b 401 721 415 715 411 721 l 240 721 l 240 1003 b 226 1017 240 1013 236 1017 l 204 1017 b 190 1003 194 1017 190 1013 l 189 721 l 61 721 b 47 707 53 721 47 715 l 47 692 b 61 678 47 683 51 678 l 189 678 l 188 14 b 201 0 188 6 193 0 l 228 0 b 242 14 236 0 242 6 l 240 678 l 401 678 b 415 692 411 678 415 682 z "},"ť":{"ha":447,"x_min":0,"x_max":0,"o":"m 436 1019 b 422 1007 428 1019 424 1015 l 399 797 b 413 782 397 788 403 782 l 419 782 b 433 794 428 782 432 786 l 461 1004 b 447 1019 463 1014 457 1019 z m 240 721 l 240 1003 b 226 1017 240 1013 236 1017 l 204 1017 b 190 1003 194 1017 190 1013 l 189 721 l 61 721 b 47 707 53 721 47 715 l 47 692 b 61 678 47 683 51 678 l 189 678 l 188 14 b 201 0 188 6 193 0 l 228 0 b 242 14 236 0 242 6 l 240 678 l 401 678 b 415 692 411 678 415 683 l 415 707 b 401 721 415 717 411 721 z "},"ţ":{"ha":447,"x_min":0,"x_max":0,"o":"m 415 707 b 401 721 415 715 411 721 l 240 721 l 240 1003 b 226 1017 240 1013 236 1017 l 204 1017 b 190 1003 194 1017 190 1013 l 189 721 l 61 721 b 47 707 53 721 47 715 l 47 692 b 61 678 47 683 51 678 l 189 678 l 188 14 b 193 0 188 6 189 0 l 161 -108 b 174 -124 158 -118 163 -124 b 299 -214 257 -128 299 -162 b 206 -293 299 -261 264 -293 b 121 -275 182 -293 149 -287 b 103 -282 113 -271 107 -274 l 101 -286 b 108 -304 99 -294 101 -301 b 204 -328 142 -321 174 -328 b 336 -211 290 -328 336 -275 b 203 -94 336 -137 276 -103 l 233 0 b 242 14 239 0 242 6 l 240 678 l 401 678 b 415 692 411 678 415 682 z "},"u":{"ha":768,"x_min":0,"x_max":0,"o":"m 649 707 b 635 721 649 717 644 721 l 611 721 b 597 707 603 721 597 717 l 597 211 b 347 40 538 104 454 40 b 171 242 238 40 171 104 l 171 707 b 157 721 171 717 167 721 l 133 721 b 119 707 125 721 119 715 l 119 229 b 333 -10 118 69 204 -10 b 590 125 451 -10 532 54 l 597 122 l 596 14 b 610 0 596 6 601 0 l 636 0 b 650 14 644 0 650 6 z "},"ú":{"ha":768,"x_min":0,"x_max":0,"o":"m 528 1029 b 519 1046 535 1038 532 1046 l 499 1046 b 482 1038 490 1046 486 1043 l 375 890 b 383 874 368 881 372 874 l 386 874 b 403 882 393 874 397 876 z m 649 707 b 635 721 649 717 644 721 l 611 721 b 597 707 603 721 597 717 l 597 211 b 347 40 538 104 454 40 b 171 242 238 40 171 104 l 171 707 b 157 721 171 717 167 721 l 133 721 b 119 707 125 721 119 715 l 119 229 b 333 -10 118 69 204 -10 b 590 125 451 -10 532 54 l 597 122 l 596 14 b 610 0 596 6 601 0 l 636 0 b 650 14 644 0 650 6 z "},"ǔ":{"ha":768,"x_min":0,"x_max":0,"o":"m 388 875 b 404 883 394 875 399 878 l 521 1025 b 513 1042 528 1033 525 1042 l 493 1042 b 476 1033 485 1042 481 1039 l 385 907 l 379 907 l 288 1033 b 269 1042 282 1039 278 1042 l 251 1042 b 243 1025 239 1042 236 1033 l 360 883 b 376 875 365 878 369 875 z m 636 0 b 650 14 644 0 650 6 l 649 707 b 635 721 649 717 644 721 l 611 721 b 597 707 603 721 597 717 l 597 211 b 347 40 538 104 454 40 b 171 242 238 40 171 104 l 171 707 b 157 721 171 717 167 721 l 133 721 b 119 707 125 721 119 715 l 119 229 b 333 -10 118 69 204 -10 b 590 125 451 -10 532 54 l 597 122 l 596 14 b 610 0 596 6 601 0 z "},"û":{"ha":768,"x_min":0,"x_max":0,"o":"m 381 1008 l 386 1008 l 478 882 b 496 874 483 876 488 874 l 514 874 b 522 890 526 874 529 882 l 406 1032 b 389 1040 400 1038 396 1040 l 378 1040 b 361 1032 371 1040 367 1038 l 244 890 b 253 874 238 882 240 874 l 272 874 b 289 882 281 874 285 876 z m 636 0 b 650 14 644 0 650 6 l 649 707 b 635 721 649 717 644 721 l 611 721 b 597 707 603 721 597 717 l 597 211 b 347 40 538 104 454 40 b 171 242 238 40 171 104 l 171 707 b 157 721 171 717 167 721 l 133 721 b 119 707 125 721 119 715 l 119 229 b 333 -10 118 69 204 -10 b 590 125 451 -10 532 54 l 597 122 l 596 14 b 610 0 596 6 601 0 z "},"ü":{"ha":768,"x_min":0,"x_max":0,"o":"m 342 1006 b 328 1019 342 1015 336 1019 l 315 1019 b 301 1006 307 1019 301 1015 l 301 933 b 315 919 301 925 307 919 l 328 919 b 342 933 338 919 342 925 z m 508 1006 b 494 1019 508 1015 503 1019 l 482 1019 b 468 1006 474 1019 468 1015 l 468 933 b 482 919 468 925 474 919 l 494 919 b 508 933 504 919 508 925 z m 649 707 b 635 721 649 717 644 721 l 611 721 b 597 707 603 721 597 717 l 597 211 b 347 40 538 104 454 40 b 171 242 238 40 171 104 l 171 707 b 157 721 171 717 167 721 l 133 721 b 119 707 125 721 119 715 l 119 229 b 333 -10 118 69 204 -10 b 590 125 451 -10 532 54 l 597 122 l 596 14 b 610 0 596 6 601 0 l 636 0 b 650 14 644 0 650 6 z "},"ù":{"ha":768,"x_min":0,"x_max":0,"o":"m 253 1046 b 244 1029 240 1046 238 1038 l 369 882 b 386 874 375 876 379 874 l 389 874 b 397 890 400 874 404 881 l 290 1038 b 274 1046 286 1043 282 1046 z m 649 707 b 635 721 649 717 644 721 l 611 721 b 597 707 603 721 597 717 l 597 211 b 347 40 538 104 454 40 b 171 242 238 40 171 104 l 171 707 b 157 721 171 717 167 721 l 133 721 b 119 707 125 721 119 715 l 119 229 b 333 -10 118 69 204 -10 b 590 125 451 -10 532 54 l 597 122 l 596 14 b 610 0 596 6 601 0 l 636 0 b 650 14 644 0 650 6 z "},"ű":{"ha":768,"x_min":0,"x_max":0,"o":"m 497 1007 b 489 1024 504 1015 501 1024 l 468 1024 b 451 1015 460 1024 456 1021 l 344 868 b 353 851 338 858 342 851 l 356 851 b 372 860 363 851 367 854 z m 665 1007 b 657 1024 672 1015 669 1024 l 636 1024 b 619 1015 628 1024 624 1021 l 513 868 b 521 851 506 858 510 851 l 524 851 b 540 860 531 851 535 854 z m 649 707 b 635 721 649 717 644 721 l 611 721 b 597 707 603 721 597 717 l 597 211 b 347 40 538 104 454 40 b 171 242 238 40 171 104 l 171 707 b 157 721 171 717 167 721 l 133 721 b 119 707 125 721 119 715 l 119 229 b 333 -10 118 69 204 -10 b 590 125 451 -10 532 54 l 597 122 l 596 14 b 610 0 596 6 601 0 l 636 0 b 650 14 644 0 650 6 z "},"ū":{"ha":768,"x_min":0,"x_max":0,"o":"m 511 958 b 497 972 511 968 507 972 l 269 972 b 256 958 261 972 256 968 l 256 950 b 269 936 256 942 260 936 l 497 936 b 511 950 507 936 511 942 z m 649 707 b 635 721 649 717 644 721 l 611 721 b 597 707 603 721 597 717 l 597 211 b 347 40 538 104 454 40 b 171 242 238 40 171 104 l 171 707 b 157 721 171 717 167 721 l 133 721 b 119 707 125 721 119 715 l 119 229 b 333 -10 118 69 204 -10 b 590 125 451 -10 532 54 l 597 122 l 596 14 b 610 0 596 6 601 0 l 636 0 b 650 14 644 0 650 6 z "},"ů":{"ha":768,"x_min":0,"x_max":0,"o":"m 385 1053 b 282 951 329 1053 282 1013 b 385 849 282 889 329 849 b 486 951 440 849 486 889 b 385 1053 486 1013 440 1053 z m 385 1022 b 456 951 424 1022 456 994 b 385 881 456 908 424 881 b 314 951 346 881 314 908 b 385 1022 314 994 346 1022 z m 649 707 b 635 721 649 717 644 721 l 611 721 b 597 707 603 721 597 717 l 597 211 b 347 40 538 104 454 40 b 171 242 238 40 171 104 l 171 707 b 157 721 171 717 167 721 l 133 721 b 119 707 125 721 119 715 l 119 229 b 333 -10 118 69 204 -10 b 590 125 451 -10 532 54 l 597 122 l 596 14 b 610 0 596 6 601 0 l 636 0 b 650 14 644 0 650 6 z "},"v":{"ha":658,"x_min":0,"x_max":0,"o":"m 619 706 b 608 721 622 714 618 721 l 588 721 b 571 710 579 721 574 717 l 332 57 l 322 57 l 89 710 b 72 721 86 717 81 721 l 50 721 b 39 706 40 721 36 715 l 285 11 b 301 0 288 4 293 0 l 350 0 b 367 11 358 0 364 4 z "},"w":{"ha":1040,"x_min":0,"x_max":0,"o":"m 971 721 b 954 710 963 721 957 717 l 757 61 l 749 61 l 546 710 b 529 721 543 717 538 721 l 507 721 b 490 710 499 721 493 717 l 293 61 l 285 61 l 89 710 b 72 721 86 717 81 721 l 50 721 b 38 706 40 721 35 715 l 247 11 b 264 0 250 4 256 0 l 311 0 b 328 11 319 0 325 4 l 513 622 l 519 622 l 714 11 b 731 0 717 4 722 0 l 776 0 b 793 11 785 0 790 4 l 1003 706 b 990 721 1006 715 1000 721 z "},"ẃ":{"ha":1040,"x_min":0,"x_max":0,"o":"m 661 1029 b 653 1046 668 1038 665 1046 l 632 1046 b 615 1038 624 1046 619 1043 l 508 890 b 517 874 501 881 506 874 l 519 874 b 536 882 526 874 531 876 z m 971 721 b 954 710 963 721 957 717 l 757 61 l 749 61 l 546 710 b 529 721 543 717 538 721 l 507 721 b 490 710 499 721 493 717 l 293 61 l 285 61 l 89 710 b 72 721 86 717 81 721 l 50 721 b 38 706 40 721 35 715 l 247 11 b 264 0 250 4 256 0 l 311 0 b 328 11 319 0 325 4 l 513 622 l 519 622 l 714 11 b 731 0 717 4 722 0 l 776 0 b 793 11 785 0 790 4 l 1003 706 b 990 721 1006 715 1000 721 z "},"ŵ":{"ha":1040,"x_min":0,"x_max":0,"o":"m 515 1008 l 521 1008 l 613 882 b 631 874 618 876 622 874 l 649 874 b 657 890 661 874 664 882 l 540 1032 b 524 1040 535 1038 531 1040 l 513 1040 b 496 1032 506 1040 501 1038 l 379 890 b 388 874 372 882 375 874 l 407 874 b 424 882 415 874 419 876 z m 971 721 b 954 710 963 721 957 717 l 757 61 l 749 61 l 546 710 b 529 721 543 717 538 721 l 507 721 b 490 710 499 721 493 717 l 293 61 l 285 61 l 89 710 b 72 721 86 717 81 721 l 50 721 b 38 706 40 721 35 715 l 247 11 b 264 0 250 4 256 0 l 311 0 b 328 11 319 0 325 4 l 513 622 l 519 622 l 714 11 b 731 0 717 4 722 0 l 776 0 b 793 11 785 0 790 4 l 1003 706 b 990 721 1006 715 1000 721 z "},"ẅ":{"ha":1040,"x_min":0,"x_max":0,"o":"m 476 1006 b 463 1019 476 1015 471 1019 l 450 1019 b 436 1006 442 1019 436 1015 l 436 933 b 450 919 436 925 442 919 l 463 919 b 476 933 472 919 476 925 z m 643 1006 b 629 1019 643 1015 638 1019 l 617 1019 b 603 1006 608 1019 603 1015 l 603 933 b 617 919 603 925 608 919 l 629 919 b 643 933 639 919 643 925 z m 971 721 b 954 710 963 721 957 717 l 757 61 l 749 61 l 546 710 b 529 721 543 717 538 721 l 507 721 b 490 710 499 721 493 717 l 293 61 l 285 61 l 89 710 b 72 721 86 717 81 721 l 50 721 b 38 706 40 721 35 715 l 247 11 b 264 0 250 4 256 0 l 311 0 b 328 11 319 0 325 4 l 513 622 l 519 622 l 714 11 b 731 0 717 4 722 0 l 776 0 b 793 11 785 0 790 4 l 1003 706 b 990 721 1006 715 1000 721 z "},"ẁ":{"ha":1040,"x_min":0,"x_max":0,"o":"m 524 874 b 532 890 535 874 539 881 l 425 1038 b 408 1046 421 1043 417 1046 l 388 1046 b 379 1029 375 1046 372 1038 l 504 882 b 521 874 510 876 514 874 z m 971 721 b 954 710 963 721 957 717 l 757 61 l 749 61 l 546 710 b 529 721 543 717 538 721 l 507 721 b 490 710 499 721 493 717 l 293 61 l 285 61 l 89 710 b 72 721 86 717 81 721 l 50 721 b 38 706 40 721 35 715 l 247 11 b 264 0 250 4 256 0 l 311 0 b 328 11 319 0 325 4 l 513 622 l 519 622 l 714 11 b 731 0 717 4 722 0 l 776 0 b 793 11 785 0 790 4 l 1003 706 b 990 721 1006 715 1000 721 z "},"x":{"ha":693,"x_min":0,"x_max":0,"o":"m 618 0 b 626 17 629 0 633 7 l 382 364 l 622 704 b 614 721 629 714 625 721 l 589 721 b 572 713 581 721 576 718 l 353 406 l 135 713 b 118 721 131 718 126 721 l 93 721 b 85 704 82 721 78 714 l 315 374 l 64 17 b 72 0 57 7 61 0 l 100 0 b 117 8 108 0 113 3 l 344 332 l 572 8 b 589 0 576 3 581 0 z "},"y":{"ha":657,"x_min":0,"x_max":0,"o":"m 585 721 b 569 710 578 721 572 717 l 329 58 l 322 58 l 89 710 b 72 721 86 717 81 721 l 50 721 b 39 706 40 721 36 714 l 300 -21 l 200 -289 b 211 -306 197 -299 201 -306 l 240 -306 b 257 -294 249 -306 254 -301 l 619 706 b 608 721 622 714 618 721 z "},"ý":{"ha":657,"x_min":0,"x_max":0,"o":"m 474 1029 b 465 1046 481 1038 478 1046 l 444 1046 b 428 1038 436 1046 432 1043 l 321 890 b 329 874 314 881 318 874 l 332 874 b 349 882 339 874 343 876 z m 585 721 b 569 710 578 721 572 717 l 329 58 l 322 58 l 89 710 b 72 721 86 717 81 721 l 50 721 b 39 706 40 721 36 714 l 300 -21 l 200 -289 b 211 -306 197 -299 201 -306 l 240 -306 b 257 -294 249 -306 254 -301 l 619 706 b 608 721 622 714 618 721 z "},"ŷ":{"ha":657,"x_min":0,"x_max":0,"o":"m 328 1008 l 333 1008 l 425 882 b 443 874 431 876 435 874 l 461 874 b 469 890 474 874 476 882 l 353 1032 b 336 1040 347 1038 343 1040 l 325 1040 b 308 1032 318 1040 314 1038 l 192 890 b 200 874 185 882 188 874 l 219 874 b 236 882 228 874 232 876 z m 585 721 b 569 710 578 721 572 717 l 329 58 l 322 58 l 89 710 b 72 721 86 717 81 721 l 50 721 b 39 706 40 721 36 714 l 300 -21 l 200 -289 b 211 -306 197 -299 201 -306 l 240 -306 b 257 -294 249 -306 254 -301 l 619 706 b 608 721 622 714 618 721 z "},"ÿ":{"ha":657,"x_min":0,"x_max":0,"o":"m 288 1006 b 274 1019 288 1015 282 1019 l 261 1019 b 247 1006 253 1019 247 1015 l 247 933 b 261 919 247 925 253 919 l 274 919 b 288 933 283 919 288 925 z m 454 1006 b 440 1019 454 1015 449 1019 l 428 1019 b 414 1006 419 1019 414 1015 l 414 933 b 428 919 414 925 419 919 l 440 919 b 454 933 450 919 454 925 z m 585 721 b 569 710 578 721 572 717 l 329 58 l 322 58 l 89 710 b 72 721 86 717 81 721 l 50 721 b 39 706 40 721 36 714 l 300 -21 l 200 -289 b 211 -306 197 -299 201 -306 l 240 -306 b 257 -294 249 -306 254 -301 l 619 706 b 608 721 622 714 618 721 z "},"ỳ":{"ha":657,"x_min":0,"x_max":0,"o":"m 335 874 b 343 890 346 874 350 881 l 236 1038 b 219 1046 232 1043 228 1046 l 199 1046 b 190 1029 186 1046 183 1038 l 315 882 b 332 874 321 876 325 874 z m 585 721 b 569 710 578 721 572 717 l 329 58 l 322 58 l 89 710 b 72 721 86 717 81 721 l 50 721 b 39 706 40 721 36 714 l 300 -21 l 200 -289 b 211 -306 197 -299 201 -306 l 240 -306 b 257 -294 249 -306 254 -301 l 619 706 b 608 721 622 714 618 721 z "},"z":{"ha":692,"x_min":0,"x_max":0,"o":"m 610 707 b 596 721 610 717 604 721 l 110 721 b 96 707 101 721 96 715 l 96 692 b 110 678 96 683 101 678 l 549 678 l 549 674 l 85 49 b 78 35 82 43 78 36 b 78 33 78 33 78 33 l 78 14 b 92 0 78 6 83 0 l 601 0 b 615 14 611 0 615 6 l 615 31 b 601 44 615 40 610 44 l 143 44 l 143 49 l 603 672 b 610 686 607 678 610 686 z "},"ź":{"ha":692,"x_min":0,"x_max":0,"o":"m 488 1029 b 479 1046 494 1038 492 1046 l 458 1046 b 442 1038 450 1046 446 1043 l 335 890 b 343 874 328 881 332 874 l 346 874 b 363 882 353 874 357 876 z m 610 707 b 596 721 610 717 604 721 l 110 721 b 96 707 101 721 96 715 l 96 692 b 110 678 96 683 101 678 l 549 678 l 549 674 l 85 49 b 78 35 82 43 78 36 b 78 33 78 33 78 33 l 78 14 b 92 0 78 6 83 0 l 601 0 b 615 14 611 0 615 6 l 615 31 b 601 44 615 40 610 44 l 143 44 l 143 49 l 603 672 b 610 686 607 678 610 686 z "},"ž":{"ha":692,"x_min":0,"x_max":0,"o":"m 349 875 b 365 883 356 875 360 878 l 482 1025 b 474 1042 489 1033 486 1042 l 454 1042 b 438 1033 446 1042 442 1039 l 346 907 l 340 907 l 249 1033 b 231 1042 243 1039 239 1042 l 213 1042 b 204 1025 200 1042 197 1033 l 321 883 b 338 875 326 878 331 875 z m 143 44 l 143 49 l 603 672 b 610 686 607 678 610 686 l 610 707 b 596 721 610 717 604 721 l 110 721 b 96 707 101 721 96 715 l 96 692 b 110 678 96 683 101 678 l 549 678 l 549 674 l 85 49 b 78 35 82 43 78 36 b 78 33 78 33 78 33 l 78 14 b 92 0 78 6 83 0 l 601 0 b 615 14 611 0 615 6 l 615 31 b 601 44 615 40 610 44 z "},"ż":{"ha":692,"x_min":0,"x_max":0,"o":"m 369 1006 b 356 1019 369 1015 365 1019 l 332 1019 b 318 1006 324 1019 318 1015 l 318 933 b 332 919 318 925 322 919 l 356 919 b 369 933 365 919 369 925 z m 610 707 b 596 721 610 717 604 721 l 110 721 b 96 707 101 721 96 715 l 96 692 b 110 678 96 683 101 678 l 549 678 l 549 674 l 85 49 b 78 35 82 43 78 36 b 78 33 78 33 78 33 l 78 14 b 92 0 78 6 83 0 l 601 0 b 615 14 611 0 615 6 l 615 31 b 601 44 615 40 610 44 l 143 44 l 143 49 l 603 672 b 610 686 607 678 610 686 z "},"⁰":{"ha":425,"x_min":0,"x_max":0,"o":"m 215 1004 b 68 822 128 1004 68 933 b 211 640 68 711 126 640 b 357 826 297 640 357 714 b 215 1004 357 936 300 1004 z m 213 967 b 318 822 274 967 318 917 b 213 676 318 732 275 676 b 107 824 151 676 107 731 b 213 967 107 914 150 967 z "},"¹":{"ha":351,"x_min":0,"x_max":0,"o":"m 242 982 b 228 996 242 992 238 996 l 192 996 b 175 990 185 996 179 994 l 79 915 b 78 896 72 910 72 903 l 83 890 b 104 889 90 883 97 883 l 199 961 l 201 961 l 200 660 b 214 646 200 651 206 646 l 229 646 b 243 660 238 646 243 651 z "},"²":{"ha":439,"x_min":0,"x_max":0,"o":"m 243 1004 b 114 921 174 1004 131 964 b 126 910 111 914 117 910 l 138 910 b 153 921 144 910 150 913 b 240 967 169 951 200 967 b 318 903 292 967 318 940 b 264 815 318 874 301 850 l 117 681 b 111 668 113 676 111 672 l 111 660 b 125 646 111 651 117 646 l 357 646 b 371 660 367 646 371 651 l 371 665 b 357 679 371 675 367 679 l 172 679 l 172 682 l 292 792 b 358 906 338 835 358 868 b 243 1004 358 960 317 1004 z "},"³":{"ha":404,"x_min":0,"x_max":0,"o":"m 250 832 b 322 913 300 844 322 876 b 208 1004 322 963 282 1004 b 82 929 140 1004 100 968 b 93 913 76 919 82 913 l 103 913 b 118 924 110 913 115 917 b 204 968 133 953 164 968 b 285 908 256 968 285 943 b 182 846 285 872 253 846 l 171 846 b 157 832 163 846 157 842 l 157 828 b 171 814 157 819 163 814 l 182 814 b 296 747 257 814 296 789 b 203 674 296 701 261 674 b 111 721 157 674 124 692 b 96 732 108 728 104 732 l 83 732 b 72 717 74 732 68 726 b 204 639 86 675 132 639 b 336 744 286 639 336 683 b 250 832 336 792 300 819 z "},"⁴":{"ha":428,"x_min":0,"x_max":0,"o":"m 360 750 b 346 764 360 760 354 764 l 296 764 l 294 983 b 281 997 294 993 290 997 l 263 997 b 251 992 257 997 254 996 l 72 772 b 68 756 69 768 68 764 l 68 743 b 82 729 68 735 74 729 l 257 729 l 257 660 b 271 646 257 651 263 646 l 282 646 b 296 660 290 646 296 651 l 296 729 l 346 729 b 360 743 356 729 360 735 z m 257 764 l 107 764 l 107 765 l 254 943 l 257 943 z "},"⁵":{"ha":404,"x_min":0,"x_max":0,"o":"m 214 871 b 131 849 183 871 153 863 l 126 849 l 139 963 l 306 963 b 319 976 315 963 319 968 l 319 983 b 306 997 319 993 315 997 l 121 997 b 107 985 113 997 108 993 l 88 828 b 101 813 86 818 92 813 l 114 813 b 132 818 121 813 125 814 b 206 835 150 828 176 835 b 299 754 264 835 299 801 b 203 674 299 704 263 674 b 111 719 158 674 126 692 b 96 731 108 726 103 731 l 85 731 b 72 715 74 731 69 725 b 201 639 88 674 132 639 b 338 756 286 639 338 689 b 214 871 338 822 289 871 z "},"⁶":{"ha":444,"x_min":0,"x_max":0,"o":"m 247 860 b 143 831 207 860 171 847 l 142 831 b 250 969 147 918 185 969 b 324 932 285 969 311 954 b 339 921 326 924 332 921 l 349 921 b 361 936 358 921 364 926 b 249 1004 346 974 306 1004 b 100 803 157 1004 100 931 b 244 639 100 688 167 639 b 376 750 318 639 376 682 b 247 860 376 815 322 860 z m 247 674 b 140 797 190 674 143 707 b 239 826 167 814 203 826 b 339 747 301 826 339 793 b 247 674 339 701 300 674 z "},"⁷":{"ha":393,"x_min":0,"x_max":0,"o":"m 82 997 b 68 983 72 997 68 993 l 68 975 b 82 961 68 967 74 961 l 281 963 l 281 958 b 128 663 225 869 175 771 b 139 646 124 653 128 646 l 156 646 b 171 657 163 646 168 649 b 321 961 217 768 268 871 b 326 976 325 967 326 972 l 326 983 b 313 997 326 993 321 997 z "},"⁸":{"ha":469,"x_min":0,"x_max":0,"o":"m 235 1004 b 118 908 164 1004 118 963 b 178 831 118 871 140 844 l 178 829 b 100 736 133 817 100 783 b 235 639 100 679 154 639 b 369 736 317 639 369 679 b 293 829 369 782 338 817 l 293 831 b 353 908 329 843 353 871 b 235 1004 353 963 306 1004 z m 235 972 b 315 907 283 972 315 944 b 235 844 315 872 285 844 b 154 907 185 844 154 871 b 235 972 154 943 186 972 z m 235 813 b 331 738 293 813 331 781 b 235 671 331 700 294 671 b 139 738 176 671 139 700 b 235 813 139 781 178 813 z "},"⁹":{"ha":447,"x_min":0,"x_max":0,"o":"m 210 1004 b 83 896 140 1004 83 963 b 207 786 83 831 135 786 b 304 815 246 786 278 800 l 308 815 b 197 674 303 726 264 674 b 118 713 160 674 131 689 b 101 722 114 719 108 724 l 92 722 b 81 707 82 722 76 717 b 197 639 96 669 136 639 b 347 840 290 639 347 711 b 210 1004 347 957 281 1004 z m 214 821 b 122 897 156 821 122 853 b 206 969 122 943 157 969 b 308 849 256 969 304 939 b 214 821 282 832 250 821 z "},"*":{"ha":536,"x_min":0,"x_max":0,"o":"m 296 814 l 426 879 b 432 897 435 882 436 889 l 424 914 b 404 918 419 922 413 924 l 282 838 l 292 983 b 279 997 293 992 288 997 l 260 999 b 247 985 251 999 246 993 l 256 838 l 135 919 b 115 915 126 925 119 924 l 106 900 b 110 881 100 892 101 885 l 240 814 l 110 751 b 104 732 101 747 100 740 l 114 715 b 133 711 118 707 125 706 l 256 792 l 244 644 b 257 631 243 636 249 631 l 278 631 b 290 644 286 631 292 636 l 282 790 l 401 710 b 421 714 410 704 417 706 l 431 729 b 426 749 436 738 435 744 z "},"\\":{"ha":486,"x_min":0,"x_max":0,"o":"m 51 1015 b 40 1000 42 1015 38 1008 l 392 11 b 408 0 394 4 400 0 l 435 0 b 446 15 444 0 449 7 l 93 1004 b 76 1015 90 1011 85 1015 z "},"·":{"ha":460,"x_min":0,"x_max":0,"o":"m 260 419 b 246 433 260 429 254 433 l 214 433 b 200 419 206 433 200 428 l 200 339 b 214 325 200 331 206 325 l 246 325 b 260 339 256 325 260 331 z "},"•":{"ha":656,"x_min":0,"x_max":0,"o":"m 328 531 b 200 403 258 531 200 472 b 328 275 200 332 258 275 b 456 403 399 275 456 332 b 328 531 456 472 399 531 z "},":":{"ha":296,"x_min":0,"x_max":0,"o":"m 204 729 b 190 743 204 739 199 743 l 157 743 b 143 729 149 743 143 738 l 143 646 b 157 632 143 638 149 632 l 190 632 b 204 646 200 632 204 638 z m 204 118 b 190 132 204 128 199 132 l 157 132 b 143 118 149 132 143 126 l 143 35 b 157 21 143 26 149 21 l 190 21 b 204 35 200 21 204 26 z "},",":{"ha":372,"x_min":0,"x_max":0,"o":"m 228 93 b 214 107 228 103 222 107 l 178 107 b 164 93 169 107 164 101 l 164 10 b 171 -7 164 3 167 -1 b 154 -129 192 -37 185 -83 b 154 -146 149 -137 149 -143 b 174 -143 161 -151 168 -150 b 228 25 207 -103 228 -58 z "},"…":{"ha":1021,"x_min":0,"x_max":0,"o":"m 204 121 b 190 135 204 131 199 135 l 157 135 b 143 121 149 135 143 129 l 143 38 b 157 24 143 29 149 24 l 190 24 b 204 38 200 24 204 29 z m 567 121 b 553 135 567 131 561 135 l 519 135 b 506 121 511 135 506 129 l 506 38 b 519 24 506 29 511 24 l 553 24 b 567 38 563 24 567 29 z m 929 121 b 915 135 929 131 924 135 l 882 135 b 868 121 874 135 868 129 l 868 38 b 882 24 868 29 874 24 l 915 24 b 929 38 925 24 929 29 z "},"!":{"ha":350,"x_min":0,"x_max":0,"o":"m 203 988 b 189 1001 203 997 199 1001 l 165 1001 b 151 988 156 1001 151 997 l 150 303 b 164 289 150 294 156 289 l 190 289 b 204 303 199 289 204 294 z m 206 97 b 192 111 206 107 200 111 l 158 111 b 144 97 150 111 144 106 l 144 14 b 158 0 144 6 150 0 l 192 0 b 206 14 201 0 206 6 z "},"¡":{"ha":339,"x_min":0,"x_max":0,"o":"m 139 628 b 153 614 139 619 144 614 l 186 614 b 200 628 196 614 200 619 l 200 711 b 186 725 200 721 194 725 l 153 725 b 139 711 144 725 139 721 z m 143 -264 b 157 -278 143 -274 147 -278 l 179 -278 b 193 -264 189 -278 193 -274 l 194 422 b 181 436 194 431 189 436 l 156 436 b 142 422 147 436 142 431 z "},"#":{"ha":1010,"x_min":0,"x_max":0,"o":"m 710 663 l 919 663 b 935 675 928 663 933 667 l 938 690 b 925 706 939 700 935 706 l 718 706 l 779 1000 b 767 1015 781 1010 776 1015 l 750 1015 b 735 1003 742 1015 736 1011 l 674 706 l 396 706 l 457 1000 b 444 1015 458 1010 454 1015 l 428 1015 b 413 1003 419 1015 414 1011 l 351 706 l 150 706 b 135 693 142 706 136 701 l 132 678 b 144 663 131 668 135 663 l 342 663 l 288 401 l 92 401 b 76 389 83 401 78 397 l 72 374 b 85 358 71 364 75 358 l 279 358 l 207 15 b 219 0 206 6 210 0 l 239 0 b 254 13 247 0 253 4 l 325 358 l 601 358 l 531 15 b 543 0 529 6 533 0 l 561 0 b 576 13 569 0 575 4 l 647 358 l 861 358 b 876 371 869 358 875 363 l 879 386 b 867 401 881 396 876 401 l 656 401 z m 664 663 l 610 401 l 333 401 l 388 663 z "},".":{"ha":336,"x_min":0,"x_max":0,"o":"m 197 96 b 183 110 197 106 193 110 l 153 110 b 139 96 144 110 139 106 l 139 14 b 153 0 139 6 144 0 l 183 0 b 197 14 193 0 197 6 z "},"?":{"ha":735,"x_min":0,"x_max":0,"o":"m 382 1004 b 74 788 225 1004 114 917 b 86 774 71 779 76 774 l 110 774 b 126 785 118 774 124 778 b 381 954 160 889 253 954 b 614 743 529 954 614 865 b 324 421 614 608 511 515 b 314 404 317 417 314 411 l 314 257 b 328 243 314 249 319 243 l 354 243 b 368 257 364 243 368 247 l 369 392 b 665 743 546 488 665 589 b 382 1004 665 899 556 1004 z m 365 92 b 351 106 365 101 361 106 l 321 106 b 307 92 313 106 307 100 l 307 11 b 321 -3 307 3 313 -3 l 351 -3 b 365 11 361 -3 365 3 z "},"¿":{"ha":735,"x_min":0,"x_max":0,"o":"m 369 629 b 383 615 369 619 375 615 l 415 615 b 429 629 425 615 429 619 l 429 711 b 415 725 429 721 424 725 l 383 725 b 369 711 375 725 369 719 z m 354 -282 b 661 -65 510 -282 621 -196 b 649 -51 664 -57 658 -51 l 626 -51 b 610 -62 618 -51 613 -56 b 354 -233 575 -168 482 -233 b 122 -22 207 -233 122 -144 b 411 301 122 113 225 206 b 421 318 418 306 421 310 l 422 464 b 408 478 422 472 417 478 l 381 478 b 367 464 371 478 367 474 l 365 329 b 69 -22 189 235 69 132 b 354 -282 69 -176 179 -282 z "},"\"":{"ha":461,"x_min":0,"x_max":0,"o":"m 203 1013 b 189 1028 203 1022 199 1028 l 168 1028 b 153 1015 158 1028 154 1024 l 125 747 b 139 732 124 738 129 732 l 153 732 b 167 744 161 732 165 736 z m 392 1013 b 378 1028 393 1022 388 1028 l 357 1028 b 343 1015 349 1028 344 1024 l 314 747 b 328 732 313 738 318 732 l 343 732 b 357 744 351 732 356 736 z "},"'":{"ha":271,"x_min":0,"x_max":0,"o":"m 203 1013 b 189 1028 203 1022 199 1028 l 168 1028 b 153 1015 158 1028 154 1024 l 125 747 b 139 732 124 738 129 732 l 153 732 b 167 744 161 732 165 736 z "},";":{"ha":360,"x_min":0,"x_max":0,"o":"m 221 729 b 207 743 221 739 215 743 l 174 743 b 160 729 165 743 160 738 l 160 646 b 174 632 160 638 165 632 l 207 632 b 221 646 217 632 221 638 z m 221 93 b 207 107 221 103 215 107 l 172 107 b 158 93 164 107 158 101 l 158 10 b 165 -7 158 3 161 -1 b 147 -131 186 -37 178 -83 b 147 -147 142 -137 142 -143 b 167 -143 154 -151 161 -150 b 221 25 201 -103 221 -58 z "},"/":{"ha":486,"x_min":0,"x_max":0,"o":"m 446 1000 b 435 1015 449 1008 444 1015 l 408 1015 b 392 1004 400 1015 394 1011 l 40 15 b 51 0 38 7 42 0 l 78 0 b 94 11 86 0 92 4 z "},"_":{"ha":772,"x_min":0,"x_max":0,"o":"m 694 -156 b 681 -142 694 -146 689 -142 l 92 -142 b 78 -156 83 -142 78 -147 l 78 -164 b 92 -178 78 -174 83 -178 l 681 -178 b 694 -164 690 -178 694 -172 z "},"{":{"ha":547,"x_min":0,"x_max":0,"o":"m 450 1028 b 436 1042 450 1038 446 1042 l 418 1042 b 233 844 297 1042 233 996 l 233 557 b 150 392 233 447 218 413 b 138 376 142 390 138 385 l 138 358 b 150 343 138 350 142 344 b 233 176 218 322 233 285 l 233 -111 b 418 -310 233 -264 297 -310 l 436 -310 b 450 -296 446 -310 450 -304 l 450 -279 b 436 -265 450 -271 446 -265 l 428 -265 b 282 -106 326 -265 282 -231 l 282 190 b 206 364 282 306 254 340 l 206 369 b 282 542 254 394 282 425 l 282 836 b 428 997 282 963 326 997 l 436 997 b 450 1011 446 997 450 1003 z "},"}":{"ha":547,"x_min":0,"x_max":0,"o":"m 97 -296 b 111 -310 97 -306 101 -310 l 129 -310 b 314 -112 250 -310 314 -264 l 314 175 b 397 340 314 283 329 319 b 410 356 406 342 410 347 l 410 374 b 397 389 410 382 406 388 b 314 556 329 410 314 446 l 314 843 b 129 1042 314 994 250 1042 l 111 1042 b 97 1028 103 1042 97 1036 l 97 1011 b 111 997 97 1003 103 997 l 119 997 b 265 836 221 997 265 963 l 265 542 b 342 368 265 426 293 392 l 342 363 b 265 190 293 338 265 307 l 265 -106 b 119 -265 265 -231 221 -265 l 111 -265 b 97 -279 103 -265 97 -271 z "},"[":{"ha":517,"x_min":0,"x_max":0,"o":"m 188 971 l 406 971 b 419 985 415 971 419 976 l 419 1000 b 406 1014 419 1010 415 1014 l 153 1014 b 139 1000 143 1014 139 1010 l 138 -292 b 151 -306 138 -300 143 -306 l 406 -306 b 419 -292 415 -306 419 -300 l 419 -276 b 406 -262 419 -268 414 -262 l 189 -262 z "},"]":{"ha":517,"x_min":0,"x_max":0,"o":"m 111 1014 b 97 1000 101 1014 97 1008 l 97 985 b 111 971 97 976 103 971 l 328 971 l 329 -262 l 111 -262 b 97 -276 101 -262 97 -268 l 97 -292 b 111 -306 97 -301 101 -306 l 364 -306 b 378 -292 374 -306 378 -301 l 379 1000 b 365 1014 379 1008 374 1014 z "},"(":{"ha":576,"x_min":0,"x_max":0,"o":"m 449 1026 b 429 1025 442 1031 436 1031 b 161 360 263 869 161 624 b 429 -307 161 97 263 -150 b 449 -307 436 -312 442 -312 l 453 -304 b 456 -285 461 -299 461 -292 b 215 360 299 -114 215 108 b 456 1004 215 611 299 833 b 453 1024 461 1011 461 1018 z "},")":{"ha":576,"x_min":0,"x_max":0,"o":"m 128 -307 b 147 -307 135 -312 140 -312 b 415 360 313 -150 415 97 b 147 1025 415 624 313 869 b 128 1026 140 1031 135 1031 l 124 1024 b 121 1004 115 1018 115 1011 b 361 360 278 833 361 610 b 121 -285 361 107 278 -114 b 124 -304 115 -292 115 -299 z "},"—":{"ha":1138,"x_min":0,"x_max":0,"o":"m 981 396 b 967 410 981 406 976 410 l 171 410 b 157 396 163 410 157 406 l 157 378 b 171 364 157 369 161 364 l 967 364 b 981 378 976 364 981 369 z "},"–":{"ha":932,"x_min":0,"x_max":0,"o":"m 775 397 b 761 411 775 407 771 411 l 171 411 b 157 397 163 411 157 407 l 157 379 b 171 365 157 371 161 365 l 761 365 b 775 379 771 365 775 371 z "},"-":{"ha":744,"x_min":0,"x_max":0,"o":"m 578 407 b 564 421 578 417 574 421 l 181 421 b 167 407 172 421 167 417 l 167 389 b 181 375 167 381 171 375 l 564 375 b 578 389 574 375 578 381 z "},"«":{"ha":810,"x_min":0,"x_max":0,"o":"m 117 331 b 126 314 117 322 119 318 l 378 150 b 394 158 388 143 394 147 l 394 178 b 385 194 394 186 392 190 l 156 344 l 385 494 b 394 511 392 499 394 503 l 394 532 b 378 540 394 543 388 547 l 126 375 b 117 358 119 371 117 367 z m 693 532 b 676 540 693 543 686 547 l 425 375 b 415 358 418 371 415 367 l 415 331 b 425 314 415 322 418 318 l 676 150 b 693 158 686 143 693 147 l 693 178 b 683 194 693 186 690 190 l 454 344 l 683 494 b 693 511 690 499 693 503 z "},"»":{"ha":810,"x_min":0,"x_max":0,"o":"m 117 513 b 126 496 117 504 119 500 l 356 346 l 126 196 b 117 179 119 192 117 188 l 117 158 b 133 150 117 147 124 143 l 385 315 b 394 332 392 319 394 324 l 394 360 b 385 376 394 368 392 372 l 133 540 b 117 532 124 547 117 543 z m 432 540 b 415 532 422 547 415 543 l 415 513 b 425 496 415 504 418 500 l 654 346 l 425 196 b 415 179 418 192 415 188 l 415 158 b 432 150 415 147 422 143 l 683 315 b 693 332 690 319 693 324 l 693 360 b 683 376 693 368 690 372 z "},"‹":{"ha":513,"x_min":0,"x_max":0,"o":"m 394 532 b 378 540 394 543 388 547 l 126 375 b 117 358 119 371 117 367 l 117 331 b 126 314 117 322 119 318 l 378 150 b 394 158 388 143 394 147 l 394 178 b 385 194 394 186 392 190 l 156 344 l 385 494 b 394 511 392 499 394 503 z "},"›":{"ha":513,"x_min":0,"x_max":0,"o":"m 133 540 b 117 532 124 547 117 543 l 117 513 b 126 496 117 504 119 500 l 356 346 l 126 196 b 117 179 119 192 117 188 l 117 158 b 133 150 117 147 124 143 l 385 315 b 394 332 392 319 394 324 l 394 360 b 385 376 394 368 392 372 z "},"„":{"ha":417,"x_min":0,"x_max":0,"o":"m 178 107 b 164 93 169 107 164 101 l 164 10 b 171 -7 164 3 167 -1 b 154 -129 192 -37 185 -83 b 154 -146 149 -137 149 -143 b 174 -143 161 -151 168 -150 b 228 25 207 -103 228 -58 l 228 93 b 214 107 228 103 224 107 z "},"“":{"ha":447,"x_min":0,"x_max":0,"o":"m 101 768 b 115 754 101 760 107 754 l 151 754 b 165 768 161 754 165 760 l 165 851 b 158 868 165 858 163 863 b 175 990 138 899 144 944 b 175 1007 181 999 181 1004 b 156 1004 168 1013 161 1011 b 101 836 122 964 101 919 z m 275 768 b 289 754 275 760 281 754 l 325 754 b 339 768 335 754 339 760 l 339 851 b 332 868 339 858 336 863 b 349 990 311 899 318 944 b 349 1007 354 999 354 1004 b 329 1004 342 1013 335 1011 b 275 836 296 964 275 919 z "},"”":{"ha":425,"x_min":0,"x_max":0,"o":"m 172 983 b 158 997 172 993 167 997 l 124 997 b 110 983 115 997 110 992 l 110 900 b 117 883 110 893 113 889 b 99 761 138 853 129 807 b 99 744 93 753 93 747 b 118 747 106 739 113 740 b 172 917 153 789 172 832 z m 346 983 b 332 997 346 993 340 997 l 297 997 b 283 983 289 997 283 992 l 283 900 b 290 883 283 893 286 889 b 272 761 311 853 303 807 b 272 744 267 753 267 747 b 292 747 279 739 286 740 b 346 917 326 789 346 832 z "},"‘":{"ha":274,"x_min":0,"x_max":0,"o":"m 101 768 b 115 754 101 760 107 754 l 150 754 b 164 768 160 754 164 760 l 164 851 b 158 868 164 858 161 863 b 175 992 138 899 144 944 b 175 1008 181 999 181 1004 b 156 1004 168 1013 161 1011 b 101 836 121 964 101 919 z "},"’":{"ha":250,"x_min":0,"x_max":0,"o":"m 172 986 b 158 1000 172 996 167 1000 l 122 1000 b 108 986 114 1000 108 994 l 108 903 b 115 886 108 896 111 892 b 99 764 136 856 129 810 b 99 747 93 756 93 750 b 118 750 106 743 113 743 b 172 918 151 792 172 835 z "},"‚":{"ha":417,"x_min":0,"x_max":0,"o":"m 228 93 b 214 107 228 103 222 107 l 178 107 b 164 93 169 107 164 101 l 164 10 b 171 -7 164 3 167 -1 b 154 -129 192 -37 185 -83 b 154 -146 149 -137 149 -143 b 174 -143 161 -151 168 -150 b 228 25 207 -103 228 -58 z "}," ":{"ha":310,"x_min":0,"x_max":0,"o":""},"¢":{"ha":713,"x_min":0,"x_max":0,"o":"m 394 157 b 129 475 218 157 129 299 b 392 800 129 657 218 800 b 617 663 503 800 578 746 b 632 651 619 654 625 651 l 657 651 b 668 668 667 651 671 658 b 415 846 626 768 542 839 l 419 1015 b 406 1029 419 1024 414 1029 l 388 1029 b 374 1015 379 1029 374 1024 l 376 847 b 78 474 193 839 78 689 b 376 110 78 265 192 117 l 374 -53 b 388 -67 374 -61 379 -67 l 406 -67 b 419 -53 414 -67 419 -61 l 415 111 b 667 281 542 118 624 188 b 656 297 671 290 667 297 l 631 297 b 615 286 624 297 618 294 b 394 157 578 210 504 157 z "},"¤":{"ha":929,"x_min":0,"x_max":0,"o":"m 675 365 b 628 499 675 417 658 463 l 711 582 b 711 601 718 589 718 594 l 701 611 b 682 611 694 618 689 618 l 599 529 b 464 578 563 560 515 578 b 331 529 413 578 367 560 l 249 611 b 229 611 242 618 236 618 l 218 601 b 218 582 213 594 211 588 l 300 499 b 253 365 271 463 253 417 b 301 231 253 314 271 267 l 218 146 b 218 126 211 139 211 133 l 229 115 b 249 115 236 108 242 110 l 332 200 b 464 154 368 171 414 154 b 597 200 514 154 561 172 l 682 115 b 701 115 688 110 694 110 l 711 126 b 711 146 718 133 718 139 l 628 231 b 675 365 657 268 675 314 z m 464 194 b 293 365 369 194 293 272 b 464 538 293 460 369 538 b 636 365 557 538 636 460 b 464 194 636 272 557 194 z "},"$":{"ha":825,"x_min":0,"x_max":0,"o":"m 407 550 b 160 743 254 594 160 635 b 406 911 160 844 257 911 b 681 760 565 911 647 826 b 697 750 685 753 690 750 l 721 750 b 732 765 731 750 736 757 b 436 954 700 840 611 944 l 439 1121 b 425 1135 439 1129 433 1135 l 406 1135 b 392 1121 397 1135 392 1129 l 396 954 b 110 736 228 949 108 867 b 379 507 111 613 210 557 l 444 488 b 707 268 614 438 707 379 b 442 82 707 150 601 82 b 124 267 242 82 156 183 b 107 278 121 275 115 278 l 85 278 b 72 263 74 278 69 272 b 396 40 100 169 193 56 l 392 -119 b 406 -133 392 -128 397 -133 l 425 -133 b 439 -119 433 -133 439 -128 l 436 39 l 440 39 b 758 275 636 39 758 131 b 472 531 758 403 664 475 z "},"€":{"ha":890,"x_min":0,"x_max":0,"o":"m 614 39 b 225 406 406 39 257 185 l 560 410 b 574 424 569 410 574 414 l 574 439 b 560 453 574 447 568 453 l 219 449 b 218 501 218 467 218 483 b 221 567 218 524 219 546 l 560 571 b 574 585 569 571 574 575 l 574 600 b 560 614 574 608 568 614 l 226 610 b 617 961 264 826 414 961 b 756 939 665 961 711 953 b 774 949 765 936 771 939 l 779 969 b 769 986 781 978 778 983 b 619 1010 718 1003 669 1010 b 175 610 386 1010 215 851 l 82 608 b 68 594 72 608 68 604 l 68 579 b 82 565 68 571 74 565 l 169 567 b 167 499 168 544 167 522 b 168 449 167 482 167 465 l 82 447 b 68 433 72 447 68 443 l 68 418 b 82 404 68 410 74 404 l 172 406 b 611 -11 206 158 372 -11 b 769 18 665 -11 717 -3 b 779 36 778 22 781 28 l 775 53 b 757 63 772 61 765 65 b 614 39 710 46 664 39 z "},"£":{"ha":857,"x_min":0,"x_max":0,"o":"m 190 47 l 190 53 b 263 242 238 90 263 142 l 263 463 l 533 463 b 547 476 543 463 547 467 l 547 494 b 533 508 547 504 543 508 l 263 508 l 263 710 b 474 957 261 871 340 957 b 693 786 596 957 668 886 b 708 774 694 778 700 774 l 733 774 b 744 789 743 774 747 779 b 476 1004 711 918 619 1004 b 211 714 318 1004 211 903 l 211 508 l 150 508 b 136 494 142 508 136 504 l 136 476 b 150 463 136 468 140 463 l 211 463 l 211 251 b 118 49 211 142 194 101 b 108 32 111 44 108 40 l 108 14 b 122 0 108 4 113 0 l 735 -1 b 749 13 743 -1 749 4 l 749 35 b 735 49 749 43 743 49 z "},"¥":{"ha":797,"x_min":0,"x_max":0,"o":"m 449 493 l 761 981 b 753 997 768 990 764 997 l 729 997 b 713 988 721 997 717 994 l 403 513 l 397 513 l 86 988 b 69 997 82 994 78 997 l 44 997 b 36 981 33 997 29 990 l 351 493 l 210 493 b 196 479 200 493 196 488 l 196 464 b 210 450 196 456 200 450 l 374 450 l 372 343 l 210 343 b 196 329 201 343 196 338 l 196 314 b 210 300 196 306 200 300 l 372 300 l 371 14 b 385 0 371 6 376 0 l 414 0 b 428 14 422 0 428 6 l 426 300 l 593 300 b 607 314 603 300 607 306 l 607 329 b 593 343 607 339 603 343 l 426 343 l 425 450 l 593 450 b 607 464 603 450 607 456 l 607 479 b 593 493 607 489 603 493 z "},"~":{"ha":708,"x_min":0,"x_max":0,"o":"m 263 481 b 165 371 197 481 169 429 b 179 358 165 363 171 358 l 193 358 b 207 372 203 358 207 363 b 263 439 210 410 224 439 b 443 336 331 439 354 336 b 536 444 504 336 532 383 b 522 458 536 453 531 458 l 507 458 b 493 444 497 458 493 453 b 443 378 492 404 481 378 b 263 481 374 378 350 481 z "},"÷":{"ha":951,"x_min":0,"x_max":0,"o":"m 518 635 b 504 649 518 644 514 649 l 474 649 b 460 635 465 649 460 643 l 460 554 b 474 540 460 546 465 540 l 504 540 b 518 554 514 540 518 546 z m 783 382 b 769 396 783 392 778 396 l 181 396 b 167 382 172 396 167 390 l 167 365 b 181 351 167 357 172 351 l 769 351 b 783 365 779 351 783 357 z m 518 182 b 504 196 518 192 514 196 l 474 196 b 460 182 465 196 460 192 l 460 100 b 474 86 460 92 465 86 l 504 86 b 518 100 514 86 518 92 z "},"=":{"ha":939,"x_min":0,"x_max":0,"o":"m 775 521 b 761 535 775 531 769 535 l 181 535 b 167 521 172 535 167 531 l 167 503 b 181 489 167 494 172 489 l 761 489 b 775 503 771 489 775 494 z m 775 233 b 761 247 775 243 769 247 l 181 247 b 167 233 172 247 167 242 l 167 217 b 181 203 167 208 172 203 l 761 203 b 775 217 771 203 775 208 z "},">":{"ha":993,"x_min":0,"x_max":0,"o":"m 183 682 b 167 671 174 686 167 682 l 167 651 b 176 636 167 644 169 639 l 776 361 l 176 85 b 167 69 169 82 167 76 l 167 51 b 183 40 167 40 174 36 l 817 335 b 826 350 824 338 826 343 l 826 374 b 817 389 826 381 824 386 z "},"≥":{"ha":917,"x_min":0,"x_max":0,"o":"m 182 681 b 167 669 174 683 167 679 l 167 654 b 178 638 167 646 171 640 l 692 454 l 178 279 b 167 263 171 276 167 271 l 167 249 b 182 238 167 239 172 235 l 739 429 b 750 446 746 432 750 438 l 750 461 b 739 478 750 469 746 475 z m 167 100 b 181 86 167 92 171 86 l 736 86 b 750 100 746 86 750 92 l 750 115 b 736 129 750 125 746 129 l 181 129 b 167 115 172 129 167 125 z "},"∞":{"ha":1503,"x_min":0,"x_max":0,"o":"m 1076 692 b 753 449 939 692 854 599 b 428 692 649 603 565 692 b 167 413 268 692 167 574 b 421 136 167 256 264 136 b 749 374 554 136 644 222 b 1078 136 856 218 946 136 b 1336 413 1238 136 1336 256 b 1076 692 1336 574 1235 692 z m 425 185 b 217 415 300 185 217 285 b 425 643 217 546 303 643 b 719 414 542 643 624 557 b 425 185 633 275 543 185 z m 1076 183 b 782 414 960 183 871 269 b 1076 642 875 550 958 642 b 1283 410 1199 642 1283 543 b 1076 183 1283 281 1203 183 z "},"<":{"ha":993,"x_min":0,"x_max":0,"o":"m 826 671 b 810 682 826 682 819 686 l 176 388 b 167 372 169 385 167 379 l 167 349 b 176 333 167 342 169 336 l 810 40 b 826 51 819 36 826 40 l 826 69 b 817 85 826 76 824 82 l 217 361 l 817 636 b 826 651 824 639 826 644 z "},"≤":{"ha":917,"x_min":0,"x_max":0,"o":"m 750 669 b 735 681 750 679 743 683 l 178 478 b 167 461 171 475 167 469 l 167 446 b 178 429 167 438 171 432 l 735 238 b 750 249 744 235 750 239 l 750 263 b 739 279 750 271 746 276 l 225 454 l 739 638 b 750 654 746 640 750 646 z m 167 100 b 181 86 167 92 171 86 l 736 86 b 750 100 746 86 750 92 l 750 115 b 736 129 750 125 746 129 l 181 129 b 167 115 172 129 167 125 z "},"µ":{"ha":769,"x_min":0,"x_max":0,"o":"m 636 0 b 650 14 644 0 650 6 l 649 707 b 635 721 649 717 644 721 l 613 721 b 599 707 603 721 599 717 l 597 211 b 347 40 538 104 456 40 b 172 215 246 40 181 96 l 171 707 b 157 721 171 717 167 721 l 133 721 b 119 707 124 721 119 717 l 119 -292 b 133 -306 119 -300 124 -306 l 161 -306 b 175 -292 169 -306 175 -301 b 164 67 175 -176 172 -50 b 335 -10 201 15 261 -10 b 590 125 451 -10 533 54 l 597 122 l 597 14 b 611 0 597 6 601 0 z "},"−":{"ha":951,"x_min":0,"x_max":0,"o":"m 797 383 b 783 397 797 393 792 397 l 194 397 b 181 383 186 397 181 393 l 181 365 b 194 351 181 357 186 351 l 783 351 b 797 365 793 351 797 357 z "},"×":{"ha":846,"x_min":0,"x_max":0,"o":"m 453 347 l 669 564 b 669 583 676 571 676 576 l 660 593 b 640 593 653 600 647 600 l 424 376 l 206 593 b 186 593 199 600 193 600 l 176 583 b 176 564 169 576 169 571 l 394 347 l 176 129 b 176 110 169 122 169 117 l 186 100 b 206 100 193 93 199 93 l 424 318 l 640 100 b 660 100 647 93 653 93 l 669 110 b 669 129 676 117 676 122 z "},"≠":{"ha":939,"x_min":0,"x_max":0,"o":"m 547 489 l 761 489 b 775 503 771 489 775 493 l 775 521 b 761 535 775 531 771 535 l 568 535 l 664 739 b 654 756 669 749 665 756 l 636 756 b 621 746 629 756 624 753 l 521 535 l 181 535 b 167 521 171 535 167 531 l 167 503 b 181 489 167 494 171 489 l 500 489 l 386 247 l 181 247 b 167 233 172 247 167 242 l 167 217 b 181 203 167 208 172 203 l 365 203 l 257 -28 b 267 -44 251 -37 256 -44 l 286 -44 b 301 -35 293 -44 299 -42 l 413 203 l 761 203 b 775 217 771 203 775 208 l 775 233 b 761 247 775 243 769 247 l 433 247 z "},"%":{"ha":1004,"x_min":0,"x_max":0,"o":"m 225 1040 b 68 883 139 1040 68 969 b 225 726 68 796 139 726 b 382 883 311 726 382 796 b 225 1040 382 969 311 1040 z m 804 999 b 796 1015 811 1008 807 1015 l 775 1015 b 758 1006 767 1015 763 1013 l 118 17 b 126 0 111 7 115 0 l 147 0 b 164 10 156 0 160 3 z m 225 999 b 342 883 288 999 342 947 b 225 768 342 819 288 768 b 110 883 161 768 110 819 b 225 999 110 947 161 999 z m 781 321 b 622 164 693 321 622 250 b 781 6 622 76 693 6 b 938 164 867 6 938 76 b 781 321 938 250 867 321 z m 781 279 b 896 164 843 279 896 228 b 781 49 896 100 843 49 b 665 164 717 49 665 100 b 781 279 665 228 717 279 z "},"‰":{"ha":1369,"x_min":0,"x_max":0,"o":"m 225 1040 b 68 883 139 1040 68 969 b 225 726 68 796 139 726 b 382 883 311 726 382 796 b 225 1040 382 969 311 1040 z m 804 999 b 796 1015 811 1008 807 1015 l 775 1015 b 758 1006 767 1015 763 1013 l 118 17 b 126 0 111 7 115 0 l 147 0 b 164 10 156 0 160 3 z m 225 999 b 342 883 288 999 342 947 b 225 768 342 819 288 768 b 110 883 161 768 110 819 b 225 999 110 947 161 999 z m 781 321 b 622 164 693 321 622 250 b 781 6 622 76 693 6 b 938 164 867 6 938 76 b 781 321 938 250 867 321 z m 1144 321 b 988 164 1057 321 988 250 b 1144 6 988 76 1057 6 b 1301 164 1231 6 1301 76 b 1144 321 1301 250 1231 321 z m 781 279 b 896 164 843 279 896 228 b 781 49 896 100 843 49 b 665 164 717 49 665 100 b 781 279 665 228 717 279 z m 1144 279 b 1260 164 1207 279 1260 228 b 1144 49 1260 100 1207 49 b 1029 164 1081 49 1029 100 b 1144 279 1029 228 1081 279 z "},"+":{"ha":968,"x_min":0,"x_max":0,"o":"m 801 365 b 788 379 801 374 796 379 l 508 379 l 508 661 b 494 675 508 671 504 675 l 476 675 b 463 661 468 675 463 669 l 463 379 l 181 379 b 167 365 172 379 167 374 l 167 350 b 181 336 167 342 172 336 l 463 336 l 463 54 b 476 40 463 46 467 40 l 494 40 b 508 54 504 40 508 46 l 508 336 l 788 336 b 801 350 797 336 801 340 z "},"":{"ha":824,"x_min":0,"x_max":0,"o":"m 549 742 b 450 688 513 738 475 717 b 411 585 431 663 408 624 b 425 572 411 576 417 571 b 521 626 461 574 499 596 b 563 729 546 654 560 690 b 549 742 563 738 557 743 z m 558 563 b 417 529 499 563 444 529 b 294 563 386 529 343 564 b 140 469 231 561 174 524 b 108 336 118 429 108 383 b 186 93 110 247 144 153 b 306 -1 218 47 254 -1 b 428 29 350 -1 368 29 b 549 -1 483 29 501 -1 b 663 92 600 -1 633 46 b 711 183 690 129 704 165 b 703 201 714 192 711 197 b 614 346 678 217 617 260 b 683 481 614 421 661 465 b 688 501 692 486 693 493 b 558 563 646 557 583 563 z "},"|":{"ha":464,"x_min":0,"x_max":0,"o":"m 256 1063 b 242 1076 256 1072 251 1076 l 222 1076 b 208 1063 213 1076 208 1072 l 207 -326 b 221 -340 207 -335 213 -340 l 243 -340 b 257 -326 251 -340 257 -335 z "},"@":{"ha":1174,"x_min":0,"x_max":0,"o":"m 611 854 b 108 368 331 854 108 665 b 613 -114 108 78 321 -114 b 799 -87 653 -114 725 -110 b 811 -71 807 -85 811 -79 l 810 -56 b 793 -44 808 -46 803 -42 b 618 -68 728 -64 660 -68 b 157 371 338 -68 157 117 b 611 807 157 640 360 807 b 1018 404 851 807 1018 656 b 878 203 1018 281 978 203 b 760 381 819 203 760 231 l 760 556 b 746 569 760 565 756 569 l 726 569 b 713 556 718 569 713 564 l 713 497 l 708 497 b 571 578 679 553 629 578 b 386 363 461 578 386 489 b 561 157 386 240 456 157 b 722 271 632 157 696 193 l 728 271 b 876 156 742 208 788 156 b 1065 411 999 156 1065 251 b 611 854 1065 674 886 854 z m 574 533 b 710 382 646 533 704 483 l 710 360 b 572 203 706 260 651 203 b 433 367 490 203 433 264 b 574 533 433 465 488 533 z "},"&":{"ha":921,"x_min":0,"x_max":0,"o":"m 831 0 b 839 17 843 0 846 8 l 731 149 b 772 328 757 197 772 257 b 764 428 772 358 769 390 b 749 440 763 436 757 440 l 729 440 b 717 425 719 440 715 435 b 724 333 721 386 724 356 b 697 190 724 278 714 231 l 422 526 b 656 815 569 619 656 693 b 439 1025 656 931 581 1025 b 213 814 300 1025 213 935 b 346 540 213 707 283 615 b 108 240 194 450 108 364 b 422 -11 108 90 232 -11 b 701 104 542 -11 639 28 l 779 8 b 796 0 785 3 789 0 z m 438 982 b 606 817 542 982 606 911 b 393 561 606 708 521 643 b 263 814 335 629 263 719 b 438 982 263 907 332 982 z m 426 33 b 160 240 260 33 160 121 b 376 506 160 338 225 413 l 671 142 b 426 33 619 69 533 33 z "},"¶":{"ha":903,"x_min":0,"x_max":0,"o":"m 363 856 b 78 590 188 856 78 746 b 363 321 78 433 188 321 l 474 321 l 474 -125 b 488 -139 474 -135 478 -139 l 511 -139 b 525 -125 519 -139 525 -133 l 524 842 b 510 856 524 851 519 856 z m 744 842 b 731 856 744 851 740 856 l 707 856 b 693 842 699 856 693 850 l 693 -125 b 707 -139 693 -135 699 -139 l 732 -139 b 746 -125 740 -139 746 -133 z "},"©":{"ha":1219,"x_min":0,"x_max":0,"o":"m 610 1003 b 108 500 333 1003 108 804 b 610 -6 108 194 333 -6 b 1111 500 888 -6 1111 194 b 610 1003 1111 804 888 1003 z m 611 965 b 1074 500 865 965 1074 781 b 611 33 1074 217 865 33 b 146 500 356 33 146 217 b 611 965 146 781 356 965 z m 615 794 b 354 497 456 794 354 672 b 614 199 354 322 454 199 b 839 340 726 199 801 257 b 828 357 843 350 839 357 l 817 357 b 801 347 810 357 804 354 b 615 236 769 282 708 236 b 394 499 469 236 394 354 b 614 757 394 642 469 757 b 801 644 707 757 768 713 b 817 633 804 636 810 633 l 829 633 b 840 650 839 633 843 640 b 615 794 803 735 728 794 z "},"®":{"ha":669,"x_min":0,"x_max":0,"o":"m 335 1031 b 115 810 215 1031 115 932 b 335 590 115 690 215 590 b 554 810 457 590 554 690 b 335 1031 554 932 457 1031 z m 335 625 b 149 811 232 625 149 708 b 335 997 149 914 232 997 b 521 811 436 997 521 914 b 335 625 521 708 436 625 z m 417 854 b 349 911 417 886 390 911 l 276 911 b 263 897 268 911 263 906 l 263 722 b 276 708 263 714 267 708 l 279 708 b 293 722 289 708 293 714 l 293 796 l 329 796 l 385 717 b 401 708 389 711 393 708 l 404 708 b 414 725 417 708 419 715 l 364 797 b 417 854 397 803 417 825 z m 293 822 l 293 885 l 346 885 b 386 851 371 885 386 872 b 346 822 386 833 372 822 z "},"§":{"ha":740,"x_min":0,"x_max":0,"o":"m 524 306 b 632 476 589 339 632 399 b 407 686 632 572 568 633 l 379 696 b 192 849 265 735 192 765 b 372 982 192 931 264 982 b 569 864 479 982 536 932 b 585 854 572 857 578 854 l 607 854 b 618 869 617 854 622 860 b 374 1029 588 950 519 1029 b 140 843 235 1029 140 957 b 268 685 140 763 188 721 b 140 510 193 650 140 590 b 350 321 140 407 224 368 l 376 313 b 578 138 513 263 578 224 b 390 -7 578 40 493 -7 b 165 131 283 -7 200 43 b 149 142 163 138 157 142 l 125 142 b 114 126 115 142 110 136 b 388 -56 154 7 256 -56 b 632 143 536 -56 632 22 b 524 306 632 218 596 265 z m 379 365 b 192 515 267 406 192 432 b 321 664 192 586 246 633 l 376 643 b 578 469 504 597 578 557 b 474 329 578 401 533 358 b 407 356 453 339 431 347 z "},"™":{"ha":874,"x_min":0,"x_max":0,"o":"m 378 983 b 364 997 378 993 372 997 l 125 997 b 111 983 117 997 111 992 l 111 979 b 125 965 111 971 117 965 l 226 965 l 226 660 b 240 646 226 651 232 646 l 250 646 b 264 660 258 646 264 651 l 263 965 l 364 965 b 378 979 374 965 378 969 z m 753 983 b 739 997 753 993 749 997 l 717 997 b 701 986 710 997 704 993 l 593 699 l 589 699 l 483 986 b 467 997 481 993 475 997 l 443 997 b 429 983 433 997 429 993 l 421 660 b 435 646 421 651 426 646 l 442 646 b 456 660 451 646 456 650 l 461 943 l 463 943 l 569 657 b 585 646 572 650 578 646 l 597 646 b 614 657 606 646 611 650 l 719 943 l 721 943 l 728 660 b 742 646 728 650 732 646 l 749 646 b 763 660 757 646 763 651 z "},"°":{"ha":536,"x_min":0,"x_max":0,"o":"m 268 1031 b 111 874 182 1031 111 960 b 268 717 111 786 182 717 b 425 874 354 717 425 786 b 268 1031 425 960 354 1031 z m 268 989 b 385 874 331 989 385 938 b 268 758 385 810 331 758 b 153 874 204 758 153 810 b 268 989 153 938 204 989 z "},"^":{"ha":989,"x_min":0,"x_max":0,"o":"m 804 263 b 815 279 815 263 819 269 l 522 913 b 507 922 519 919 514 922 l 483 922 b 468 913 476 922 471 919 l 174 279 b 185 263 169 269 174 263 l 203 263 b 218 272 210 263 215 265 l 494 872 l 769 272 b 785 263 772 265 778 263 z "},"†":{"ha":786,"x_min":0,"x_max":0,"o":"m 619 415 b 606 429 619 425 615 429 l 414 429 l 414 668 b 400 682 414 678 408 682 l 388 682 b 374 668 378 682 374 678 l 374 429 l 181 429 b 167 415 172 429 167 424 l 167 403 b 181 389 167 394 171 389 l 374 389 l 372 -250 b 386 -264 372 -258 378 -264 l 400 -264 b 414 -250 410 -264 414 -260 l 414 389 l 606 389 b 619 403 615 389 619 394 z "},"‡":{"ha":786,"x_min":0,"x_max":0,"o":"m 414 389 l 606 389 b 619 403 615 389 619 394 l 619 415 b 606 429 619 425 615 429 l 414 429 l 414 668 b 400 682 414 678 408 682 l 388 682 b 374 668 378 682 374 678 l 374 429 l 181 429 b 167 415 172 429 167 424 l 167 403 b 181 389 167 394 171 389 l 374 389 l 372 93 l 181 93 b 167 79 172 93 167 88 l 167 67 b 181 53 167 58 172 53 l 372 53 l 372 -250 b 386 -264 372 -258 378 -264 l 400 -264 b 414 -250 410 -264 414 -258 l 414 53 l 606 53 b 619 67 615 53 619 58 l 619 79 b 606 93 619 89 615 93 l 414 93 z "},"´":{"ha":469,"x_min":0,"x_max":0,"o":"m 310 1029 b 301 1046 317 1038 314 1046 l 281 1046 b 264 1038 272 1046 268 1043 l 157 890 b 165 874 150 881 154 874 l 168 874 b 185 882 175 874 179 876 z "},"˘":{"ha":582,"x_min":0,"x_max":0,"o":"m 436 1003 b 422 1017 436 1013 431 1017 l 413 1017 b 399 1003 404 1017 399 1013 l 399 1000 b 290 901 399 928 353 901 b 182 1000 228 901 182 928 l 182 1003 b 168 1017 182 1013 176 1017 l 158 1017 b 144 1003 150 1017 144 1013 l 144 1000 b 290 865 144 908 207 865 b 436 1000 374 865 436 908 z "},"ˇ":{"ha":594,"x_min":0,"x_max":0,"o":"m 410 1036 b 392 1028 401 1036 397 1033 l 300 901 l 294 901 l 203 1028 b 186 1036 199 1033 194 1036 l 167 1036 b 158 1019 154 1036 151 1028 l 275 878 b 292 869 281 872 285 869 l 304 869 b 321 878 311 869 315 872 l 436 1019 b 428 1036 443 1028 440 1036 z "},"¸":{"ha":529,"x_min":0,"x_max":0,"o":"m 275 -1 b 264 14 279 8 274 14 l 253 14 b 238 3 244 14 239 10 l 208 -96 b 221 -111 206 -106 210 -111 b 346 -201 304 -115 346 -150 b 253 -281 346 -249 311 -281 b 168 -262 229 -281 196 -275 b 150 -269 160 -258 154 -261 l 149 -274 b 156 -292 146 -282 149 -289 b 251 -315 189 -308 221 -315 b 383 -199 338 -315 383 -262 b 250 -82 383 -125 324 -90 z "},"ˆ":{"ha":594,"x_min":0,"x_max":0,"o":"m 319 1032 b 303 1040 314 1038 310 1040 l 292 1040 b 275 1032 285 1040 281 1038 l 158 890 b 167 874 151 882 154 874 l 186 874 b 203 882 194 874 199 876 l 294 1008 l 300 1008 l 392 882 b 410 874 397 876 401 874 l 428 874 b 436 890 440 874 443 882 z "},"¨":{"ha":497,"x_min":0,"x_max":0,"o":"m 186 1006 b 172 1019 186 1015 182 1019 l 158 1019 b 144 1006 150 1019 144 1015 l 144 933 b 158 919 144 925 150 919 l 172 919 b 186 933 182 919 186 925 z m 353 1006 b 339 1019 353 1015 349 1019 l 325 1019 b 311 1006 317 1019 311 1015 l 311 933 b 325 919 311 925 317 919 l 339 919 b 353 933 349 919 353 925 z "},"˙":{"ha":340,"x_min":0,"x_max":0,"o":"m 196 1006 b 182 1019 196 1015 192 1019 l 158 1019 b 144 1006 150 1019 144 1015 l 144 933 b 158 919 144 925 149 919 l 182 919 b 196 933 192 919 196 925 z "},"`":{"ha":469,"x_min":0,"x_max":0,"o":"m 167 1046 b 158 1029 154 1046 151 1038 l 283 882 b 300 874 289 876 293 874 l 303 874 b 311 890 314 874 318 881 l 206 1038 b 189 1046 201 1043 197 1046 z "},"˝":{"ha":638,"x_min":0,"x_max":0,"o":"m 310 1029 b 301 1046 317 1038 314 1046 l 281 1046 b 264 1038 272 1046 268 1043 l 157 890 b 165 874 150 881 154 874 l 168 874 b 185 882 175 874 179 876 z m 478 1029 b 469 1046 485 1038 482 1046 l 449 1046 b 432 1038 440 1046 436 1043 l 326 890 b 335 874 319 881 324 874 l 338 874 b 354 882 344 874 349 876 z "},"¯":{"ha":546,"x_min":0,"x_max":0,"o":"m 400 953 b 386 967 400 963 396 967 l 158 967 b 144 953 150 967 144 963 l 144 944 b 158 931 144 936 149 931 l 386 931 b 400 944 396 931 400 936 z "},"˚":{"ha":493,"x_min":0,"x_max":0,"o":"m 247 1053 b 144 951 192 1053 144 1013 b 247 849 144 889 192 849 b 349 951 303 849 349 889 b 247 1053 349 1013 303 1053 z m 247 1022 b 318 951 286 1022 318 994 b 247 881 318 908 286 881 b 176 951 208 881 176 908 b 247 1022 176 994 208 1022 z "},"˜":{"ha":597,"x_min":0,"x_max":0,"o":"m 225 1010 b 144 917 172 1010 149 967 b 158 903 144 908 150 903 l 165 903 b 179 917 175 903 179 907 b 225 974 182 949 194 974 b 375 883 282 974 301 883 b 451 976 425 883 447 924 b 438 990 451 985 446 990 l 431 990 b 417 976 421 990 417 985 b 375 919 415 942 406 919 b 225 1010 318 919 297 1010 z "}}}
